<svg xmlns="http://www.w3.org/2000/svg" xmlns:xlink="http://www.w3.org/1999/xlink" viewBox="0 0 792 3024"><defs><style>.cls-1{fill:url(#linear-gradient);}.cls-2{fill:url(#linear-gradient-2);}.cls-3{fill:#6b5f38;opacity:0.85;isolation:isolate;}.cls-4{fill:#cd964e;}.cls-5{fill:#a97237;}.cls-6{fill:#ce974e;}.cls-7{fill:#aa7238;}.cls-8{fill:#36322f;}</style><linearGradient id="linear-gradient" x1="-8188.88" y1="3739.61" x2="-5992.7" y2="3739.61" gradientTransform="translate(7486.78 -1812.43)" gradientUnits="userSpaceOnUse"><stop offset="0" stop-color="#2679b6" stop-opacity="0.95"/><stop offset="0.44" stop-color="#b3ae78" stop-opacity="0.98"/><stop offset="0.69" stop-color="#ffca56"/><stop offset="1" stop-color="#6b5f38" stop-opacity="0.95"/></linearGradient><linearGradient id="linear-gradient-2" x1="-7724.72" y1="529.82" x2="-6687.08" y2="529.82" gradientTransform="translate(7601.9 -16.48)" gradientUnits="userSpaceOnUse"><stop offset="0" stop-color="#2679b6"/><stop offset="0.76" stop-color="#ffca56"/><stop offset="1" stop-color="#bc202e" stop-opacity="0.95"/></linearGradient></defs><g id="gradient"><rect class="cls-1" x="-702.1" y="1531.18" width="2196.18" height="792" transform="translate(-1531.19 2323.17) rotate(-90)"/><rect class="cls-2" x="-122.82" y="117.33" width="1037.64" height="792.01" transform="translate(909.34 117.34) rotate(90)"/></g><g id="composition"><g id="composition-2" data-name="composition"><rect class="cls-3" y="837.91" width="792" height="194.2"/><g id="ITprrl"><path class="cls-4" d="M136.9,903c-4-7.7-4.9-14.5,1.4-21.2,1.5-1.6-5.3-5.7-4.6-8.3,8.8,5.7,26.4,5,34.2,1l-9.6,8.3c1.4,2,3.2,4.4,5.4,7.6,3.2-4.9,9.1-8.6,4.1-15.8-4.3,2.2-7,3.7-11.3,4.8-5.4,1.5-14.5,2.1-19.4-1.7-6.1-4.8.4-3-4.1-3.4-9.3-.9-14.4,2.4-15.4,14.3-6.4-.8-14.7-5.4-19.8-8.7-9.1-3.9-20.2-13.1-11.2-19.9,1.7-10,3.5-22.2,12.4-27.1,9.9-3.7,14.8-3,23.2-1.9,8.4,2.1,8.1,4.4,14.9,3.9,11.6,3.7,16.4,2.8,21.5,2.2,25.5-2.3,41.3-18.5,59.3-33.1,21.6-17.5,32.2-42.9,46.9-65.4,1.9-2.9,2.8-6.5,4.1-9.8,6.1-14.7,19.8-17.9,33.1-21.8,1.3-.4,2.7-.7,4-1a2.51,2.51,0,0,0,.7-.4c-.9-5.3.7-8.2,6.6-8.9a169.85,169.85,0,0,0,20.1-3.9c9.4-2.3,18.7-5,28-7.6,4-1.1,8.1-2.2,11.6-4.2,12.3-6.9,25.3-11.6,39.4-12.1a295.41,295.41,0,0,1,31.2.7c3.6.3,7,2.9,10.5,4.3,12.4,5.1,24.8,10.3,37.3,15.2,1.9.7,4.3.1,5.1.1,1.7,2.7,2.6,5.4,4.5,6.9a107.06,107.06,0,0,0,14.5,9.6c4.2,2.3,9,3.8,13.5,5.7,2.8,1.2,6.7,1.7,8.1,3.9,5.5,8.4,13.7,12.4,22.1,16.9,9.9,5.3,18.7,12.7,28.9,17.1,5.8,2.5,13.5.5,20.2,1.2a88,88,0,0,1,16.8,3.5c6.6,2,12.9,3.7,20,2.1,5.5-1.3,9.9.2,8,7.9l5.3-.5c0,2.9.7,5.6-.1,7.8-2.4,6.9,1.3,7.8,6.7,10.8,9.8,5.5,18.5,12.8,30.5,13.8,2.4.2,5.4,3.5,6.5,6.1,5.4,13.1,18.7,12.6,28.8,17.5,3.4,1.6,7.2,2.2,11.5,3.5.2-.7.6-2,1.1-3.8l13.6,2.6c8.3-5.6,13.7-4.9,20.5,1.4.3.4-1.4,1.5-3.2,3.3,6.2-1.3,10,7.2,17.1,9v96.8c-2.9-.8-6-1.5-8.8-2.5-4.2-1.5-4.5,1.5-7.5,7-.8,1.6-7.5-1.8-9.3-2-9.4-1-8.7-2.6-18.2-4,3.1-6.1,3.4-17,8.3-12.9.8.6,7.4,2,8.4,1.8,7.8-1.1,11.4,3.8,7.8,6.4.2-.8.5-1.5.7-2.3l-19.7-6.6,11.5-4.2c-1.5-9-2.5-17.5-4.5-25.7-.7-2.8-3.7-5.6-6.3-7.4-8.9-5.9-18.1-11.5-27.3-17a22.55,22.55,0,0,0-6.7-2.5c-5.9-1.3-12.5-1-17.7-3.6-18.1-8.8-37.9-10.1-57.2-14-6.7-1.4-13.1,1.2-19.7-.3-5.2-1.2-8.9.5-14.3,1-14.8,1.2-24.7,1.8-36.5,2-19,.3-38.6,1.3-57.6,2.4-2.9.2-4.1-.4-8.7.1-4.9.5-6.7,1.6-13.7,2-5.1-.6-7.5.9-12.9-1.3-7.3,1.2-59.4,4.1-64.8,4.1m-90.9-39.4c6.1-1.3,12.1-9.2,12.6-16.8.2-2.5-.6-5.3.4-7.4,1.1-2.4,3.3-5.3,5.6-5.9,5.2-1.4,6.1-3.8,4.7-8.7a25.25,25.25,0,0,1,.2-12.8c10.4,10.9,26.6,18,20.5,37.8,7.9.9,14.7,1.3,21.4,2.7,11.8,2.4,23.2,5.4,30,17.1,3.2,5.6-4.1,30.4-5.2,31.1-3.2,2-5.1.4-13,2.5-22.3,5.8-54.1,17.1-75.6,25.2-11.2,4.2-11.2,4.3-14-8.4m297.2-51.2a24.24,24.24,0,0,0,10.1,3.4c11.8,1,23.6,1.4,35.7,2,5.2-7,6.7-22.1,1.3-25.3-8.6-5.1-17.7-10.6-27.3-12.5-7.8-1.6-17.5,0-24.6,3.6m-187.2-16.5c7.9,10.5,16.2,18.5,29.4,18.5,9.6.1,17.7,2.5,25.7,8.7,3.9,3,11.6,2.2,16.7,6.1,1,.8,3.4-.3,4.8-.4-4.5-12.5-13.9-19.4-24.4-25.8-8.7-5.3-16.4-12.2-24.7-18.1-7.5-5.3-14-13-24.7-11.9-.4,0-.8.6-1.2,1,.7,1.5,1.5,3,2.2,4.5-7.1-5.9-14-4.4-21-1.6l-.5,2.5,12.6,3.2-1.1.8,10.5,10.5Zm-36.4,57.3c3.1,3.4,5,5.3,6.8,7.3,1.9,2.2,3.7,4.5,6.4,7.8-1.4-11.9-8.9-19-18.1-18.7a23.37,23.37,0,0,1,1.9,5,42.78,42.78,0,0,1,.1,6.2l.9.1c.5-1.8,1-3.8,2-7.7Z"/><path class="cls-5" d="M586,809.31c4.3-8.8,10.8-14.8,19.7-19.4,7.1-3.6,16.8-5.2,24.6-3.6,9.6,1.9,18.7,7.5,27.3,12.6,5.5,3.2,4,18.3-1.3,25.3-12.1-.7-23.9-1.1-35.7-2.1a24.24,24.24,0,0,1-10.1-3.4C601.7,813.41,590.7,814.11,586,809.31Z"/><path class="cls-5" d="M418.6,773.41l4.3-2-10.5-10.5,1.1-.8-12.6-3.2.5-2.5c7-2.8,13.9-4.3,21,1.6-.7-1.5-1.5-3-2.2-4.5.4-.3.8-.9,1.2-1,10.6-1.1,17.1,6.6,24.7,11.9,8.4,5.8,16,12.8,24.7,18.1,10.5,6.4,20,13.3,24.4,25.8-1.4.2-3.8,1.2-4.8.4-5.1-4-12.8-3.1-16.7-6.1a40,40,0,0,0-25.7-8.7C434.8,791.91,426.5,783.91,418.6,773.41Z"/><path class="cls-5" d="M341.9,823.41c-6,.1-10.6.8-9.1,8.7a22.52,22.52,0,0,1-.8,9.3,6.38,6.38,0,0,1-3.8,3.9c-1.4.3-4.2-.8-4.8-2-2.4-4.8-4.1-9.9-6.4-15.6l10.5,5.2c-3.6-9.5-10.7-12.6-19.9-11.9,3.7-7.5,9.1-8.8,14.9-3.1,4.5,4.3,7.2,5.1,13.2,1.1,4.2-2.8,11.5-1.4,17.5-1,3.1.2,6.2,2,9.2,3.1l.8.3a6.12,6.12,0,0,0-.5,1.2l-4,.6-4.4.2-6.9,1.4"/><path class="cls-5" d="M380.2,838.51l-.9-.1a42.78,42.78,0,0,0-.1-6.2,30.24,30.24,0,0,0-1.9-5c9.3-.3,16.7,6.8,18.1,18.7"/><path class="cls-5" d="M769,891.81c-1.7-9.1-3.2-16.8-4.8-25.4C779.4,870.91,780.3,875.81,769,891.81Z"/><path class="cls-5" d="M167.4,873.51c5.8,8.3-1,12.6-4.7,18.3l-6.2-8.7"/></g><path class="cls-4" d="M-205.7,1594.61c-3.5-9.2-1.3-19.8,3.4-31.5.9-2.3,3.6-5.2,5.7-5.4,10.6-.9,18.3-7.4,27.1-12.3,4.8-2.7,8.1-3.5,6-9.6-.7-2-.1-4.4-.1-7l4.7.4c-1.7-6.8,2.2-8.2,7.1-7,6.3,1.5,11.9-.1,17.8-1.8a76.68,76.68,0,0,1,15-3c6-.6,12.8,1.1,17.9-1.1,9.1-3.9,16.9-10.5,25.7-15.2,7.4-4,14.8-7.5,19.6-15,1.2-1.9,4.7-2.4,7.2-3.4,4-1.7,8.2-3,12-5a99,99,0,0,0,12.9-8.5c1.7-1.3,2.5-3.7,4-6.1.7,0,2.8.6,4.5-.1,11.1-4.4,22.1-9,33.1-13.5,3.1-1.3,6.2-3.6,9.4-3.8a256.13,256.13,0,0,1,27.7-.6c12.6.4,24.1,4.6,35,10.7,3.2,1.8,6.8,2.7,10.3,3.7,8.2,2.4,16.5,4.7,24.8,6.8a155.48,155.48,0,0,0,17.8,3.5c5.2.6,6.7,3.2,5.9,7.9a2.09,2.09,0,0,0,.6.4l3.6.9c11.8,3.4,23.9,6.31,29.4,19.31,1.2,2.9,2,6.09,3.7,8.69,13,20,37.7,67.81,37.7,86.31m-81,29.89c-2.5,11.3-2.5,11.2-12.4,7.5-19.1-7.2-47.3-17.3-67.1-22.4-7-1.8-8.7-.4-11.5-2.2-1-.6-7.5-22.7-4.6-27.6,6-10.4,16.1-13.1,26.6-15.19,5.9-1.2,12-1.5,19-2.31-5.4-17.5,9-23.8,18.2-33.5a23.15,23.15,0,0,1,.2,11.4c-1.2,4.41-.4,6.5,4.2,7.81,2,.5,4,3.1,4.9,5.19.8,1.91.2,4.41.3,6.6.5,6.81,5.8,13.81,11.2,14.9m-38.2,14.8c1.8,7.9,6.4,2.7,10.2,1.7l-3.7-9.2,12.7,2.6.6,7.5,1.8-.1c.8-2.8,1.5-5.5,2.4-8.6,5.3.1,9.4.7,8.1,7.8a19.48,19.48,0,0,0,.7,8.31,5.25,5.25,0,0,0,3.4,3.4,4.79,4.79,0,0,0,4.3-1.8c2.1-4.31,3.7-8.81,5.7-13.91l-9.3,4.6c3.2-8.4,9.5-11.19,17.7-10.6-3.3-6.69-8.1-7.8-13.3-2.69-4,3.9-6.4,4.5-11.7,1-3.7-2.5-10.3-1.2-15.5-.9-2.8.19-5.5,1.8-8.2,2.69l-.7.31c.2.4.3.69.5,1.09m-216.1-29.1a36,36,0,0,0-21.9-3.2c-8.5,1.7-16.6,6.6-24.2,11.2-4.9,2.9-3.5,16.2,1.1,22.5,10.8-.6,21.3-1,31.7-1.8a20.06,20.06,0,0,0,8.9-3c7.8-4.7,15.5-9.4,25.4-8.5-7.1-5.9-13.3-13-21.2-17.1Zm290.3-55.6c-.6-.7-1.6-1-3.9-2.4-.2.7-.2,2-.8,2.5-7.9,6.7-7.6,6.6.8,14.3,6.9,6.2,13.2,13.2,19.8,19.8a44.6,44.6,0,0,0,4.8,3.81l1.5-1.4-20.3-23.81,6-2.5c-3-3.8-5.4-7.1-7.9-10.3Zm-357.6,78.4a15.52,15.52,0,0,1-.4,2.1l9.3,3.4c.9-2.8,1.7-5.6,3.2-10.4Z"/><path class="cls-5" d="M61.8,1519.91c-41.2-14.4-75.4,10.8-65.8,28.8l15.8-6.6,61.1-1.9Z"/><path class="cls-5" d="M117.6,1582.11c5.3.1,9.4.7,8.1,7.8a19.48,19.48,0,0,0,.7,8.31,5.25,5.25,0,0,0,3.4,3.4,4.79,4.79,0,0,0,4.3-1.8c2.1-4.31,3.7-8.81,5.7-13.91l-9.3,4.6c3.2-8.4,9.5-11.19,17.7-10.6-3.3-6.69-8.1-7.8-13.3-2.69-4,3.9-6.4,4.5-11.7,1-3.7-2.5-10.3-1.2-15.5-.9-2.8.19-5.5,1.8-8.2,2.69l-.7.31.5,1.09,1.3-.59-.3.09,12.7,2.6"/><path class="cls-5" d="M181.3,1507.11c-2.9-3.8-5.3-7.1-7.9-10.3-.6-.7-1.6-1-3.9-2.4-.2.7-.2,2-.8,2.5-7.9,6.7-7.6,6.6.8,14.3,6.9,6.2,13.2,13.2,19.8,19.8a35.68,35.68,0,0,0,4.8,3.81l1.5-1.5-20.3-23.81Z"/><path class="cls-5" d="M100.4,1580.21c-7.9,1.9-2.7,6.4-1.7,10.2l14-7"/><g id="ITprrl-2"><path class="cls-4" d="M603.6,1720.81c-31.1-17.6-99.3-12.2-96.1-20.1,1.3-3.2.9-7.9,1.4-13.1.9-.4,3.8-.6,5.5-2.8,11.2-14.1,22.1-28.6,33.1-43.1,3.1-4.1,5.5-10,9.4-12.2a268.33,268.33,0,0,1,33.9-17c15.8-6.5,32.5-5.69,49.5-1.19,4.9,1.3,10,.9,14.9.69,11.6-.5,23.1-1.19,34.6-2.3a150.5,150.5,0,0,0,24-4.1c6.8-1.9,10.1,1.9,11.8,10.7a1.69,1.69,0,0,0,1,.3c1.7-.1,3.3-.3,4.9-.4,16.5-.7,33.2-2.6,47.5,17.3,3.2,4.5,6,9.7,9.6,13.4,27.6,27.91,19.4,20.31,43.9,64.7M767.3,1636c-1.1-.9-2.6-.9-6.3-2,.2,1.3.9,3.6.5,5-5.9,16.5-5.6,16.2,9.3,24.8,12.2,7.1,23.9,15.9,35.9,23.8a76.15,76.15,0,0,0,8.1,4c.3-1.2.7-2.3,1-3.4l-38.8-30.6,6-7.8c-5.7-5.2-10.7-9.7-15.7-13.8Z"/><path class="cls-5" d="M783,1649.71c-5.7-5.1-10.7-9.6-15.7-13.8-1.1-.9-2.6-.9-6.3-2,.2,1.3.9,3.6.5,5-5.9,16.5-5.6,16.2,9.3,24.8,12.2,7.1,23.9,15.9,35.9,23.8a74.29,74.29,0,0,0,8.1,4c.3-1.19.7-2.3,1-3.4l-38.8-30.5Z"/></g><path class="cls-6" d="M53.6,838.11c3.7-1,10.5-4.6,11.6-4.6,7.4.3,10.4,2.5,16.8,2.3,6.6.5,11,1.2,15.8,4.3,2.5,1,4.8,1.3,7.3,2.5l-5.7,9.8-12.7-6.2c-8.1,13.5-9.2-4.6-16.1-4,2.6,12.8-8,12.4-15.5,15.3-4.9,1.9-9.9,3.6-16.9,6.2l10.3,7.5c2.1-6.9,3.6-14.3,12.3-8,.4.3,2.1-1.5,3.4-2,2-.8,4.4-2.2,6.1-1.7,7,2.1,14.9,4.8,21.8,7.3-6.7,11.5,61.5-13,44,21.1-3,.6-50.9.6-55.4,1.5-12.9,1.9-32.6,6.3-37.1,7.9-9.9,3.5-13.6,13.3-17.2,12.1-13.3-4.2-26.2,5.4-26.1,2.3.1-4.3-.1-9.6-.1-13.9,0-11.5,2.7-9.8,4.2-20.8.3-2.1,10.4-3.6,13.2-8,3.7-5.2,6.4-6,8.9-8.8,1.6-1.8-1-5-.7-7.2.2-1.2,6.8-3.7,9-4.6,2.6-1.1,4.5-2.1,5.8-4"/><path class="cls-7" d="M91.9,867c-6.9-2.5-14.8-5.2-21.8-7.3-1.7-.5-4.1.9-6.1,1.7-1.2.5-3,2.3-3.4,2-8.7-6.3-10.3,1.1-12.3,8l-10.2-7.6c7-2.6,12-4.3,16.9-6.2,7.6-2.9,18.2-2.5,15.5-15.3,6.9-.6,8,17.4,16.1,4l12.8,6.2C96.5,857.31,94.7,862.11,91.9,867Z"/><path class="cls-6" d="M101,998.61c-9.1-.2-27-5-29.7-4.2-17.2,4.8-23,11.6-37.9,14.8-15.2,4.8-24.9,8.9-34.5,18.8-5.3,3.6-10.6,5.8-15.6,9.9,1.4,9-10,12.6-9.2,24,8.5-6.9,44.9-18.1,54.3-25.8,26.4,27,19-15.7,35.4-18.1.9,31.4,25.4,24.6,44.7,27.1,12.5,1.7,25.1,3,42.9,5.1l-19.9,23.1c-8.6-15-16.3-31.5-33.2-11.9-.8.9-5.8-2.3-8.9-2.8-5.1-.7-11.4-2.7-15.2-.6-15.3,8.8-94.1,26.2-108.9,35.8-5.9,14-15.5,25.1-18.5,52.4,34,4.8,78.2-8,89.3-8.4,31.2-2.7,90.2-1.9,111.4-2.1,25.3-.2,47.9,15.6,56.9,14.6,30.9-3.6,64.1-2,62.3-9.2-2.5-9.9-5.1-22.5-7.5-32.6-6.5-27-11.6-21.4-21.2-46.2-1.9-4.8-26.2-2.7-35.3-11.5-11.6-10-18.4-10.6-25.5-15.6-4.7-3.3-.3-12.3-2.4-17.3-1.1-2.7-18-4.8-23.6-5.7-6.7-1-11.5-2.4-15.8-6.1"/><path class="cls-7" d="M-34.7,1093.91c14.8-9.6,93.6-27,108.9-35.8,3.7-2.1,10.1-.1,15.2.6,3.2.4,8.2,3.7,8.9,2.8,16.9-19.6,24.6-3.1,33.2,11.9l19.9-23.1c-17.8-2.1-30.3-3.5-42.9-5.1-19.3-2.5-43.8,4.2-44.7-27.1-16.5,2.4-9,45.1-35.4,18.1-9.4,7.7-45.8,18.8-54.3,25.8C-27.7,1066.11-38.7,1082-34.7,1093.91Z"/><path class="cls-8" d="M200.1,1004l9.4-2.7-5.8-6.9c-.4-.5-3-.9-3.4-1.5-1.7-2.8-1.2-5.5-2.9-8.3a2.34,2.34,0,0,0-1.2-1c-3.5-.8-5.2-5-8.7-5.9.3.7.6,1.5.9,2.3l-.4.2-4.5-7-.7.2c-.4,1.4-.7,2.9-1,4.3l-1.2-5.6c-5.1,1.4-5.9,2.2-6.6-1.6-.7.4-1.4.8-2,1.2a2.78,2.78,0,0,1-2.2.4l2.7-2-1.4-2.9.6-.4-1.9-.1-2.2-2.8c.4-.6,1.6-1.6,1.5-2-.3-1-1.4-1.6-2.6-2.8l3.8-.6-1.4-2.3,2.3,1.6c.1-2.7-.3-5-2.1-7-.8-.8-1.6-2.4.2-3.2l-1.4-2.1v.1a19.42,19.42,0,0,0,2.4.2c3.3,0,6.3,2.7,9.8,1.9.8-.2,1.9,2,3.1,2.5a6.67,6.67,0,0,0,4.4.6c1.2-.4,2-1.9,2.9-2.9l-2.5-3.3,2.8-2.7-3.2-1.3.1-.4,3.2-.1.1-.5-4.9-2.8,4.6-.8-1.4-3c3.4-1.8,3.5-1.9,2.9-7.8.5.5,1,1.1,1.5,1.7,1.3,1.91,2.2,4.21,5,3.21.2-.1.9.79,1.1,1.29.4,1.71.7,3.41,1,5.1l3.5-1c-2.5,2.6-2.2,3.4,1.5,4.9-2.1,2.3.6,3.71,1.2,5.5-3.1,3-3.1,3.3-.4,7.41-.1.09-.3.4-.3.3-1.9-.71-3.6-1.21-4.1,1.79-.3,1.8-2,2.8-1.1,5.3.9,2.7.5,5.8,1.1,8.7.8,3.71,1.6,7.41,4.2,10.41,1,1.2,1.7,2.7,2.8,4a87.51,87.51,0,0,0,7.2,7.8c.2.59,1.5.4,1.9.59a4.5,4.5,0,0,1,3.6.41c2.3-1.6,4.7-.71,7.4.29.6.21,1.8,1.5,2,1.1"/><g id="IzcdIG"><path class="cls-8" d="M202.2,991.61c0-.7-.4-105.9-.6-106.6a2.2,2.2,0,0,1-.1-.8c.9-3.8-.1-7.7.7-11.5a.22.22,0,0,0-.2-.2l-.7,1.2-.2-.1,1.3-6.3-.4-.2-.6,1-.3-.2v-3.6l-1.6.2a4.1,4.1,0,0,1,.1-1.1c.6-3.4.3-6.59-2-9.4l-.1,2.2-1.7-3.2-1.3,1.7c-.1-1.7-.2-3-.2-4.3-.1-1.7.2-3.5-.3-5-.8-2.29-1.7-4.59-2.7-6.79l-.3.09.2,1.7-.3.1-2.1-4.8-.6.7c-.1-.7-.2-1.29-.4-2.4-.2,1.5-.3,2.5-.4,3.9-.3-1.09-.5-1.9-.7-2.7a21.66,21.66,0,0,1-.4-2.5,3.09,3.09,0,0,0-1.1-2l.2,2.2-.4-.1c-.5-1.5-1-3.1-1.5-4.6h-.3l-.2,2-.5-.8-1,1.8c-1-1.8-1.9-3.6-2.9-5.3l-.2.1.2,3c-1.4-1.7-2.2-3.1-2.1-5a9,9,0,0,0-.7-2.7l-.3.1.2,1.9h-.3l-1.3-4.3c-.9.3.1,1.8-1.2,2a8.85,8.85,0,0,0,0-2.3,14,14,0,0,0-6-9.6c-.2-.1-.5-.3-.5-.4.2-1.9-1.8-2.2-2.4-3.8l-.7,1.6-1.3-.1c-.4,1.2-.7,2.3-1,3.6a38.79,38.79,0,0,1-3.9-4.2c-.6-.9-1.8-1.2-2.2-2.2s-1.6-1.1-2.1-1.9c-.7-1-1.7-1-2.6-1.5l-.2.7c-1.8-.4-2.8-1.8-3.7-3.2a3.33,3.33,0,0,0-1.4-1.2c-.4-.2-.9,0-1.5,0l-2.1-2.9-.2,1.1c-1.5-.7-1.2-3.1-3-3.2l-.3,1.2-1.7-2.7-.3.2.1,1.2a17.22,17.22,0,0,0-4-4.9l-.6,1.7-1.5-3.5-.2.1c.2,1.2.5,2.3.7,3.5H129c-1.2-3.6-1.3-3.8-2.5-3.7-.8-2.2-1.7-4.3-2.5-6.5-.3-.9-.8-1.3-1.7-1l-.9-2H121l-.2,1.5c-.7-1.9-.6-4.1-2.6-5.9l-.3,3.9c.4-4.4-1.7-8-3.4-11.7.4,2.4,1.3,4.6,1.1,7.4-2.4-9-3.1-10.8-5.2-12.3l.8,2.7a19.52,19.52,0,0,1-1.7-2.3c-.5-.6-.5-1.9-1.9-1.4l-.6-1.6-.2-.5c-1.3-.1-1.4-1.3-1.8-2.2a5.25,5.25,0,0,0-3.6-3.2c-.2,3.6-.1,7.1,1.7,10.8l-1.9-2-.8-4.7c.2-.3.6-.5.6-.8,0-1-.1-2,0-3,.1-1.3-.6-2.1-2-2.7.3,1.4.5,2.6.8,3.7l-1.5-3.4-5.7,6.5-.3-.3,6-7.3-1.9-3.5-.6,1.6c-.8-.8-1.3-.1-1.8.4s-.7,1.6-1,1.6c-1,0-1.3.8-1.9,1.3-1.2,1.1-2.3,2.3-3.4,3.5a7.55,7.55,0,0,1-1.4,1.1h0c.6-.8,1.1-1.6,1.8-2.4l3.3-3.6c.6-.7.8-1.2-.2-2-.8.4-1.6.8-2.4,1.3a13.5,13.5,0,0,1-2.6,1.5l-2.4.9a7.4,7.4,0,0,0,2-2.3c-4.9,1.4-8.6,5.1-13.4,6.2,1-.8,2.3-1,3.1-2.1l-5,1.7,1.6-1.6-2.8.7c-.3-1.5-.3-1.8,1.4-2.5a74.49,74.49,0,0,0,8.7-4.9.78.78,0,0,0,.4-.4l-.7-1.2c-1.6.8-3.2,1.7-4.8,2.4a4.3,4.3,0,0,1-1.6,0l1.3-1.1a2.94,2.94,0,0,0-3,.2c-1.6.8-3.3,1.5-5,2.3h.1l2.2-1.8-5.8.5c.4-1.8,2.7-1.3,3.1-3.2a17.42,17.42,0,0,0-2.2.5,7,7,0,0,0-2.8,1.2c-1.1.8-1.7-.4-2.6-.3a16.05,16.05,0,0,1-3.1,0l-.1-.3,3.1-1.8-.2-.5-3.2.5-.1-.2,1.1-.7,5.1-1.2c2-.4,2.5-2.3,3.8-3.4a14.21,14.21,0,0,0-4.7,2.5c-.4.4-.9,1-1.3.9-1.2-.2-2,.7-2.9,1.1.7-.9,1.5-1.7,1.3-2.8H53.9c-.2-1.7,1.5-2,2.3-3.2l-4.4,1.6-.2-.3,3.5-2.5-.2-.3-6.8,3.6.6-1.5-1.3.2-.1-.2,5.5-3.1-.3-.5-6.9,3.5-.2-.3,4.2-3-.2-.3-1.9.6-.1-1.4h-1l-.2-.3,5.4-4.2-.2-.4-3,.9-.2-1.2-3.7,1.6-.1-.2,1.5-.9c-.7-.7-.4-1.3-.2-2a6.43,6.43,0,0,0,4.3-2l-4.2,2.1-1.4.3c-4.2,1.7-8.5,3.5-12.8,5.2-.2.1-.5.1-.7.2,4-3.7,8.9-5.8,13.5-8.4-4.2.7-8,2.6-12.2,3.8l.3-1.4c-1.5,0-2.7,1.2-4.3.5a10.08,10.08,0,0,1,2.3-1.2l3-1.2a14.16,14.16,0,0,0,2-.4l6-1.8c1.3-.4,2.7-.7,4.4-1.1L47,716a18.92,18.92,0,0,0-2.3.5c-2,.6-4,1.3-6,1.9a21.05,21.05,0,0,1-2.5.2l-.8.3-1.7.1h0l.5-.9-5.6.8c2-1.7,4.4-2,6.7-2.6l-3.8-.8v-.2l7.1-.9c-4.2-.4-8.2.7-12.4,0a7.22,7.22,0,0,1,2-.9,13.55,13.55,0,0,1,2-.2h2v-.5H28.9L39,712v-.2H28v-.2l3.3-.3v-.1l-4-.4v-.3l2-.5-1.8-.4v-.3l12.2.6c-4-1.6-8.5-.9-12.5-2.4l.1-.5H30l.1-.3-2.5-.9,1.2-.4-.4-1c2.2-.7,4.5,0,6.5-1.3a11.42,11.42,0,0,0-2.6-.9,3.45,3.45,0,0,1-2.1-1.4l2.7.7-1.4-1.1a1.44,1.44,0,0,0,1.7-.9c.7-1.4-1.4-1.3-1.4-2.5l4.4,1.5-.3-1.7,1.3.5.1-.3-2.9-2.9,1.8-.1-.1-2.6,3.5,2.6c-.8-1.5-2.2-1.9-2.5-3.6l4,2.7-1.8-5.4c1.1.4,1.5,2.1,2.9,1.2.7.8,1.4,1.5,2.1,2.3a.86.86,0,0,1,.3.6c.2,1.4.7,2,2.2,2l-.9-1.8.3-.3,3.2,2.4a29.77,29.77,0,0,0-2-2.9,4.42,4.42,0,0,1-.6-1.6l-.1.1,2.9,2.5.4-1.9h1l.2-.3-2.1-1.5.7-2.1,3.8,2-.8-1.6h1l-.3-1.3,2.5,1.8c-.6-1.6-2.3-2.3-1.7-4.1l1.6,1.2,1.3-1.6,3.4,4.1c0-2.3-2-3.8-2.3-6.2,2,1.8,2.8,4.2,4.9,5.4-.9-2.2-1.9-4.3-2.8-6.5l.4-.3,2.7,2v-1.1a3.37,3.37,0,0,0-2-3.8,39.56,39.56,0,0,1-3.4-2.2l.8-.5-5.3-3.4.3-.4,10.1,5.7a.78.78,0,0,0-.2-.8c-2-1.6-4-3.2-6.1-4.8a5.7,5.7,0,0,1-2.3-3c1.9.5,3.1,1.7,4.5,2.6s2.7,1.8,4.1,2.6c-2.3-2.7-5.4-4.6-6.7-8,.7-1.2,3-.7,2.6-3l3.4,2.3q.75.45.9-.3v.1a3.58,3.58,0,0,1,1.1.4,9.21,9.21,0,0,0,4.3,2.4c-2-2.2-4.1-4.4-5.2-7.5l3.8,1.4.6-2.1,1.2.9-.8-2.7c2.2,1.4,1.3,4.1,3.4,5.7l-1.5-6.1.3-.1,2.5,3.1c.6-1.7.6-1.7.1-3.1l-.6-1.8.4-.3c2.4,2.3,2.5,5.7,4.1,8.5-1.4-3.2-.5-6.8-2-10,0-.1.1-.3.2-.9l1.6,3.3.2-.1-.2-1.9c3-.5,3.7,1.5,4.3,3.7l-.4-3.9H82c.5,2.5,1,5,1.5,7.6.1-3-1-5.9,1.2-8.5.5,1.5-.2,3,.9,4.6l.8-3.4h.3v7.8l.6-.6.3.7.4-3.7c.3,1,.5,1.8.8,2.7l.8-1.6.3.1v1.9h.3c.5-1.8,1.1-3.5,1.7-5.5.3,2.6,0,5,.6,7.7l3.2-6.9c1,1,.7,2,.5,3-.2,1.2-.5,2.4-.7,3.6,1.3-1.2,1.3-3.1,2.8-4.2.5,1.6,1.2,1.8,3.7,1.2-.5-1-1.4-.5-2.1-.7-.2,0-.3-.2-.4-.4l1.5-.5-2.7-1.5,1.3-.4-.2-.9c1.9.5,3.4,2,5.7,1.5a31.53,31.53,0,0,0-3.8-3.5,2.29,2.29,0,0,1-1-2.4c-1.1-.7-2.3-.8-3.1-1.7l1.5-1-2.8-1.8.1-.3,3.3,1.3c-.3-1.5-3-1.3-1.9-3.5l2.2.6a3.65,3.65,0,0,0-1.5-3.5c-.7-.5-.3-1,.2-1.5l1.9,1.3c1.2.9,2.4,1.8,3.6,2.6.2.2.6.1,1.3.1l-4.5-4.3.3-.3,2.5,1.6.3-2.9,2.6,2.1c-.6-1.4-1.3-2.3-.6-3.4l1.8,1.5c.6-.8,1-1.5,1.5-2.1.6-.9.3-2,.3-3a18.08,18.08,0,0,1,1.9,2.9,6.12,6.12,0,0,0,1.2.5l-.7-3.5c1-.4,1.5-.1,1.8.6s.6,1.5.9,2.2.6,1.6.9,2.4c-.2-2.3-.2-2.3.7-3.5l1.9,1.4.9,6.7c.8-1.2.1-2.6.2-3.9s-.6-2.4.2-3.8c.5-.9-.1-2.4-.2-4l2.3,8,.3-1.7h.5c.1,1.6.2,3.2.3,4.4q.15-1.2.3-3.6l.8,1.2,1.1-1.8a4.1,4.1,0,0,1,.1,1.1c-.4,1.3-.4,1.3.3,3.5a20,20,0,0,1,.4,2.4h.2c.1-1,.2-2,.4-3.1a5.07,5.07,0,0,1,1.8,2.5,21.19,21.19,0,0,1,.4,4.4,2.29,2.29,0,0,0,1.4,2.3h0l1.2,2.3c.1-.4.2-1.2.4-1.2,1.6-.3,1.2-1.4,1-2.3a5.32,5.32,0,0,1,.2-4.1c.2-.4,0-1.1.1-1.6.1-1.2-.2-2.6.6-4,.2,2.3.8,4.2-.1,6.3-.2.5.3,1.3.5,2,.3.5.6,1,1.1,1.9l-1.2-.5c.4,1.4,0,2.3.4,3.5l1.3-.5a12.86,12.86,0,0,0,.4-1.9c-.2-1.9-.5-3.8-.8-5.7l1.5-1.5c-.3,3.1,0,5.3.7,6.5.4-1,.5-2.3,1.3-3.2a6.09,6.09,0,0,0,1.8-3.1c.1,1.5,0,3,.1,4.4s-.7,2.9.6,4.5c1.8-2.6.7-5.8,1.9-8.3l.4.1-.5,4.6.4.1c.2-2.1,2-3.3,3-5.1-.1,1.7-.2,3.3-.3,5l2.1-3.8.4.2c-.3,1.3-.7,2.5-1,3.8l.3.1,1.7-4.1.2,2.1,1.3-1-.6,3c1.5-2.4,1.5-2.4,2.4-2.7l-1.5,3.6.2.1,2.3-3.2c1.4,1.9-.6,3-.5,4.7l3.1-4,.2.1c-.3,1.1-.5,2.2-.8,3.2h4.3c-.6.9-1,1.8-1.5,2.6s-1.3,1.3-1.2,2.5l2-1.4c-.7,1.8-2.5,2.4-2.8,4.5l2.6-2.3c.7-.6,1-1.9,2.4-1.7l-.2,1,1.6-.7.2.3-2.2,1.9.1.3,1.6-.3-.3.9-1.3.6.2.3,1-1,2.7-1.6c-.8,1.5-2.4,2.1-3.3,3.8h2.2l-1.8,1.5.1.2,2.9-1.3.3.3-3,3.9,2.7-1.1.6,1.2-2.9,1.8.8.5-3.6,3.7c1.5.4,2.1-1.5,3.8-1.5-1.3,1.4-2.4,2.6-3.6,3.8,1.2.1,2.3-.5,3.6-.1-1.8.8-1.8.8-2.4,1.7l2.9.1a4.38,4.38,0,0,1-1.9.7c-.7.1-1.4.1-1.8,1.1l2.4-.7-.5,1.6,1.8.7v.2H162l-1,2.8c.5.9,2.1.5,1.5,2l2,1.1c-1.5.3-2.6-1.1-4-.2,1.9,1.9,4.5,2.4,6.6,3.7-1.1,1.5-2.1,2.8-3.1,4.2s-1.2,2,.6,3.3l2.6-1.9c.6,1.4-.4,2.4-.6,3.9.8-1.2,1.5-2.2,2.1-3.1l.4.2c-.4,1.2-1.9,2.2-.9,3.7.8-.5,1.4-.9,2.1-1.4h0l-2.2,3,2.6,2.2,2-1.3.1.2c-.4.5-.8,1-1.4,1.7l2.2,1.9c.8-1,2.2-1.1,1.7-2.7,2.7.3,3.9,3.3,6.9,3.5-1.2-2.9-3.6-4.5-5.1-6.8l6.6,3.4c-1-2.1-3.7-2.1-3.6-4.3-1.4-.8-3-.9-4.2-2,1.4,0,2.6.8,4.2.8l-1.6-2.3.3-.2,4,3.5.4-.9,1.4.4c-1-1.8-2.8-2.6-3.5-4.5l1.2-.3-1.9-2.9.4-.3a10.7,10.7,0,0,0,1.6,1.4c.4.2,1.1.5,1.2.3a7.37,7.37,0,0,0,.4-1.4c1.4-.3,1.9-1,1.6-2.2s-1-1.5-2.4-1.1l.3-2.4h.6l-.3-1.6,2.9,1.3a6,6,0,0,1-.9-1.5,11.4,11.4,0,0,0-1-1.9l1.5-1.7a.9.9,0,0,0,.9.9h.3a1.85,1.85,0,0,0,1.3,2l-1.3-2a5.85,5.85,0,0,0,.2-1.3l-1.4.4c.6-1,1.2-2.1,1.8-3.1s1.5-2.1,1.2-3.5c-.3-1.2,1.7-1.7,1.1-3.4-1.7,1.9-2.6,4.2-4.5,5.6.5-1.2,1.2-2.4,1.8-3.6,1.4-2.7,1.4-2.7,1.3-3.8-1.1.8-1.4,2.4-2.9,2.7l2.1-3.2-.1-.2-4.5,2.8h0a30.7,30.7,0,0,1,2.5-2.6,10.1,10.1,0,0,1,1.6-1.3l-.2-.3-1.3.7-.2-.3,4.5-4.3-.2-.5-9.4,1.5a12.31,12.31,0,0,1-5.4-.1c4.5-.4,9-.8,13.1-3.7l-2.9-.3c2.2-.7,4.9-.1,6.3-2.7a2.22,2.22,0,0,0-2.3-.6,23.18,23.18,0,0,1-3.8.6,4.42,4.42,0,0,1-3.8-1.2,12,12,0,0,0,7.5-.2c-1.6-1.5-3.9-1.1-5-2.5l.9-1.3a19.23,19.23,0,0,0,3.1,1.8,3.54,3.54,0,0,0,3.7-.3c-1.6-.6-2.8-1-4.1-1.5-.4-.2-.7-.4-1.1-.6.4-1.2-.7-1.1-1.2-1.5a20.16,20.16,0,0,0-3.2-1.8c-.5-.3-1-.7-1.8-1.3h1.7l-5.2-3.3c2.2-.3,3.8,1.5,6.1,1.2-1.1-2-4.3-1.3-4.4-4.2l1.8.6.2-.3-3.9-2.5,2.4-.3a21.69,21.69,0,0,0-3.5-1.5c-1.1-.4-2.2-.8-3.3-1.3,1.8-.3,3.6-.1,5.3-.4s3.3,1,5.4.1c-.8-.3-1.3-.5-1.8-.7a28,28,0,0,0-7.6-1.2,9.74,9.74,0,0,1-4-1.5l9.6-.4c-3.8-1.6-8-1.3-11.4-3.3l.2-.5,8.4,1.4a1,1,0,0,0-.5-.8c-1.5-.7-3-1.5-4.6-2.1-.6-.3-1.2-.6-.6-1.3l-2.6-1.2c1.9-1.2,3.1,0,4.6,0-.9-1.1-1.7-2.2-2.6-3.3l1.7-.4c-1.1-.9-2.5-1.1-3.6-2.4l3,.6-1.9-1.6c1.9.1,3.4,1.5,5.5,1.2l-4.9-3.9,1.4-.1,1.2-.1-1.5-1.9.2-.2,4.3,2.5.2-.2-2.3-2.7c1.8-1.2,2.7.7,4.4.7l-2-3.1.4-.3,4.6,4.3-.4-2.6,1.9,1.2-.8-1.8.2-.2,1.6,1.3c-.5-2.4-1.9-4.2-2.8-6.2,1,.9,2.6-.4,3.2,1.2.7-1.2-1-2.3-.1-3.5l1.1,1,.3-.2-.9-2.5.3-.1,1.9,2.9.2-.1-.5-2.2.2-.1,1.4,1.8c.5-.59.2-2,1.7-1.5.2-.7.5-1.4.7-2.09h.4l1.8,5.2a16.45,16.45,0,0,0-.4-3.1c-.1-.9-.2-1.8-.3-2.8h.3l1.1,2.7.2-1.4.7.4.3-1.1.4.9,1.4-1.2c.2,1.4.4,2.5.6,3.6s-.4,2.2.7,3.1a9.42,9.42,0,0,0-.1-2.9c-.2-1.2-.3-2.3.7-3.1.3,1.3.6,2.6,1,3.9.2.7.7,1.3.9,2,.3,1.6.5,3.2.8,4.8a6.05,6.05,0,0,1,0-1.9,3.23,3.23,0,0,1,.8-2.1c.1.8.2,1.3.3,1.9h.3c.6-2.7,1.1-5.3,1.8-8.1,1,.4,1.4.8,1.1,1.6a15.48,15.48,0,0,0-.6,7.4c.2-2.5.3-4.9,2.5-6.9a22.82,22.82,0,0,0-1.6,9.3c.5-1.1.6-2.3,1-3.4s0-2.4,1.7-3.2c-.3,1.7-.5,3.2-.7,4.6.1-.6.3-1.2-.2-1.7,0,.5-1.1,1.29.3,1.59.2.8.4,1.5.6,2.41l.6-2a38,38,0,0,1-.7,5.79,4.69,4.69,0,0,1-1.1,2.5c-.1,1.21-1,2.41,0,3.71v-3.81l1.1.8c.5-2.3.9-4.3,1.4-6.3l.6.1c-.2,1.5-.4,3.1-.6,4.6h.9a25.44,25.44,0,0,0-.9,9.1c1.9-1.3.2-2.9.7-3.7.7-.9,1.1-1.4,1.8-2.2l1.1,1.5c.3-.6.9-1.2.9-1.9s-.5-1.2-.8-1.8c1.9-.4,2,1.7,3.5,2-1.6,1-1,2.6-1.2,4,0,.2.7.6,1.1.9l-.5,1.1c.4,0,.8-.1.8-.2-.1-.3-.2-.5-.3-.8-.5-1.5.6-2.3,1.3-2.9l-.1-1.8h.5c1,.9,1,1.5.1,2.8-1,1.5-1,1.5.1,2.8a2.39,2.39,0,0,0-1.5,2.8c1.8-.5,1.8-2.2,2.5-3.3s1.5-2.4,2.5-4c.4,1.8-.6,2.6-.9,3.6s-1.9,1.7-1.3,3.5c.6-.6,1.2-1.3,1.7-1.9,1-1.5,2-3,3.1-4.5a2.7,2.7,0,0,1,.8-.7,7.34,7.34,0,0,0-.3,4.4l1.5-1.8c.5-.5.9-1.3,2-1.4l-2.2,3.8.3.2,1.5-1.3.5,1,1.3-.8c.8,1,1.9.8,3,.5.1-.5.1-1,.2-1.4s1.1.2.8-.7l-.6-1.2c1.3-.6,1.4-1.6,1.4-2.7,0-1.5.1-3.1.2-4.6h.4v4.2c.3-1.5.6-2.9,2.3-4l-.3,4.4c1.4-1.8,1.3-4.1,2.4-5.9l.4.1c-.1,1.8-.2,3.6-.3,5.6l1.4-3.5c.5,1.6-.9,2.8.4,4.2l2.1-5.8c.8,1,1.6,1.5,2.8.3l-.2,1.6,2.6.3-1.2-3.2.3-.2c1.1,1.3,2.3,2.5,3.4,3.8l.3-.2-1.7-5.2c2.1,1.8,2.1,1.8,3,1.8,0-.6.1-1.2.1-1.8a9.24,9.24,0,0,1,1.7,2.2c.4.5.5.2.5-.2h0l1.7,1c-.4-1.3-.8-2.3-1.1-3.3s-.6-1.9-.9-3.1c1.3.6,1.2,2.2,2.6,2.3v-2.1l1.8,2.8.3-2h.4c.2.9.4,1.9.6,2.8.4.9.8,1.8,1.3,2.7.2-2.3-.7-4.3-.6-6.7,1.5,1.1,1,2.6,1.7,3.8-.3-1.5.6-2.4,1.2-3.4.2.5.4.9.6,1.3,1.8-.6,1,1,1.2,1.5a14.28,14.28,0,0,1,.3,2.9h.5l-.3-5.5h.3l.3,1.3h.2l.3-1.3.3,3.1h.1l.3-3.3c1.1,2.6-.1,5.2.6,8v-3.1a3.17,3.17,0,0,1,1.1-2.7l1.7.5a10.59,10.59,0,0,0-1.9-2.3V605l.9-1.4c3.1,1.8,5.4,4.6,8.4,6.4-1.7-2-3.4-3.9-5.1-5.9l.3-.3,4.6,3.9c-.8-2.2-2.8-3.8-2.6-6.4l2.2,2.5c.8-3.3-1.7-5.3-2-8l3.3,4.6.1-.1-1.4-3.5.3-.2,1.4,1.3-.6-2.8.5-.2,2.3,3a11.3,11.3,0,0,1-.3-6.8,8.34,8.34,0,0,0,.8,1.2,3.32,3.32,0,0,0,1.4,1,3.57,3.57,0,0,1,3,2l.6.9.4-.2c-.1-.5-.3-.9-.4-1.4a3.59,3.59,0,0,1,.5-3.6c1.1-1.4,2.5-2.9,1.9-5.1,0-.2,0-.4.2-.5,1.7-.9,1.2-3.4,3.2-4.2.4-1.4,1.7-.6,2.5-.9a2,2,0,0,1,.8,1.2c-.7,0-1,.1-1.4-.1a16.18,16.18,0,0,1-1,1.8c.2.1.5.3.7.4a1.11,1.11,0,0,1,.4,1.4.22.22,0,0,1-.2.2.83.83,0,0,1-1.2.2,1.38,1.38,0,0,1-.3-.4l-.4.4.9.7c-.2.8-.3,1.7-.5,2.7l2-.4c.2.8.3,1.5.5,2.2l-1.6,1.4-1.5-1.1a2.46,2.46,0,0,0,1.8,2.4c1.1-.7,2.2-1.3,3.2-2a10.76,10.76,0,0,1,4.5-2c.1,0,.2.1.4.1.4.6-.3,1.7,1.1,1.8l.7-3.1c1.1,1.7.2,4,2.1,5-.2.8-.6,1-1.3.9-1.1-.2-1.2-1-1.3-2-.9.8-1.2,1.6-.6,2.5h1.5l.5,1.6-2-.2v3c1.3,0,1.2,1.3,1.7,2.2s1.2,1.7,1.9,2.7h1.4c.5,2,2.3,2,3.7,3l1-1.7-1.2-.7v-1.8c0-.3-.1-.8,0-.9a5,5,0,0,0,.9-2.4,9.21,9.21,0,0,1,1.3-2.4c1,1.6.8,2.9.6,4.5l3.2-2.3-.9,2.3,2.2-1-1.2,2.7a11.63,11.63,0,0,0-.4,1.8c-.8.1-.8.5-.6,1.1-.7,1.2-1.5,2.5-2.2,3.7l-1,1,.4.2.5-1.3a4,4,0,0,0,2.2-3.6c.7-.1.9-.5.6-1.1l1.3-.2-.1,1.6,3.1-2.5h0c-.9,1.2-1.8,2.4-2.7,3.5a9.16,9.16,0,0,0-1.8,3.2,14.46,14.46,0,0,0,2.2-2.1l2.1-2.7a3.13,3.13,0,0,1,3-1.1l-4.7,6.7c1.2-.5,2-1.7,3.1-2s2.2.5,3.5.8l-5.2,7.3.2.2,5-3.6.3.3-2,1.8.3.4,1.8-1,.2.2-3.8,4.6.7.3-.6,1.3,1.5.1c-.2,1.4-1.6,2.6-.7,4.3l4.7-2.8c-1.3,2.3-4.4,2.4-4.6,5.4l3.1-.8-1.1,1.4.8.9-3.6,2c1.9,0,1.2,1.4,1.4,2.1l-2.9,2.1.1.2,2.3-.5-.7,1.1,2.4-.4c-.7,1.5-1.2,2.6-2.8,2.9-.7.1-1.4.9-2.4,1.7,2.8.7,4.8-1,7-1.1l-2,2.7,2.8.3v.3l-1.7.2,4,.5v.2l-2.6.9-2.3-.2v.4l2.3-.1.8-.1.1.4a7.94,7.94,0,0,1-2.2.6,3.21,3.21,0,0,0-3.1,2.3q2.1,1.65.3,3.9l1.2-.1c.3.9-.8,1.9.4,2.9l2.6-2.7a6.45,6.45,0,0,0,.3,2c.3.5,1,.6,1.6,1l-3.3,4.4.2.2,2.5-2.3.1,1.5,2.8-2.2.2.2-1.3,2.1.2.2,3.6-2.5.3.3-2.7,3,1.8.9-4.6,2.7.2.3,6.9-2.9.1.3-.8.9.8.6c-1.2,1.1-3,1.2-4.1,3,2.4-1,4.1-2.6,6.5-2.8l-4.2,2.5.1.2,3.2-.5.1.2-2,1,3.5-.3.2.5-2.6.4,1.2.2-.8.5.1.3h2.9a10.89,10.89,0,0,1-2.6.5,5.17,5.17,0,0,0-2.8,1.3,5,5,0,0,1,5.1.7h-4.5v.4c.4,0,.8-.1,1,.1,1.4,1,2.8.7,4.3.4a9.85,9.85,0,0,1,1.7-.2l.1.5-5.7,1.2c-.8.2-1,.7-.5,1.3a4.05,4.05,0,0,0,.9.5l-2.5,1v.2l3.2-.2h0l1.2,1-1.3.7v.3h4.3a65,65,0,0,1-8.7,1.2,8.09,8.09,0,0,0-3.7,1.2c3.3,1.4,6.7.3,9.6,1.4l-2.9,1.1a10.87,10.87,0,0,0,2.6.4l2.3.3c-4.3.9-8.6-1.2-13.3.7a5.56,5.56,0,0,0,1.7.9c.5.1,1.2-.3,1.8-.2,1,.1,1.4.6,1,1.6l-2.7-.5-.1.4,2.1.9-1.9.41,3.7,1.5-.1.2h-.6l-1.9-.6c.5,1,1.2.8,1.9.5.7.4,1.5.8,2.4,1.3-1.5.8-2.7-1-3.9.3L336,693a34.42,34.42,0,0,1-6.4-1.2c-2.1-.41-4.3-.7-6.6-1.1,1.1,2,2.9,2.3,4.5,2.7s2,1.1,3,2.6a4.1,4.1,0,0,0-1.1-.1c-1.5.5-2.5-.6-3.7-1.1-1-.5-1.9-1-2.9-1.5-.7-.5-1.3-1.5-2.3-.5l-2.4-1.4-.3.3c.5.8,1,1.6,1.4,2.3l-1.9.7-.1.6,2,1.59-.1.1-3-1.2c0-.8-.4-.8-.8-1.1a3,3,0,0,1-.9-3.8l-1.7-1.7-.4.2c.1,1,.2,1.91.3,3l-1.9-.5a4.88,4.88,0,0,0,2.1,4c.6.5,1.2,1,1.8,1.6a5.1,5.1,0,0,1,1.4,2.6l-4.4-3.1c.2,1.8,2.4,2.5,1.5,4.5l-1.5-1.6-.2.1,1.9,5.7h-.1l-1.2-1.8-.3.1c.2,1.5.5,2.9.8,4.4l-.5.1-1.7-6.8-.2.1-.1,1.1-.3.1-1.9-3.8-.3.1,1.2,6-1-.2.7,3.4h-1.3c.1.9.3,1.7.4,2.5l-1.3,2c.9,2.4,1.8,4.6,2.6,6.9-2-.4-1.8-2.7-3.3-4,.2,2.3.5,4.2.7,6.3-.8-.7-.5-1.8-1.8-2.1-.8-.1-1.5-1-2.2-1.5,2.4,2.8,3.1,5.7,1.1,9.2-.6-.9,0-2.3-1.5-2.2a1,1,0,0,1-.4-.7c0-1.4-1.2-2-2.1-2.8a28.75,28.75,0,0,0,1.8,4c1.3,2,1.5,4.2,1.7,6.4a2.69,2.69,0,0,1-.5,1.5,3.22,3.22,0,0,0-.6,2.3c.1,1,.2,1.9.2,2.8s-.7,1-1.6.6a22.24,22.24,0,0,0,.3,6.3,10.93,10.93,0,0,0,1.5-.8l6.6-3.9c.8-.5,2.1-.6,2.4-1.2.6-1.2,1.4-.9,2.3-1a38.46,38.46,0,0,0,4.8-.1,36.52,36.52,0,0,1,8.7-.7,2.92,2.92,0,0,0,.9-.2v-.3H325c.8-1.6,2.4-.8,3.6-1.4l-.6-.5c.7-.1,1.1-.1,1.5-.2a46.94,46.94,0,0,0,6.5-1.4c3.1-1.2,6.1-2.8,9.2-4.3a18.82,18.82,0,0,0,2.3-1.6c.1-.1.1-.2.1-.4l-.5-.7.8-.5c.1.1.3.4.4.4a3.61,3.61,0,0,0,2.5-2c-.1-.1-.1-.2-.2-.3,1.4-1.4,2.9-2.8,4.3-4.3.4-.4,1-.9,1-1.2-.3-1.1.9-.7,1.2-1.5l-7.5-.9a15,15,0,0,1,5.6.1,3.87,3.87,0,0,0,4.7-1.6c.4-.5.8-1,1.4-1.7-1.4-1.1-2.7-2-3.9-3a2.62,2.62,0,0,0-2.8-.5,8.33,8.33,0,0,1-1.5.4l2.3-1.5-3.7-3.6a1.19,1.19,0,0,1,1.1.4l2.7,2.5a1.28,1.28,0,0,0,1.8.3h0l.3-.3-5.6-4.9.3-.3,3.6,2.9.4-.4-1.6-1.9v.1a4.1,4.1,0,0,0-.1-1.1A14.62,14.62,0,0,0,353,701l1-.5c-.7-1.5-1.3-3-2-4.5l.3-.1,2.2,3.3v-6.1c.2.1.3.1.3.2a11.63,11.63,0,0,0,.4,1.8c.7,3.1,1.2,6.2,4.5,7.8.1,1.3.1,1.3,1.1,2.2l-1.1-2.2c-.8-2-1.7-4-2.5-6-.7-1.8-1.3-3.6-1.9-5.4l.5-.2,2.3,5.6.4-.2c-.6-2.2-1.1-4.3-1.7-6.5,1.7.3,2.1,1.8,3.1,2.9.5-1.5.5-1.5-.2-2.4-1.4-1.8-2.9-3.5-4.4-5.3l1-.6c1.5,1.5,2.5,3.6,5.2,4.1a12.81,12.81,0,0,1-1.1-2c-.9-1.6-1.9-3.1-2.8-4.7-.4-.6-.7-1.3,0-1.9a13.07,13.07,0,0,1,4.7,5.7c.5,1.4.8,1.4,1.9,1.9l-4-9.4c1.2.9,1.3,2.6,3,3.4-.3-1-.5-1.7-.8-2.7l1.6,1.2-.6-3.6.3-.1,2.5,4.7.2-.1-.6-2.9.3-.1,1,1.6c.1-1.7-1.4-3.3-.1-5l1.5,2.5h.4l-.5-4,.4-.1c.5,1.1.9,2.2,1.4,3.3.2-1,.4-1.8.6-2.7h.4l1.9,5.5a5.46,5.46,0,0,0,.1-1.8c-.2-2-.4-3.9-.6-5.8a3.58,3.58,0,0,1,.4-1.1h.4l.9,3h.2l.2-2.1h.3l.3,1.6h.2v-3.4h.3l.2,4.3h.4l.4-4h.4c.2,1.8,1.1,3.5.3,5.4.1.9.2,1.7.4,2.9.9-.7,1.7-1.6,2,.1l1.2-.8c-.1-.3-.2-.5-.3-.8l-1.7-1.6c.7-1.2.1-1.7.1-3,.9.3,2-.9,3,.4v-3h0l1.2-.59.1,1.2h1l-1.2,2.5,1.8-.2a18.57,18.57,0,0,1,1.6-2.21,1.06,1.06,0,0,1-.1.8c-.1.3.2.7,0,1.2a4.2,4.2,0,0,1,1.6.41c.1.5.1.59-.6,1-.4-.2-.9-.3-1.3-.5-.8-.2-.9.59-1.2,1.09-.5.6-.7.71-1.7.6-.1-.1-.4.1-.7.1l-.1,1.5c1.3.1,2.3-1.4,3.4-.1-.7-.1-1.5-.2-1.3,1l1.3-1,.6-1,.4.2-1.4,3.1c1.6-1.3,2.3-3.3,4-4.4a3.08,3.08,0,0,1-.5,1.2l-1.8,2.7c-.1.1,0,.3,0,.7l1.4-1.2,1.3,1.5-1.9,1.7c0-.1.1-.1.1-.2v-.2l-2.2.8a1.7,1.7,0,0,0,2.2-.5l.2,1,2.3-2.1.4.4-2.7,2.8.1.1,4.5-3.2.3.3c-1.4,1.3-2.7,2.6-2.6,4.7l2.8-1c-1.1,1.1-2.3,2.1-3.5,3.1-.4.3-1.1.8-1,1.1.2,1.1-.6,1.4-1.2,1.8a2.65,2.65,0,0,0-1.6,2.1,6.47,6.47,0,0,0,1.3-.4c2.2-1.1,4.3-2.3,6.5-3.5.5-.3,1-.7,1.7,0l-5.3,3.7.1.2,7.5-2.7.2.4-3.5,2.1,4.7-.6c-.2.6-.3.9-.4,1.3l1.5-.2a5.7,5.7,0,0,0-.1,1.3c-1.7.5-3.5.8-4.8,2.5l7.8-1.9.1.4-7.9,2.4c2.4.4,4.7-1.2,7.2,0l-.6,1,2.1.3c-5.4,1.1-5.4,1.1-5.9,2.2h7c-.9.8-2,.8-1.9,2l2,.3c-.6,1-1.7,1.8-.8,2.9-1.5.3-1.6,1.6-2.2,3,.7.1,1.3.4,1.6.2,1.7-1,3.8-1.5,4.8-3.4a2.51,2.51,0,0,1,.7-.4c-.7,1.5.6,1.2,1.2,1.5a1.74,1.74,0,0,0,1.4-.3c.9-1.1,2.4-2.1,1.6-4l1.1.8,1.9-1.5.2.2c-.2.4-.5.9-.9,1.6l2-1,.3.3-1.3,2,.2.2,2.9-1.8c-.1.2-.3.5-.4.7.8-.3.8-.3.9-1l2.9-.6-2.4,2.7,5-.7c-.3.4-.8.8-.9,1.3,0,.2.6.6.9,1-.3.3-1.1.7-1,.8.5,1.2-.6,1.1-1.1,1.5s-1.2.6-1.8,1a4.47,4.47,0,0,0-2,1.6c2.7-1.3,5.2-2.6,8.1-2.8l-2.3,1.2.1.2,2.6-.5.1.3-2.4,1.2.1.2,2.6-.5.1.3-5.2,2,.1.3,5.3-.7v.1l-5.6,2.2v.2l7.8-.6c-.2.8-.4,1.4-1.2,1.3a5.84,5.84,0,0,0-1.8.4c-.5.1-1.1.3-1.9.5,1.3.1,2.3-.4,3.4.4l-2.1.9,1.5.4-2.3.8c1.6,1,3.4.1,5,1.1l-4.1.5,4.5.6v.5l-13.8-.3v.2l12.5,2.2v.3l-7.3-.8v.2l6.2,1.3-.1.6c-3,.1-5.8-1.6-8.8-1.2,1.6.5,3.3,1,5,1.5.6.2.8.5,1.1,1.1.4.9-.5,1.8.4,2.5-2,.7-3.4-1.3-5.5-.8,1,.4,1.8.7,2.5,1s1.7.3,2.2,1.4L416.6,728c1.4,1.4,3.5,1.7,4.6,3.5-1-.4-1.9-.7-2.8-1.1s-1.9-.8-2.8-1.3c-1.5-.7-1.5-.7-2.4-.6,4.8,1.9,7.5,3.6,8.3,5.2a5.32,5.32,0,0,1-1.4-.4c-.8-.4-1.5-.9-2.3-1.4a6.89,6.89,0,0,0-4.6-1.3,3.78,3.78,0,0,1-2.1-.4,1.93,1.93,0,0,0-2.7.5h0l5.7,3.7c-1.4,1-1.4,1-2.8.6s-2.6-.7-3.9-1c1.6,1,3.4,1.7,4.5,3.3A32.23,32.23,0,0,0,404,734c1.2,2.5,4,2.1,5.2,4l-.9.3,1.1,1.8a2.82,2.82,0,0,1-3.5-.9c-.7-.8-1.4-1.7-2.1-2.4a17.41,17.41,0,0,0-1.4-1.2c1.1,2,1.9,4.1,3.8,5.5a11.84,11.84,0,0,1,3,3.3,21.1,21.1,0,0,1,1.6,3.4c0,.1-.1.2-.4.8-3.6-3.9-6.4-8.5-11.3-10.7a26.22,26.22,0,0,0,2.2,2.5,7.45,7.45,0,0,1,2.1,3.2l-4-3.4-3.4-3-.3.3c.8,1.1,1.7,2.3,2.5,3.4s2,1.9,2.2,3.4l-3.5-3.9-.3.2c1.3,2.3,2.7,4.5,4,6.8l-.3.2c-1.6-2.2-3.2-4.5-4.9-6.6-.9-1.2-1.9-2.6-3.1-3.1a6.42,6.42,0,0,1-2.5-1.8v.8h0l-1.4-2.1-.8-1.2-.3.2.7,3.5c-.7-.8-1.2-1.6-2.6-1.5-2,2.8-1.1,6.2-1.6,9.7-.5-1.7.1-3.3-.6-4.9l-.8,1.3c.1-.9.2-1.6.2-2.2s-.4-.6-.8-.3l.3-1.6c-.8.5-1.8,1-.2,1.5l-4.8,3.5a7.1,7.1,0,0,1,.8-1.8c.1-.2-.1-.5-.2-.7h0c.1-.5.1-.9.2-1.4,2.4-.9,3.5-2.3,3.4-4.2-2.5.9-3.4,2.1-3.4,4.3l-.6-.5a9.38,9.38,0,0,0-3.2,3.9c-.6,1.3-1.3,2.6-2.9,2.9-.1,0-.2-.1-.3-.1l.3-1.2h-1.1a14.89,14.89,0,0,0,4-4.3l-4.5,3.8-.1-.1,2.1-3a3,3,0,0,0,2.7-2.6l-2.7,2.7c-1.2-.5-2,.2-2.9.7a10.7,10.7,0,0,1-1.9,1,2.17,2.17,0,0,0-1.6,1.6,6,6,0,0,0,.4,3.7c.2.6.7.5,1.1.1l-1.2,2.4c-.5-1.9-1-3.8-1.5-6a6.3,6.3,0,0,0-3.8,5.2c-.1-.9-.1-1.8-.2-3l-2,1.5-.4-2c-1.8,1.91-3.3,3.5-4.8,5.2a3.46,3.46,0,0,0-.4.91c-.2,1-.4,2.09-.7,3.3l-.4-2.1-1.7,2.7c-2.6-1.7-3.4-1.5-4.4,1.1a2,2,0,0,1-1.8,1.59c0-.59-.1-1.29-.1-2.2l-4.6,4.3.2-1.4c-2.1.7-.7,3-2.2,4-.2-.2-.4-.4-.4-.5.2-1.6-.5-3.2,0-4.9a3.4,3.4,0,0,0-.1-1l1,.3v-1.2h-.3l-.6,1c-.6.6-1.3,1.1-1.9,1.8s-.8,1-1.3,1.5c-.1.1-.4,0-.6.1l.4-1.5-1.6.3v-1.3c-.6.6-1,1.3-1.6,1.5a3.29,3.29,0,0,0-2.6,2.8l-.6,1.5c-.3-.3-.2-.7-.3-.9a2.18,2.18,0,0,0-.5-.8c.7-1,1.3-2,2-3.2a3.72,3.72,0,0,0-3.7,1.8,4.53,4.53,0,0,1-2.1,1.5c-.1,0-.2-.1-.3-.1l.3-1.2-1.5.7.2-1h-.9l.2-1.4c-1.1.5-2.2,1-3.3,1.4a3.75,3.75,0,0,0-2.7,3.2,4.39,4.39,0,0,1-1.3,3.1c-.3-1.5-.5-2.8-.8-4.3-1,.7-1,.7-.9,2.8l-.9-.8a12.81,12.81,0,0,1-1.1,2,8.45,8.45,0,0,1-1.8,1.5l-.5-.8-2.3,2.2-.4-2-2.7,2v2.6h-.3l-.2-1.4a3.37,3.37,0,0,1-2.2,2l-.3-1.1-1.4,1.3L296,771l-1.6.4.4-2.5-1,1.2-.6-2.5c-.7,1.9.4,3.4.5,5.2-1-.9-2.3-.6-3.3.5-.7-1.8,1.2-3.3.3-5.5a5.56,5.56,0,0,0-.9,1.7c-.3.9-.6,1.9-.8,2.8-.1.4-.4.9-.2,1.2.5.9,0,1.7,0,2.5h0c-1.3.2-1.5-.6-1.5-1.5.1-1.1.3-2.3.4-3.4,0-.5.3-1.2-.4-1.6l-.5,2.3-.4-.4c0-.1,0-.1-.1-.2s-.1,0-.1-.1c-.3.7-.7,1.3-1,2-.2.5-.5,1.1-1.1.8a4.36,4.36,0,0,1-1.3-1.4l.9-.7c-1-.5-1-.5-1.1-1.3a2.63,2.63,0,0,0,.6-2.1c-.8.9-.8.9-.6,2.1-1.6,1.5-2,3.3-1,4-1,2.4-2.8,4.6-1.3,7.5l-1.8-2.2c-.2.8-.4,1.6-.6,2.8l2.5-.6c0-.1.1-.2.1-.3h.2a8.39,8.39,0,0,0,2.1,4.2c.2.2.1.6.1,1a12.25,12.25,0,0,1-.2,1.9,7.46,7.46,0,0,1-.7,1.2c-.4-.9-.6-1.5-.9-2.1a3.13,3.13,0,0,1-.5-1c.4-.5.9-1,.6-1.8-1.2.4-.9,1.2-.6,1.9-1.6.3-.4,1.1-.2,1.8l.8-.9c-.1,1.2-.5,2.5.8,3.5.3.2.3,1,.2,1.5a17.42,17.42,0,0,1-.5,2.2c-.7.3-1.3.2-1.5.9a4.47,4.47,0,0,1-1.6,2c-.9-.9-.7-2-.6-3.1-1.9-.2-1.4,1.91-2.6,2,.4.6.8,1,1.2,1.6l2-.6-2.6,3.8-.5-.9a3.3,3.3,0,0,0-.7,2.7c.1.8-.4,1.8,0,2.8l-2.4-.1c-.3-.7-.5-1.3-.8-2-.6.8.6,1.91.1,3.1.9.7.6,1.2,1.1,1.8a24.73,24.73,0,0,0-.5,3.8c0,1.1,0,2.1.1,3.2,0,.3.1.5.1.8s-.1.2-.3.2c.1.9,0,.4-.2,1.5h-1v-2.5a3.4,3.4,0,0,0-.1-1,24,24,0,0,1-1.2-3.8,3.92,3.92,0,0,1,.1-3.5l-2.1-2.2a4.67,4.67,0,0,0,.3,1.7c.4,1.8,1.1,3.6.5,5.5-1,3.3-2.1,6.5-3.2,9.8-.2.8-.5,1.9-1.1,2.1-1.5.5-1.5,1.8-1.7,2.9a3.75,3.75,0,0,1-1.4,2.1l-.5-1.4a9,9,0,0,1-.9,1,3.55,3.55,0,0,0-1.8,2.9,2,2,0,0,1-2,2h-.1a1,1,0,0,0-.8.5c-.8,1.7-1.4,3.4-2.2,5.1l-.6-.5-1,1.1a4.71,4.71,0,0,1-1.7-.4c-.4-.2-.5-.8-.9-1.6a6.7,6.7,0,0,0,0,2,3.06,3.06,0,0,1-.3,2.3c-.4,1-1,1.9-1.3,2.9a12.44,12.44,0,0,1-1.9,3.6,2.66,2.66,0,0,0-.3,1.2c0,.1-.2.2-.4.3-.1-.5-.1-1-.3-1.9-.6.9-1.3,1.4-1.3,1.9.1,1.5-1,2.5-1.4,3.7-.1.2-.4.5-.5.5-1.2-.2-1.3,1-1.6,1.4l-1.6-.2c1,2.1-.6,3.3-1.1,4.8-2.3,1-1.8,2.9-1.5,4.7.1,1.2.2,2.4.2,3.6,0,.4-.4.7-.6,1.1h-.4l-.3-1.2c1.1.2.9-.5.8-1.6l-.7,1.6-.8-1.1-.4.2a10.87,10.87,0,0,0,.1,1.8,4,4,0,0,1-.6,3,5,5,0,0,0-.5,1.3c-1-.6-.8-1.3-.4-2.2.6-1.4.4-1.8-.8-2.5v2.3c0,.8-.2,1.7-.3,2.8.8-.2,1.3,117.6,1.7,117.5M127.9,667.81l.3-2.7h-.5l.2,2.7,1.1,3C128.9,669.71,129.2,668.41,127.9,667.81Zm33.2,66.7-2.5-2.2c.8,1,.9,2.4,2.5,2.2l.9.5.2-.2-1.1-1.4-.2.2Zm-33-51.6c-.1.7.3,1.1,1,1.2l-1-1.2c-.3-1.8-.3-1.8-2.1-2.1A20.82,20.82,0,0,1,128.1,682.91Zm12.4,6.4.1-2.1h-.3l.2,2.1.1,3h.4C140.9,691.31,141.4,690.31,140.5,689.31Zm221.3,8.8,1,1.9.4-.2-.8-2.6-.4.1a2.35,2.35,0,0,0-.2.8l-.7-1.1-.2.1.3,2h.4Zm-63.1,51.3c.4-1.1.8-2.2-.5-3.3.2,1.3.3,2.3.5,3.3l-.2,2.1.5.3c.1-1.1.3-1.6,1.4-1.7Zm-147.2,10.2a2.35,2.35,0,0,0-.4-2.4,20,20,0,0,1,.4,2.4c.5,1.3.6,2.8,2.3,3.5C153.1,761.81,153.2,760.21,151.5,759.61Zm3.3-17.4c.1-.5.7-1.1-.4-1.8l.4,1.8,1.8,5.8c.1-.1.2-.1.3-.2-.5-1.8-1-3.5-1.6-5.3C155.3,742.31,154.9,742.21,154.8,742.21Zm210.7-23.9c-2,1.1-3,3.2-2,4.8.1-.1.4-.3.4-.4a5.07,5.07,0,0,1,1.3-3.3c.2-.2.1-.7.3-1.1l.7-.7-.9-.9c.1.9.2,1.3.2,1.6ZM149.1,762v-5.2a2.44,2.44,0,0,0-.4,2.8c.1.8.3,1.6.4,2.4l.4,4.3c1.5-1.6.8-3.5,1-5.3C150.1,761.61,149.8,762.11,149.1,762Zm-15-80.2a2.59,2.59,0,0,0,.5,3l-.5-3-1-4c1.1-1.3.2-2.6,0-3.9v4l-.9-.9a14.05,14.05,0,0,0,0,2.9C132.5,680.81,132.8,681.81,134.1,681.81Zm228.2,45.7a2.49,2.49,0,0,0-2,1.7,4.3,4.3,0,0,0,4.6-2.5c-1.2-1-1.6.7-2.6.8.2-1,.5-1.9.7-2.8A2.86,2.86,0,0,0,362.3,727.51Zm-202.8,18.8a21.16,21.16,0,0,1-1.1-2.1c-.3-.8-.5-1.7-.8-2.5-.1-.3-.6-.5-.9-.7l-.3.3,3.3,7.7c.6,1.3,1.5,2.5,1.6,3.8a15.72,15.72,0,0,0,1.6,5.2c.5,1.1,1.1,2.3,0,3.4.7.4,1.2.4,1.3-.4a4.6,4.6,0,0,0-.9-3.6,3.38,3.38,0,0,1-.6-1.2c-.1-1.1,0-2.2,0-3.1-.7-1-1.3-1.9-1.9-2.7l-1.2-1.5c0-.8-.1-1.7-.1-2.6m94.6,80.8h2l-1.4-.6a15.57,15.57,0,0,1,1.6-2.8c.6-.6.4-2,.6-3.2-.2.1-.4.3-.6.4a13.59,13.59,0,0,0-1.1,2.8c-.2,1.2-1.6,2-1.1,3.4-.3,0-.8.1-.9.3-.8,1.7-.4,2.8,1.2,4.2.9-1.1-1.8-1.5-.5-2.7l1.6,1.1Zm9.5-16.9c-.1.8-.3,1.6-.4,2.4a3.4,3.4,0,0,1-.1,1c-.1.3-.5.3-.9.6l2,2.4c.6-2.6-.2-4.5-.6-6.4m104.7-77.6c.1.8.1,1.7.2,2.7l.9-2.2,4.8-1-.1-.4-2.8.5,1.2-1c-2-.8-3,.4-4.2,1.4l-1,.2.1.4Zm-222.2,11.5a1.9,1.9,0,0,0,1.1-2.2c-.1-.4-.8-.6-1.2-.9l-.3.3.4,2.8c.2,1.2.5,2.3.7,3.5,1.7-.2,2.2-.7,2.1-2.1-.1-1-.8-1.5-2-1.5A2.2,2.2,0,0,0,146.1,744.11Zm31.7,18.7c2.3.3,4.6.2,6.8,1.3a6.47,6.47,0,0,0,2,.4v-.2l-2.5-1.1.8-.7c-2-1-3.9.3-6.1-.4l1.3-.9c-1.2,0-2,0-2.1,1.2l-.6-1.9c-1.8.7-1.8.7-1.7,1.8h2.4c-.2.3-.2.4-.3.5-.8,2.2-.6,3,1.3,3.8-.4-.8-.4-.9,0-1.6A1.91,1.91,0,0,1,177.8,762.81Zm-50.4-47.2,3.1,1.3a3.14,3.14,0,0,0-3.1-1.3,1.73,1.73,0,0,1,1.8-.5h1.5c-.9-1.5-2.3-1.5-3.2-2l-4,1.3Zm60.4,56.9a2.24,2.24,0,0,0,2.4.9c.1-.9,1-2-.6-2.6-.1-.1-.1-.5-.2-.8l-.6-2.2a7.1,7.1,0,0,0-1,4.7m43,142.4c-.6-.7-.1-2.3-2-2.4,0,1.6-.4,3.2.1,4.6.6,1.8-.2,3-.8,4.5l1.2.6m2.3-1.2-.9-2.2m-17.8-192.4,1.1,1.4-1.5,1-4.1-2.2c-1.1,1.6.6,2.4.6,3.5a3.58,3.58,0,0,0-1.1-.4,4.87,4.87,0,0,0-1.2.1,4.28,4.28,0,0,0-.8-2.9,2.86,2.86,0,0,0,.8,2.9c-.1,1-.2,2.1-.4,3.6l-.8-1.7-.3.1a11.63,11.63,0,0,1,.4,1.8,10.64,10.64,0,0,0-.9,2.5,49.54,49.54,0,0,0-.6,5.4c-.1,1.2,0,2.4,0,3.6V748a27.84,27.84,0,0,1-1.1-5c-.2-1.6-.5-3.3-.8-4.9l-.4.1c.1,1.1.3,2.2.4,3.4s.1,2.4.2,3.6.1,2.3.2,3.4a9.82,9.82,0,0,1-.3,3.4,4.65,4.65,0,0,1-.6-2.3,22.6,22.6,0,0,1,.1-2.6c0-.7.2-1.5-.5-2.1a5.66,5.66,0,0,1-.6,3.6c-.5,1.5.4,3.3-1.6,4.3-.4.2-.3,1.2-.4,2.1-.2-.9-.4-1.7-.7-2.8a17.33,17.33,0,0,0-.3,3.2c.5,3.1-.9,5.9-.9,8.9-1.2.5-.4,1.4-.5,2.2-.1.3-.1.6-.2.8l-.9-1.6c.7,1.8-.4,3-1.2,4.3l-.3-1.7-.5.2.8,1.5.6,1c-1.1.9-1.2-.9-2.2-.7l-.6,2.1-.9-.7a6.52,6.52,0,0,0,.2,2.4c1.2,2.5.8,5,.8,7.6,0,1-.7.6-1.3.5l.7,3-.8.6a37.76,37.76,0,0,1,.6,4.7c0,1.5-.7,2.9.3,4.3a.3.3,0,0,1,0,.4c-1.2.7.1,1.6-.2,2.5s.4,1.6,1.4,2c2.3.8,4.6,1.7,6.9,2.6a7.55,7.55,0,0,1,1.4,1.1c1.4,1.2,1.6,2.9,1.9,4.5.4,2,.6,4,2.4,5.4a1.25,1.25,0,0,1,.3,1.7.1.1,0,0,1-.1.1l-.3.3c-.4.3-.8.5-1.2.8,1.4-2.1-.4-3.2-1.4-4.5a7.94,7.94,0,0,0,.6,2.2c.3.8.5,1.5.8,2.3-.1.6-.2,1.1-.3,1.8l1.5-.3-.3,1.1c2.2.1.7-2.2,1.9-2.8a6.17,6.17,0,0,1,1.8,3.8,2.46,2.46,0,0,1-.1,1.7c-.5.9-1.2,1.6.5,1.9.2,0,.3.7.5,1l.4.4.7-1.3a15.42,15.42,0,0,1,2.6,4.9,11.92,11.92,0,0,0,.8,2,5.64,5.64,0,0,1,1,4.7,6.6,6.6,0,0,0-.1,1.4c-.3-.4-.5-.8-.9-1.4-.6,1.4-.5,1.7.4,1.9.1,0,.3-.4.5-.6.5-.7,1,.2,1.4,0a3.81,3.81,0,0,0,1.3-.9,3.13,3.13,0,0,0,1.1.9c.9.4,1.9,1,2.7.8a12.39,12.39,0,0,0,5.9-3.3l3.6-3.9a13,13,0,0,0,1-1.5c1-2.2,1.8-4.5,3.8-6.1a4.19,4.19,0,0,0,.9-1.4,36,36,0,0,1,4.6-8.1c1.7-2.3,3.1-4.8,4.7-7.2.4-.7,1.2-1.2,1.5-1.9,1.4-3.7,4.2-6.6,6.3-9.9a11.63,11.63,0,0,1,2.5-2.9,7,7,0,0,0,2.8-4.1,22.58,22.58,0,0,1,2.8-5.6,14.44,14.44,0,0,0,2.4-4.8c.5-2.1,1.2-4.1,1.8-6.1a11.6,11.6,0,0,0,.3-6.9,2.84,2.84,0,0,0-2.1-2,35.74,35.74,0,0,0-1-3.5c-.3-1,.2-2.2-.8-3-.2-.2-.1-.7-.3-1.5l-.8,3.5c0-1.1.1-2.3,0-3.5a23.18,23.18,0,0,0-.6-3.8,30,30,0,0,0-1.8-4.1c-.7-1.4-.5-3.2-.7-4.8,0-.1-.2-.2-.4-.3a1.85,1.85,0,0,0-.2.7c-.1.3-.2.5-.3.8a10.55,10.55,0,0,1-.6-2.4c-.1-.6,0-1.4-.4-1.7a2.7,2.7,0,0,1-.6-2.4,13.4,13.4,0,0,0-.1-2c-.2-1.2-1-2.3-2-2.1-.7.2-.9,0-1.1-.5-.6-1-1.1-2-1.7-3-.4-.7-.9-1.4-1.4-2.1H249l.4,2.1c-2.5-.2-2.5-2.8-4.1-3.8a4.11,4.11,0,0,0-1.1,2.8l-1.7-3.9-.9,1.8c-.3-1.1-.6-2.1-.9-3.3l-1.1,1.5c-.7-1.9-1.3-3.6-1.9-5.3l-.4.1-.1,2h-.1l-.9-3.8h-.3l-.2,1.2-1.5-3.1c.6.1.8-.2.6-.7a1.16,1.16,0,0,0-.7-.5,2.07,2.07,0,0,0-1,.6c-.1-1.1-.1-2.2-.2-3.2a2.24,2.24,0,0,0-1.2-1.9c1.5-.1.6-1.2.8-1.8.3-1-.5-1.5-1-2a1.85,1.85,0,0,0-1.2-.5,11.4,11.4,0,0,0-1,1.9,2.57,2.57,0,0,0,.1,1.5c0,.1.6.1.9.1,0-.3.7-2.4.7-2.5-.2,2.5-.4,2,.8,3.4-.2,0-.4.1-.6,0-2.6-1.1-4.9.4-7.3,1l9.3,3.9,1.2.7a16,16,0,0,1-2.1-.5c-2.5-1-5.1-1.9-7.6-2.9a4.25,4.25,0,0,0-1.1-.2c.7,1.5,2.2,1.3,3.3,2l-5.1.9v.3l4.5,1c-1.8.2-3.4-.4-5.2.4l3.8,1v.3l-1.5.2.5,1.8-7.9-.9c-.2,1.3.8,1.2,1.4,1.4,1.5.3,3,.6,4.5,1a5.07,5.07,0,0,1,1.6.9c-.3.2-.4.3-.5.3-2-.2-4-.5-6-.7-.6-.1-1.1,0-1,1l3.4.9a4.3,4.3,0,0,1-1.6,0h-1.5l-.1.3,3,1.5-1.2.6,1.5.7c-2.1,1.1-3.6-1-5.7-.7a9.91,9.91,0,0,1,1.1,1.7,2.77,2.77,0,0,1,.1.9m15.6,158.9c.3-.9.5-1.8-.8-2.5a21.05,21.05,0,0,0-.2,8.3,41,41,0,0,0,2.2,7.8c1.4-.3,1.8-.7,1.3-2.2a7.45,7.45,0,0,1-.3-5.1c.3-.8-.1-1.4-1.1-1.6l-.3,1.7c-.3-.6.1-1.6-1.1-1,0-1.4.8-2.8-.2-4.1-.1-.2.3-.8.5-1.3M119.4,723.51l2.2.2a34.93,34.93,0,0,0,6.5.5c.6-2,0-3-1.9-3-3.3,0-6.7.2-10.1.3.2,1.2,1,1.6,2.2,1.7a2,2,0,0,1,1.1.3m-9.3-28.2a4.72,4.72,0,0,0-3.2-1.2c-1.6,2.4-3.2,4.8-4.7,7.2-1,1.5-.9,3.3-1.1,5a19.22,19.22,0,0,0,4.2-2.8,9.82,9.82,0,0,0,1.3-3.2l-1.4-1.2,4.3-.7-.9-1.4,2-.7c.4,0,.7-.1.4-.5a4.05,4.05,0,0,0-.9-.5ZM123.5,729c3.8.4,6.1-.2,7-1.5-.7,0-1.4-.1-2.1-.1a38.46,38.46,0,0,0-4.8-.1c-2,0-4.1.2-6.1.4a4.92,4.92,0,0,0-1.7.6c.1,2.2,2,2.7,3.2,3a12.65,12.65,0,0,0,7.7-.6,3.45,3.45,0,0,0,1.2-.9c-1,0-2-.1-3-.2a3.51,3.51,0,0,1-1.4-.6Zm151.3-2.4c1,2.6,1.9,5.3,2.9,8H279v1.6c.9-1.2.9-1.2-.1-1.5,1.1-2.7,2.1-5.4,3.3-8a2,2,0,0,0-.5-2.8h0c2-2.7,2-2.7,1.9-3.8-1.2.6-1.9,2-3.6,2.1.6-2,1.1-3.8,1.7-5.6-1.7,1.4-3.9,2-5,4.1-.1-.9-.1-1.6-.2-2.5l-1.1.4c-.2-.7-.3-1.3-.4-1.7h-2c1.6-1.8,1.5-2.1-.7-4.7,0,1.5-.1,2.7-.1,3.8l-.8-2.3c-.4.5-.9,1.1-1.4,1.7s-.9,1.1,0,1.6c.3.2.5.5,1.1.9-.4-1.4.5-1.7,1.2-2l.3-.7c-.1,1.3-.2,2.5,1.4,2.6.3,1.5.5,2.9.8,4.2h.4l.5-1.2.2.1c-.1,1.3-.2,2.6-.3,4.2l-1-1.3a1.67,1.67,0,0,0-.1,1.2c.1.5.2,1.1.3,1.6M112.4,716l-.7-.1a5.07,5.07,0,0,0,3.2,1.9c2.9.3,5.8.5,8.7.7.6,0,1.2-.1,1.7-.1l-4.6-2.59a2.27,2.27,0,0,1,1.4.09l5,2.3a2.68,2.68,0,0,0,2.6.1c-.2-1-1.1-.9-1.6-1.1-1.2-.5-2.4-.9-3.6-1.3-2.3-.79-4.5-1.79-6.9-2.4a6.17,6.17,0,0,1-3.1-1.6,20.56,20.56,0,0,0,10.4,1.3c-1.3-.4-2.6-.7-3.9-1-2.8-.7-2.9-.7-3.6-1.7,2.1.4,4,1.4,6.3,1.3-1.3-.8-2.5-2-3.7-2.2-1.9-.2-3.7-1.4-5.8-.7h.1l.7-.5-.7-1,2.1.4c-.9-.8-1.4-1.4-2.1-1.9a2,2,0,0,0-2.4-.2c-2.5,1.9-5.7,3.1-7.5,6.2h2.7v.3l-1.7.5c1.1.7,1.9,1.5,3.1.8-1-2.3-1-2.3,0-3.3,0,2.1,1.6,2,2.9,2.2.6.1,1.2.2,1.9.3v.3H110c-.5,1.2-.3,1.8.8,2.2A8,8,0,0,1,112.4,716Zm51.8,31.4L163,749l-1.8-.9.6,2.1a3.73,3.73,0,0,1,2.9,2.4,5.11,5.11,0,0,0,3,3.1c1.5.5,3,1.5,4.8.5a23.36,23.36,0,0,1-.4-2.6v-2.3l.7.4c.1-.5.4-1-.4-1.2.5-2.9,1.5-5.7,1.4-8.7-.1-2.3-1.2-4-2.1-5.9l-.6.7a9.91,9.91,0,0,1-1.1-1.7c-.1-.3-.2-.7-.3-1s-.4-.8-.6-.8c-.9,0-1-.8-1.2-1.4-.7-1.4-1.3-1.5-2.6-.4-1.1-1-1.1-1-2.9-.4l1.9,1.4h0l-3.1-.6,4.8,8.6c-1.5-.8-1.8-2.2-2.6-2.8a17.4,17.4,0,0,0-3.3-1.8l-.3.3a21.86,21.86,0,0,0,2.7,5c-1.7,0-1.4-1.9-2.9-2.4a10.09,10.09,0,0,1,.7,1.5c.2.4.3.9.5,1.3a.75.75,0,0,0,.7.5c1.6,0,2.2,1.3,3.1,2.2a2,2,0,0,1,.6,1.5c0,.4-.4.8-.7,1.2m103-82.5a3.55,3.55,0,0,1-1-.2c-1.4-1-2.9-.9-4.5-.7-2,.2-4.1.1-6.1.1a3.55,3.55,0,0,1-.9-.4c3.9-.3,7.8-.5,11.6-1.8l-3-1.1c1.8-.3,3.4.4,5.2-.8a13.65,13.65,0,0,0-2.9-.7c-2.3,0-4.6,0-6.9.2a17.88,17.88,0,0,1-6.1-.2l6.7-.6a22.54,22.54,0,0,0-3.6-.6,24,24,0,0,1-3.8-1.2,8.3,8.3,0,0,1,2.1-.6,10.87,10.87,0,0,1,1.8.1,1.68,1.68,0,0,0,1.8-.2l-3-.8.9-.5a7.46,7.46,0,0,0-1.2-.7,7.37,7.37,0,0,0-1.4-.4v-.4l9.3-.8c-.2-.1-.3-.2-.5-.2-3.1-.8-6.3-1.6-9.4-2.3-1.8-.4-3.6-.6-5.1.9a16.1,16.1,0,0,1-3,2.1c-.6.4-1.3.8-1.9,1.2l.2.3,6.8-3.6.3.5-6.5,3.9h1.8c-.3.2-.7.4-1,.6-.9.3-1.8.5-2.8.8a2.82,2.82,0,0,0-2.2,2l13.4-3.6.2.5c-.6.2-1.1.5-1.7.7-2.3.7-4.7,1.4-7,2.2-1,.4-2,.9-3,1.4l10.6,3.3c-1.8.5.1.6-.4,1.2l-8.6-1.59-.1.5a11.65,11.65,0,0,0,1.9.8c.6.2,1.4.4,2.5.79l-1.4.41,1.1,1.2c-1-.2-1.5-.4-2-.5-1.4-.3-1.8.1-1.6,1.7l-1.4-.2a2.51,2.51,0,0,0,.4.7c1.9,2.4,4.5,4.1,5.8,7,.1.2.3.3.4.4,1.2.8,2.3,1.6,3.5,2.4a10.09,10.09,0,0,1,3.1,2.7c-2.9-.8-4.8-3.5-8.1-3.7l2.6,1.7-.3.5c-1.9,0-2.8-2.3-4.9-2.3,1.4,3.2,4.8,3,7.1,4.6-1.2.5-2.3-1.2-3.7-.3l1.4,2.2c-1.4-.5-2-2.1-3.4-1l1.4,2-.3.3-2.7-1.3c.2,3.1,2.8,2.3,4.6,3.3l-2.3.3-.1.4c.8.5,1.6.9,2.4,1.3,2.4.7,4.9,1.2,7.3,1.8a5.78,5.78,0,0,1,1.4.5l-.1.2-8.1-.9c.1,2.3,2.4,2.3,3.2,3.5l-1.3.8a19.42,19.42,0,0,0,5.1,6.3l1.6-1.1c-.2-.8-.4-1.5-.7-2.5l1.5,2c.6-.2,1.1-.7,1.7-.7,1.9.1,2.8-1.4,4.2-2.1q2-3.45,3.6-7.2c.6-1.7.5-3.7.6-5.8l-3.1,2.2c.7-1.3,2.4-1.8,2.8-3.5l-2.3.5,1.1-2.3-.2-.2-2.5,1.9-.1-.2c.9-1.6,1.9-3.2,2.9-4.9l-2.2.7-.1-.2,1.6-1.3c-.8-.2-1.6.4-2-.6l4-1a9.72,9.72,0,0,0-3.8.5,24.08,24.08,0,0,0-3.3,1.5l-.2-.4c1.3-.8,2.6-1.6,3.9-2.5s2.6-1.9,4-3c-1.7-1.3-2.8.5-4.2.3l.6-1.1-2.6.2c-.9,0-1.8.1-2.6.1a2.78,2.78,0,0,1-2.2-.4c.6-.1,1-.2,1.5-.3,2.4-.3,4.7-.5,7.1-.8a3,3,0,0,0,2.6-1.5c-1.9-1.2-4.2.4-6.1-.9a26.35,26.35,0,0,0,2.8-.2,3.69,3.69,0,0,1,1.5-1.31l1.9.2.1-.5a9.36,9.36,0,0,0-1.6-.4c-.1-.1-.2.4-.4.7ZM202,676.11c-.4.7-.8,1.1-.8,1.5s.1,1.1.8,1.2a2,2,0,0,1,2,1.8l-1.4,2.1-1.5.1,1.3,2.1.8-.3v1.7l-.3,1.5c1.6.3,1.6.3,2-1.2a2.23,2.23,0,0,1,2.4-2,1.78,1.78,0,0,1,1,.4,2.35,2.35,0,0,0,.8.2,10.1,10.1,0,0,1,1.3-1.6,1.55,1.55,0,0,0,.1-2.1l-.1-.1a18.82,18.82,0,0,1-1.6-2.3c1.9-1.3.5-2.8.4-4.3-.6-.1-1.1-.8-1.8.1.4.9,1.6,1.8.3,2.8l-1.7-1.4a3,3,0,0,1-.8.8,8.64,8.64,0,0,1-1.6,1l-.4-.4a10.7,10.7,0,0,1,1.4-1.6c.6-.4,1.3-.6,1.7-1.6l-1.9.7c-2-.6,0-2.8-1.4-3.5a5.67,5.67,0,0,1-1.2,1.8,8,8,0,0,1-2.1.5Zm98.4-37.7,1.7-.5a10.8,10.8,0,0,0-.2,3.1,3.86,3.86,0,0,0,1.1,2.7c1-.9.3-1.8,0-2.5-.4-1.1-.1-1.8,1.2-2.4l-.5,2.2,1.2.8c1-1,1.9-2,2.9-3.1a10.93,10.93,0,0,0-.5-1.7c-.2-.6-.4-1.4-.6-2.3l-1,2-.8-3.5-.9.7c-.3-.4-.8-.8-.9-1.2a2.46,2.46,0,0,0-2.3-2.2c-1,0-2.1-1-3.2.1l1.3,2.1a6.15,6.15,0,0,0,0,2.7h1c.1.9.3,1.9.5,3Zm-187.7,65.8c-.9-1.1-2-1.3-2.8-1.8a1.5,1.5,0,0,0-1.8.1,8,8,0,0,0-3.1,3.9c-.5,1.1-.1,1.7,1.2,1.9l4-3.7-1-1Zm1.7,14.5-.1.5c1.3.5,2.6,1.4,3.9,1.4,3.3.1,6.7-.2,10-.3a2.75,2.75,0,0,0-1.6-1c-2.9-.2-5.8-.3-8.7-.4C116.8,718.91,115.6,719.71,114.4,718.71Zm158.7-106.8c0,1.7.4,3.3-.1,4.7-.9,3-.3,6-.8,8.9a24.13,24.13,0,0,0,.8-2.5,8.64,8.64,0,0,1,.7-2.1c1-1.7,1-1.6,0-3.2.8-2,0-4.1.3-6.2.9.2,1.5,1.1,2.5.7-.6-1.4-2.4-1.6-2.5-3.4-.4,1.4-1.7,2.2-1.3,3.7Zm-44.4,91.7c-2.6.6-5-.3-7.1,1,1,1.8,2.3.5,3.5.7l-1.2.8.3.5,4.3.6c0-1.1.1-2.2.2-3.6ZM216.2,646h-.3c-.1-1-.2-2-.3-3.2-1.1,1.5-1.3,1.7-1.1,2.6.3,1.9.8,3.7,1.2,5.8.4-.4.8-.5.8-.7.1-1.8.1-3.6.2-5.4,0-.1-.1-.2-.2-.3ZM97.9,671.51c-.3-.2-.7-.3-1-.5a1.7,1.7,0,0,0-.7-.1,18.9,18.9,0,0,0-2.7,8.7c.7-1.4,1.1-2.8,1.8-4.2A37.75,37.75,0,0,1,97.9,671.51Zm195.5,72.3a.52.52,0,0,0,.4.2c.1,0,.1,0,.1-.1.8-2.6,1.5-5.3,2.2-7.9,0-.1,0-.1-.1-.2l-1.9-.5C294,738.11,293.7,741,293.4,743.81ZM122,667.91l6.5,12.1C128.2,677.31,124.2,670.11,122,667.91Zm9.9,7.3c1-4.9.8-9.9.8-14.8a1.42,1.42,0,0,0-.6-.2c-.7,4.5,1,9.1-.5,13.5C131.4,674.11,131.8,674.71,131.9,675.21Zm-8.2,51.5v-.5c-2.2-.2-4.4-.4-6.6-.5-1.4,0-2.1.7-2.5,2.2a4.05,4.05,0,0,0,.9-.5c.8-.8,1.5-1.9,2.7-.4.2.2.8.1,1.2.1a31.25,31.25,0,0,0,4.3-.4ZM95.8,663l5.1-.6c-.8-.7-1.4-1.3-2.1-1.9a1.43,1.43,0,0,0-2,.2c0,.1-.1.1-.1.2Zm214.4,81.6a12.09,12.09,0,0,0-1.8.5,6.9,6.9,0,0,0-3.3,5.5Zm-63.7-96.8c1.1.2,1.9.7,2.9-.1a1.5,1.5,0,0,1,1.3-.1,4.18,4.18,0,0,0,3.1-.2C251.6,646,249.5,646.21,246.5,647.81Zm-111.4,29.8c.9-1.8.7-9.1-.4-14.4C134.9,667.91,135.7,672.71,135.1,677.61Zm9.4,69.6c2.4,2.8,2.2,6.1,2.8,9.2l1.1-.1c-.8-3-1.5-5.8-2.3-8.6-.2-.7-.7-.9-1.6-.5Zm49.7-92c-4.3.8-4.6.9-5.5,2.5C191.1,658.11,192.7,656.91,194.2,655.21Zm-98.4,14c.7-1.7,2-3.2,1.1-5.2-1.1.4-1.1.4-1.3,1-.3,1.2-.6,2.4-1,3.6l.2.1.8-1.3.2.1Zm135-45.5c-1.8-.9-2.2-1-2.6-.4a3.45,3.45,0,0,0-.6,3.4c1.5-.7,2.2-1.8,3.2-3Zm-67.4,64c.7-.6.8-1.2.3-1.7a11.78,11.78,0,0,0-1.9-1.1l-.8,1.6c.4.8.8,1.3,1.3,2.2l.8-1.8Zm-9.2,59.2a14.08,14.08,0,0,0-1.1-5.4l-.5.1c.1,1.6.3,3.2.5,5.2l.5-1.3Zm-49.9-41c-2.3.3-2.4,2.5-3.7,3.7-.2.2,0,.6,0,1.5Zm166.9-97.7-.2-.1a6.7,6.7,0,0,0-.7,1.8,21.64,21.64,0,0,0,0,3.6c0,.2.5.3.9.6Zm-131.8,38c-1.5,1-1.6,3.8-.4,5.6C139.1,649.71,139.3,647.91,139.4,646.21Zm160.4,80.6c-.4,2.4-1.1,4.9-.9,7.4C299.5,731.81,300.4,729.41,299.8,726.81Zm-46-88.4c1.9.8,3.7.4,5.5.5a14.62,14.62,0,0,0-2-.5,3.55,3.55,0,0,1-.9-.4C255.4,637.11,254.8,637.11,253.8,638.41ZM205,727.51c.6-1.1.1-1.7-.5-2.4s-.4-1.8-1.4-2.3C203.1,725.11,203.7,726.61,205,727.51ZM99.6,667.81c-2.4-.5-3.2.2-2.7,2.3C98.2,670,98.7,668.81,99.6,667.81Zm232.2,71.1v.4l4.2-.2-.5-1.1,1-.6c-2.1-.7-2.8,1.9-4.7,1.5Zm-22.8,7.8-3,5.4A6.21,6.21,0,0,0,309,746.71Zm-16.9,10.1c-2.1,1.2-2.1,1.2-1.6,2.8a17.42,17.42,0,0,1,.5,2.2C291.4,760,291.7,758.61,292.1,756.81Zm-168.3-24.5h-5.2C120.6,733.71,122.2,733.11,123.8,732.31Zm50.2,24.8c-.2,1.4,1.1,1.4,1.6,2.1,1.4-.3,1-1.3,1.3-2.1Zm38.9-113.3a5.86,5.86,0,0,0,.5,4.3C213.9,646.61,213.3,645.21,212.9,643.81Zm-36.8,119.4a8.8,8.8,0,0,1-.5,1.5c-.2.3-.6.4-1.1.7l2.4,1.5.1-.3-.9-1.2C176.9,764.81,177.2,764.21,176.1,763.21ZM395,698.61c2.3.8,4.4.5,5.5-.4Zm-37.1,11.2-.3.4,3.7,2.8.3-.4C360.1,711.91,359.9,709.61,357.9,709.81Zm-56.7-114.6.3-.1c.2-.6.4-1.1.6-1.8a1.52,1.52,0,0,0-.3-1.3.73.73,0,0,0-1.1-.3h-.1C300.8,593,301,594.11,301.2,595.21Zm-47.4,104.5.3-.4c-1.5-2.2-1.8-2.4-3.8-3Zm-52.6,23.7-.6.2a13.36,13.36,0,0,1,.7,1.8,16.35,16.35,0,0,1,.2,2.2,9.85,9.85,0,0,1-.2,1.7h.4c0-2,.9-4.1-.5-5.9Zm76.1-12.5c1-.9,1.3-3.6.7-5.1-1,.6-.1,1.5-.2,2.2s-.3,1.6-.5,2.9Zm-77.2,30c-.7,1.8-.4,3.7-.3,5.5ZM290.4,767l1.2.2c-.2-1.1.2-2.2-.5-3.4Zm-45.3,80.2.4.1c.1-1.3.3-2.6.4-3.9,0-.1-.3-.3-.8-.6v4.4Zm21.1-192.3.2-.5c-1.1-1.1-2.6-.7-4-.8Zm-35.6,266.8c-.4,1.3-.7,2.3-1,3.6C231.3,924.61,231.3,924.61,230.6,921.71Zm176.7-192.4c-.8-.3-1.7-.8-2,.4-.2,1,.7,1.1,1.5,1.1C407,730.31,407.1,729.81,407.3,729.31ZM299,768.71c-1.3.9-2.2,1.6-2,3.3C297.9,771,298.9,770.41,299,768.71Zm-106.9-45-.3-.2-2.4,3.3.4.3ZM102.4,673c-1.2-1.3-2.2-.5-3.2-.5A4,4,0,0,0,102.4,673Zm20.2,35.3.5-.8-3.7-.5-.1.3Zm149.2-90.9h.2v-6.2h-.2Zm34.7,72.8H306c-.1,1-.5,2,1,2.7A25.58,25.58,0,0,0,306.5,690.21ZM46,696.61a4.72,4.72,0,0,0,3.7,2.7Zm132.7,7.8c-2.2-2.3-2.2-2.3-3.2-1.6Zm190.5,22.3,3.8.4v-.5A7,7,0,0,0,369.2,726.71Zm-23.3,19.5,3-3.1C347.2,743.61,346.1,744.51,345.9,746.21Zm-103.3-73.9c.7,1.1,1.4,2,2.9,1.9Zm-74.2,86.2.8,2.9,1.3-1.1Zm74.5-107.9c1.9.7,2.7-.4,3.5-1.3ZM392,703.81c.9.5,1.8,1.5,3.3.5Zm-31.9-2.4.5-.2-1.4-2.8-.4.2ZM348.9,742c.7-.6,1.6-.7,1.4-1.8l-1.9.8Zm-197.2-59.8c-.9.7-1.8,1.5-1.3,3.1C150.9,684.11,151.3,683.11,151.7,682.21Zm123.6,28.5a2.4,2.4,0,0,0,.2-2.9A28.25,28.25,0,0,1,275.3,710.71Zm86.9,29c-.4.8-.7,1.5-1.1,2.3,1.8-.8,1.9-.9,1.9-1.5C362.9,740.21,362.5,740,362.2,739.71Zm33.3-31.6c-.6-1.3-1.5-1.4-2.8-.9Zm-183.4,12c.8.9,1.4,1.5,2.5,1.3m-114.9-43-.4-.2c-1,1-1,1-.9,2.7Zm111.6,47.3c-1.1-1.7-1.4-1.9-3.1-1.7ZM51.7,697l.4-.2-1.5-2.4A2.43,2.43,0,0,0,51.7,697Zm1.5,30.4-.3-.5-3,1.7v.2c0,.1.1.1.2.2ZM298,744.51h.4a25.12,25.12,0,0,0-.4-2.7c0-.1-.2-.2-.6-.4C297.6,742.61,297.8,743.51,298,744.51Zm47.5,3.9c-.9.4-1.2,1.5-1.8,2.1C344.9,750.41,345.1,749.31,345.5,748.41ZM232.6,622.11l-2.9-.2v.5C230.5,622.21,231.3,623.61,232.6,622.11Zm129.6,81.7-.4.2c.4.8.8,1.6,1.3,2.4l.4-.2C363,705.41,362.6,704.61,362.2,703.81Zm-221.7-2.7c-.1-1.8-.1-1.8-1.3-2.9Zm127-40.5c1.4.8,1.4.8,2.6-.2Zm-168,10.1,1.9-.3c-.7-.6-1.4-1.3-1.9.3Zm177,33.6c1.4-.8,1.2-1.8,1.4-2.7C276.9,702.11,277,703.11,276.5,704.31Zm-203.7,44a4,4,0,0,0,2.8-.8l-.2-.4Zm76.5,3.9h.2c.1-1.1.3-2.3.5-3.4h-.4C149.5,749.91,149.4,751,149.3,752.21Zm-23.7-43.5c.8,1.3.8,1.3,1.9.7Zm71-78.1-.1.4,3,.9.1-.3Zm143.6,106.2.5.2c.4-.7,1.2-1.2.8-2.3Zm-184.8-55.7-.5-.2-1.5,2.6.4.2Zm5.8-3.6-.3-.5c-.4.5-1.9,0-1.4,1.8Zm-60.4-1.3.2-2.1C99.8,674.81,99.8,674.81,100.8,676.21Zm99.9,36.1c-.2.1-.4.1-.4.2a2.62,2.62,0,0,0,1,2.3ZM323,651.51l.8-1.2-.3-.3-1.4.6ZM206.7,723c-.6-1.5-.6-1.5-2.2-1.6Zm-21.5-78.5-.1.4,2.2,1,.2-.4Zm72.9-.2.1-.4-2.8-.5-.1.4ZM100.1,691l.5.2a1.46,1.46,0,0,0,.6-1.9.1.1,0,0,0-.1-.1Zm37.8-11.7h.4l.6-1.8-.4-.1Zm188.5,11.4c-1.1-.7-1.1-.7-2.4-.2ZM242,676c.2-1-.1-1.5-1.2-1.5Zm99.2,74.5c1.5-.8,1.5-.8,1.9-2.1ZM98,665.11c.2,1.4.9,1.1,1.4,1.1.1,0,.1-.2.3-.3ZM94,743l-2.2,1.1C92.9,744.71,92.9,744.71,94,743Zm216.7-42.5.2-.4-1.9-1.2-.2.4ZM86.1,746.41l1.7-1C86.9,745,86.3,745,86.1,746.41Zm310.6-36.6-1.2,1.8C396.5,711.21,396.5,711.21,396.7,709.81Zm-224,57.4.5-.2-1.1-1.6-.4.2ZM266.3,713l-1.1,1.5C266.2,714.31,266.7,714,266.3,713Zm55.6-28.8c1,.8,1.4.8,1.4.1Zm-130.1-36.6.1-.4-2.2-.8-.1.4Zm-9-28.1.2-.4-1.9-.9-.2.4ZM53.4,728.31l.2.4,1.8-1-.2-.3Zm217-111.8H270l.2,2.1h.2v-2.1Zm133,117,.1-.3-1.6-.8-.1.3Zm-212.7-73.1-.1-.2-1.3,1.1.2.2Zm210.8,47-.4-.2-.9,1.5.4.2Zm.2-3.3-.2-.4a4.44,4.44,0,0,0-1.1.8c-.1,0,0,.3.1.7Zm-242.1-18,.4.2,1.1-1.6-.4-.2Zm-44.4,5.2V691l-1.8-.3v.4Zm206.7-2.6.2-.3-1-.9-.1.3Zm8.3-4.6c0-.2.1-.2,0-.3s-.1-.1-.2-.1h-1.2c-.1,0-.1.1-.2.3Zm-179,1.5.3.2.8-1.4-.3-.2Zm-14.5-4.1c.1,0,.3,0,.3-.1,0-.6.1-1.1.1-1.7h-.3Zm200.2-8v-.3l-1.8.1v.3Zm-61.4,31v1.8C275.9,705.81,276.5,705.41,275.5,704.51Zm-11.1,6.8-.6.2.3,1.2.4-.1Zm7.3-48.6v.4l1.7-.2v-.4Zm5,53.6c.7-.7.7-.7.3-1.6Zm20.9-80-.3.1.4,1.9.3-.1ZM114,719.61l-.3.5,1.4.5c.1-.1.1-.2.2-.3Zm210.6-70.2-.1-.4-1.3.3.1.3Zm-50.8,10.4-.1.3,1.1.2.1-.3Zm-1.8,1.1.1-.1c0-.1,0-.1-.1-.1l-1.1-.1v.4H272Zm-4.6,16.6.3.3.8-1.1-.2-.2Zm60.6,8.2.1-.3a2.77,2.77,0,0,0-.9-.1,2.92,2.92,0,0,0-.9.2v.2Zm-26.2,6c-.7.7-.8,1.1-.1,1.8A10.87,10.87,0,0,1,301.8,691.71Zm62.6,8.5-.4.3c.1.2,0,.5.2.6a1.85,1.85,0,0,0,.7.2l.2-.3Zm-144,10.1.1.3,1.6-.4-.1-.4Zm100.9-71.7.1.3,1.2-.5-.1-.3Zm-155.9,56.6.3.2.4-.8-.3-.2Zm111.3,16.6-.3-.1-.2,1.1.2.1ZM89.6,744.41a2.2,2.2,0,0,0-.8-.1c-.1,0-.3.2-.4.4l.2.2Zm114.7-146H204v.9h.2Z"/><path class="cls-8" d="M307.9,714.71c1-1,1.6-1.9,1-3.5C308.9,712.61,306.6,712.91,307.9,714.71ZM93.4,656.41l-.2-.2-.4,1.8H93Z"/><path class="cls-8" d="M36,718.71a3.59,3.59,0,0,1-.7,1,16.18,16.18,0,0,1-1.8,1l-1.3-.2,3.1-1.5Z"/><path class="cls-8" d="M110.5,696.41l-1.7-.8.1-.3h1.2a5.55,5.55,0,0,1,.8.6C111.3,696.31,110.9,696.41,110.5,696.41Z"/><path class="cls-8" d="M130.5,716.91l-3.1-1.3h0"/><path class="cls-8" d="M106.8,755.61v1.5c-.6-1-.6-1-.2-2Z"/><path class="cls-8" d="M307.9,714.71c-1.3-1.8,1-2.1,1-3.5C309.5,712.81,308.9,713.71,307.9,714.71Z"/><path class="cls-8" d="M86.1,752.31a12.42,12.42,0,0,1-3.9,4C83.4,754.91,84.4,753.31,86.1,752.31Z"/><path class="cls-8" d="M64.1,663.11l-3-2.3.3-.4C62.7,660.91,63.9,661.41,64.1,663.11Z"/><path class="cls-8" d="M340.2,676.61l3.3-.3v.4a6.17,6.17,0,0,1-3.3-.1Z"/><path class="cls-8" d="M93.4,656.41l-.4,1.7h-.2l.4-1.8Z"/><path class="cls-8" d="M389.6,737.61l1.1,2.2A2.15,2.15,0,0,1,389.6,737.61Z"/><path class="cls-8" d="M170.2,695.61l.9-1.8.4.3-1.3,1.5Z"/><path class="cls-8" d="M354.9,704l-1.6-.9.3-.3,1.3,1.2Z"/><path class="cls-8" d="M255.2,608.81l-.5-1.4.4-.1A7.57,7.57,0,0,0,255.2,608.81Z"/><path class="cls-8" d="M164.3,732.21a1.36,1.36,0,0,1,1.8.7.1.1,0,0,0,.1.1Z"/><path class="cls-8" d="M114.1,708.91l2.4,1.7a6.58,6.58,0,0,1-4-1.7Z"/><path class="cls-8" d="M123.5,729l-2.7.3v-.5Z"/></g><path class="cls-8" d="M365.7,946.71l9.8,1c-.9-2.7-1.9-5.6-2.8-8.5a10.66,10.66,0,0,1-.7-1.9c-.5-3.2-1-6.3-1.5-9.5a2.67,2.67,0,0,0-.7-1.4c-3-2-3-6.6-5.9-8.7v2.4l-.5.1-1.6-8.1-.7-.1-2.5,3.6c.3-1.9.6-3.8,1-5.6-5.3-.5-6.3-.1-5.5-4l-2.3.3a3.36,3.36,0,0,1-2.2-.4l3.2-.9c-.1-1.1-.2-2.2-.3-3.2l.7-.1-1.7-.8-1-3.4c.6-.4,2.1-.8,2.1-1.4,0-1-.8-2-1.4-3.5l3.7.9-.4-2.6,1.5,2.3c1.1-2.5,1.6-4.7.6-7.3-.4-1-.6-2.8,1.4-2.9l-.6-2.5-.1.1a21.16,21.16,0,0,0,2.1,1.1c3.1,1.2,4.8,4.9,8.4,5.4.8.1,1.1,2.6,2,3.5a7,7,0,0,0,3.8,2.2c1.2.1,2.5-1,3.8-1.6l-1-4,3.6-1.4-2.5-2.3.3-.4,3,1.1.3-.4c-1-1.2-2-2.5-3.5-4.4l4.6.9c-.1-1.3-.2-2.3-.2-3.3,3.8-.4,4-.5,5.6-6.1a18,18,0,0,1,.8,2.1c.5,2.2.5,4.8,3.4,4.8.2,0,.6,1.1.5,1.6a45.91,45.91,0,0,1-1,5.1l3.7.4c-3.3,1.5-3.3,2.3-.4,5.1-2.8,1.4-.8,3.6-1,5.5-4,1.7-4.1,1.9-3.1,6.7a.76.76,0,0,1-.4.2c-1.5-1.4-2.8-2.5-4.5.2-.9,1.5-2.9,1.8-3,4.5-.1,2.9-1.7,5.6-2.2,8.5-.7,3.7-1.2,7.5.1,11.2.5,1.5.6,3.2,1.1,4.7a84.3,84.3,0,0,0,3.8,9.9c-.1.6-.4,1.5-.1,1.8,1.1,1.4,1.1,4.4,3.7,3.8a7.66,7.66,0,0,1,7.2,2c.5.4,1.8.5,2.1.1a22,22,0,0,0,3.2-5.3,10,10,0,0,1,4.1-5.4c2.5-1.5,4.6-4.1,6.5-6.6.6-.8.4-2.8.2-4.1-.8-4.7-1.8-9.3-2.7-13.9-.1-.5-.2-1.3-.4-1.4-2.6-1.1-1.5-2.8-.8-4.8.5-1.4,1.4-3.5-1.3-4-.5-.1-.9-1.5-1.4-2.5l-1.5.2,1.5-1.9-3.2-.6,2.3-1.2-3.1-2.1.2-.6,3.6.3c-.7-1-1.2-1.8-1.8-2.6l.4-.4,2,1.3.2-.3-2.6-4.2c2.2.4,2.9-4.4,5-1.1.6-1.4,1.2-2.7,1.8-4l3,3.2c-.2-1.3-.4-2.2-.6-3.3l3.7-.8-2.4-2.9,2-.6-1.5-4.7,2.1,1c0-1,0-2,.1-3.3l1.7.7c.9-2.3,1.7-4.5,2.6-6.8l.4.2a25.41,25.41,0,0,0,.1,3.9,8.49,8.49,0,0,0,.9,2.2l1.7-1.4c4.5,0,3,4.7,4.1,7.7l-1.6-1.1c-.1.4-.3.8-.2,1,.6,1.3,1.4,2.5,2.1,3.8l-2.7,2.2,1.4,1.4c-1.4,1-2.2,2.3-1.2,3.5l-4.9,2.3c1.5,1.9.8,4.6,3.2,5.1-.3,1.3-.3,3.4-1,3.8-2.1,1.4-1.3,3.7-2,5.5-.4.9-.6,1.9-1.1,2.8a11.89,11.89,0,0,0-1.1,9.9c.5,1.3,1,2.6,1.7,4.5,1-.7,2.5-1.1,3.1-2.1,1.9-3.5,4.1-7,5.1-10.8a16.43,16.43,0,0,1,2.4-5.2,2.39,2.39,0,0,0,.5-1.4c-.2-1.9,0-2.4,1.3-4.1.4-.5.1-1.6.2-2.5l3.5-1.3-2.5-1.2.8-2,2.1-.2c.8-3.4-2.9-2.5-3.1-5.3l3.4-1.6c0-.3-.1-1.3-.3-2.9l3.7,1.8,2.4-1.8,1.5,1.5v-.7l8.4-1.2c-.1,3.5-.1,6.2-.2,9.4l3.3.5-4.5,3.1c-.1,2.4-.2,5.1-.3,8l-2.5-1,1.8,3.6-2.4-1c-.1,1.5-.1,2.8-.2,4.4l-2-1.1-.6,1.8-.6.4q-.15-.9-.3-2.1l-1.4,1.5-1.7-5.8a1.27,1.27,0,0,0-.6.1c-1,6.8-6.3,11.9-6.6,19.1,0,1.1-1.2,2.4-2.1,3.2-3.2,2.8-6.5,5.4-9.8,8.1-1.5,1.2-2.7,2.3-2.8,5-.1,1.7-2.4,3.3-3.8,4.9a22,22,0,0,1-1.8,1.4,19.24,19.24,0,0,0,2.1,1.1c3.2.2,6.4.2,9.6.3a2,2,0,0,1,1.1.2c1.4,1,2,.2,2.6-1.2.3-.7.7-1.3,1.3-2.5l1.4,3.7c.5-1.4,1.1-2.3.9-2.7-2-3.5-.7-3.2,1.7-2.1.6.3,1.4-.1,2.3-.2-.2-.7-.3-1.4-.5-2.3,2.8.2,2.8-2.1,2.9-4.2,3.9,1,4.2.8,7.1-4.9-.1,1.5-.2,2.9-.2,3.8l4.3.9-.7,4.1.5.5,1.5-1.8,1.9-2.2c.5.7,1,1.4,1.4,2.1a15.65,15.65,0,0,1,1.4,4.8c0,1.4-.9,2.9-1.6,4.8"/><path class="cls-8" d="M215,1253.31c-.6-1.6-1.4-2.8-1.3-4a14.19,14.19,0,0,1,1.2-4,9.39,9.39,0,0,1,1.2-1.8c.5.6,1.1,1.2,1.6,1.8s.8,1,1.2,1.5l.4-.4c-.2-1.1-.4-2.1-.6-3.4l3.6-.7c0-.8-.1-2-.2-3.2,2.4,4.7,2.7,4.9,6,4.1.1,1.8,0,3.7,2.4,3.5-.2.8-.3,1.3-.4,1.9a4.08,4.08,0,0,0,1.9.1c2-.9,3.2-1.1,1.5,1.8-.2.31.4,1.1.8,2.31l1.1-3.1a20.11,20.11,0,0,1,1.1,2.1c.5,1.19,1,1.8,2.2,1a2.92,2.92,0,0,1,.9-.2c2.7-.1,5.4-.1,8.1-.3.5,0,1-.5,1.8-.91a14.17,14.17,0,0,1-1.5-1.09c-1.2-1.31-3.1-2.7-3.2-4.1a5.45,5.45,0,0,0-2.3-4.2c-2.7-2.3-5.5-4.4-8.2-6.8a4.36,4.36,0,0,1-1.7-2.7c-.3-6-4.7-10.2-5.5-16a.9.9,0,0,1-.5-.1c-.4,1.6-.9,3.2-1.4,4.8l-1.2-1.3c-.1.7-.2,1.2-.3,1.8l-.5-.3-.5-1.5-1.7.9c-.1-1.3-.1-2.4-.2-3.7l-2,.8,1.5-3-2.1.8c-.1-2.4-.2-4.7-.3-6.7l-3.8-2.6,2.8-.4c-.1-2.6-.1-5-.1-7.8l7,1v.6l1.3-1.2,2,1.5,3.1-1.5-.3,2.4,2.8,1.3c-.1,2.3-3.3,1.6-2.6,4.4l1.7.2.7,1.7-2.1,1,2.9,1.1c0,.7-.2,1.7.2,2.1,1.1,1.5,1.3,1.9,1.1,3.5a2.84,2.84,0,0,0,.4,1.2,13.55,13.55,0,0,1,2,4.4c.8,3.2,2.6,6.1,4.2,9,.5.8,1.7,1.2,2.6,1.8.6-1.6,1-2.7,1.4-3.8a10.06,10.06,0,0,0-.9-8.3c-.3-.8-.7-1.6-.9-2.3-.6-1.5.1-3.4-1.7-4.6-.6-.4-.6-2.1-.8-3.2,2-.4,1.4-2.7,2.6-4.2l-4.1-1.9c.8-1,.2-2.1-1-3l1.2-1.2-2.3-1.8c.6-1.1,1.2-2.1,1.8-3.2.1-.2-.1-.5-.1-.8-.5.4-.9.6-1.3.9.9-2.5-.3-6.4,3.4-6.4l1.4,1.2a14.17,14.17,0,0,0,.8-1.8,18.19,18.19,0,0,0,0-3.3l.4-.1,2.2,5.7,1.4-.6a26.2,26.2,0,0,0,.1,2.8l1.7-.8-1.3,3.9,1.6.5-2,2.5,3.1.7-.5,2.8,2.6-2.7,1.5,3.4c1.7-2.7,2.3,1.3,4.2,1l-2.2,3.5.2.2,1.7-1.1.3.3-1.5,2.2,3-.3.2.5-2.6,1.7,1.9,1-2.6.5,1.3,1.6-1.2-.2c-.5.9-.8,2.1-1.2,2.1-2.3.4-1.5,2.1-1.1,3.3.6,1.7,1.5,3.1-.7,4-.2.1-.3.8-.4,1.2-.8,3.9-1.6,7.7-2.2,11.6-.2,1.1-.4,2.69.1,3.4a23.5,23.5,0,0,0,5.4,5.5,8.92,8.92,0,0,1,3.4,4.5,17.94,17.94,0,0,0,2.7,4.4c.2.3,1.3.3,1.7-.1"/><path class="cls-8" d="M64.6,1848.91l7.5.7c-.7-2.1-1.4-4.3-2.2-6.6a8.8,8.8,0,0,1-.5-1.5c-.4-2.4-.7-4.9-1.2-7.3a2.38,2.38,0,0,0-.6-1.1c-2.3-1.6-2.3-5.1-4.6-6.7v1.9l-.4.1-1.2-6.3-.5-.1-2,2.8c.3-1.5.5-2.9.8-4.3-4.1-.4-4.9-.1-4.3-3.1l-1.8.3a2.49,2.49,0,0,1-1.7-.3l2.5-.7c-.1-.8-.1-1.7-.2-2.5l.5-.1-1.3-.6c-.3-1-.5-1.8-.8-2.6.5-.3,1.6-.69,1.6-1.09a8,8,0,0,0-1.1-2.7l2.9.7-.3-2,1.2,1.8a7.25,7.25,0,0,0,.5-5.6c-.3-.8-.5-2.2,1-2.3-.1-.6-.3-1.31-.4-1.9h0a8.54,8.54,0,0,0,1.6.8c2.4.9,3.7,3.8,6.5,4.2.6.09.8,2,1.5,2.69a5.07,5.07,0,0,0,3,1.7c.9.1,1.9-.8,2.9-1.2l-.7-3,2.8-1.1-2-1.8.2-.3,2.3.8.2-.3-2.7-3.4,3.6.7c-.1-1-.1-1.8-.2-2.5,2.9-.3,3.1-.4,4.3-4.7.2.5.4,1.1.6,1.6.4,1.7.4,3.7,2.7,3.7.2,0,.4.8.4,1.2-.2,1.3-.5,2.6-.7,4l2.8.3c-2.5,1.2-2.6,1.8-.3,3.9-2.2,1.1-.6,2.8-.7,4.3-3.1,1.3-3.2,1.5-2.4,5.2-.1,0-.3.2-.3.1-1.2-1-2.2-1.9-3.5.2-.7,1.2-2.2,1.4-2.3,3.5s-1.3,4.3-1.7,6.6c-.5,2.9-1,5.8.1,8.7.4,1.2.5,2.5.9,3.6a54.51,54.51,0,0,0,3,7.6c0,.5-.3,1.1-.1,1.4.8,1.1.8,3.4,2.9,3a6.07,6.07,0,0,1,5.6,1.5c.4.3,1.4.4,1.6.1a21.4,21.4,0,0,0,2.5-4.1,7.67,7.67,0,0,1,3.1-4.2,18.66,18.66,0,0,0,5-5.1c.5-.7.3-2.1.1-3.2-.6-3.6-1.4-7.2-2.1-10.7-.1-.4-.1-1-.3-1.1-2-.9-1.2-2.2-.6-3.7.4-1.1,1.1-2.7-1-3.1-.4-.1-.7-1.1-1.1-2H94.3l1.2-1.5-2.4-.5,1.8-.9-2.4-1.6.2-.4,2.8.3-1.3-2,.3-.3,1.6,1,.2-.2-2-3.2c1.7.31,2.3-3.4,3.8-.9.5-1.1.9-2.1,1.4-3.1l2.3,2.5-.5-2.59,2.9-.6c-.8-.9-1.3-1.6-1.9-2.31l1.5-.4-1.2-3.6,1.6.81v-2.6l1.3.6c.7-1.81,1.3-3.5,2-5.2l.3.1c0,1,0,2,.1,3a8.65,8.65,0,0,0,.7,1.7l1.3-1.1c3.4,0,2.3,3.6,3.1,5.9l-1.2-.8a1.06,1.06,0,0,0-.1.8c.5,1,1,1.9,1.6,3l-2.1,1.7,1.1,1.09c-1.1.81-1.7,1.81-.9,2.7l-3.8,1.8c1.2,1.41.6,3.6,2.4,3.91-.2,1-.2,2.59-.8,3-1.6,1.09-1,2.9-1.5,4.19-.3.81-.6,1.5-.9,2.2a8.87,8.87,0,0,0-.8,7.6c.4,1,.8,2,1.3,3.5.8-.6,1.9-.9,2.4-1.7,1.5-2.7,3.2-5.4,3.9-8.3a14.44,14.44,0,0,1,1.8-4,2.1,2.1,0,0,0,.4-1.1c-.2-1.5,0-1.8,1-3.2.3-.4.1-1.3.2-1.9l2.7-1-1.9-.9.6-1.6,1.6-.2c.6-2.59-2.3-1.9-2.4-4.09l2.6-1.2-.3-2.3,2.9,1.3,1.9-1.4,1.2,1.19v-.5l6.5-1c0,2.7-.1,4.81-.1,7.2l2.5.4-3.5,2.4c-.1,1.81-.2,3.91-.3,6.2l-1.9-.8,1.4,2.8-1.8-.8c-.1,1.2-.1,2.2-.2,3.4l-1.6-.9-.5,1.4-.4.3a8.75,8.75,0,0,1-.2-1.6l-1.1,1.2-1.3-4.4a.9.9,0,0,0-.5.1c-.8,5.3-4.9,9.2-5.1,14.7a4.21,4.21,0,0,1-1.6,2.5c-2.5,2.2-5.1,4.2-7.6,6.3a4.89,4.89,0,0,0-2.2,3.8c-.1,1.3-1.9,2.5-3,3.8a6.71,6.71,0,0,1-1.4,1c.8.41,1.2.81,1.6.81,2.5.1,5,.19,7.4.19a1.49,1.49,0,0,1,.9.2c1.1.8,1.6.2,2-.9a11.4,11.4,0,0,1,1-1.9c.3,1,.6,1.6,1,2.9a5.79,5.79,0,0,0,.7-2.1c-1.6-2.7-.5-2.5,1.3-1.7.5.2,1.1-.09,1.8-.09l-.4-1.81c2.2.2,2.2-1.6,2.2-3.19,3,.8,3.3.59,5.5-3.81-.1,1.1-.1,2.2-.2,3l3.3.7c-.2,1.2-.4,2.2-.5,3.2l.4.4a7.55,7.55,0,0,0,1.1-1.4c.3-.5,1-1.1,1.4-1.7a9.06,9.06,0,0,1,1.1,1.6,12.13,12.13,0,0,1,1.1,3.7c0,1.1-.7,2.2-1.2,3.7"/><path class="cls-8" d="M596,910.71a5.5,5.5,0,0,1-.7-.9c-.3-1.7-1.3-1.6-2.7-1a27.59,27.59,0,0,1-2.7.8c.6-1.2.9-2,1.7-3.6-1.3.6-2.4.9-2.5,1.3-1,3.9-1.8,2.7-2.7.3-.2-.6-1.1-1-1.7-1.5l-1.2,2c-1.9-2.1-3.5-.5-5,.9-2-3.5-2.5-3.5-8.5-1.6l2.9-2.5-2.4-3.6,3.4-2.4v-.7l-2.3.2a28.25,28.25,0,0,1-2.9.2,10.08,10.08,0,0,1,.5-2.5,14.48,14.48,0,0,1,2.4-4.4c1-1,2.7-1.4,4.5-2.3"/><path class="cls-8" d="M571.7,902.41c-.1-1.8-.1-3.4-.2-5a22.57,22.57,0,0,1,.1-4.5,56.85,56.85,0,0,0,.1-19.3c-.8-5.3-1-10.8-1.5-16.2-.4-3.6-1-7.2-1.5-10.8-.6-4.7-1.2-9.3-1.6-14-.1-1.3,0-2.3-1.4-2.6-.5-.1-.8-.8-1.5-1.5l-1.2,2.2-.8-1.1-.7.8a5.67,5.67,0,0,1-.8-1.3c-.6-1.9-1.2-3.9-1.7-5.6-1,1-1.9,2.1-2.8,3.2-.4.6-.2,1.7-.2,2.6-.1,2-.2,4.1-.3,6.1a6.43,6.43,0,0,0,1.3,4.8c-.1-2-.3-4-.4-6l.6-.1c.2,1.3.5,2.6.7,4a13.12,13.12,0,0,1-.4,5.2c-.2,1.2-.9,2.2-2.2,1.3l-1,1.9c-.3-.6-.4-1-.6-1.3a18,18,0,0,1-1.5-3.09,7.43,7.43,0,0,1-.6-3.6c.8-3.7,2-7.4,2.9-10.9l-.6-3c-.4-1.5-.9-3-1.3-4.5-.9-3.3-1.7-6.5-2.5-9.8v-.41c-1.5-3.09-.7-5.79,1.5-8.2a2,2,0,0,0,.2-1.5,23.07,23.07,0,0,1-1-2.8,7.15,7.15,0,0,0-3.9-6.4c-.2-.1-.3-.5-.5-.9l-.3,2-1.5-3,.5,2.7-.3.1-1.2-2.2v2.2c-1.7-3.3-3.2-6.2-4.7-9.2-.8.8-1,.7-2.9-2.2l-.9,1.3.1-1.5-.3-.1-.9,1.6-5.3-1.5.8,1.3-1.5-.2.1,2.3-1.3-.5c-.4,1.5-.7,2.9-2.4,1.3-.4-.4-1.4-.1-2.4-.2-.1.3-.3,1-.6,1.8l-2-2.4-1.2,3.2h-.4l-.1-1.7c-1.6-.5-2.5.3-3.2,1.9-.2.5-1,.8-1.9,1.5.7-4.6,1.2-8.8-1.7-12.5l-.1,3.2-.5.3c-.5-1.1-1-2.1-1.6-3.2a12.88,12.88,0,0,0-1.6-1.7l.5-4.7-.4-.1c-.5,1.4-1.1,2.9-1.6,4.3l-.2-.1,1.1-4.6-.2-.1-1.1,1.5a10.46,10.46,0,0,1-.4-1.7l-1.9,3.2c.2-1.1.4-1.7.5-2.2l-.3-.2-3.6,5.9-.5-.3c.8-1.9,1.7-3.8,2.6-6l-1.6,1c-1-1.5-1-1.5-3.8-.5l3.5-3.9-.2-.3-1.5,1-.2-.2,2.9-4.1-.4-.4-1.6.8,1.3-3.8a16.44,16.44,0,0,1-2.2,1.4c-1.1.5-2,2-3.6,1.2-.3-.2-1.1.9-1.8,1.2l2.5-4.3-3.9,1.7-.4-.5,1.9-2.3-1.8.3c.1-.5.1-.8.2-1.3l-2.3.1v-.2l4.2-1.6-2-.8a2.39,2.39,0,0,0,2.4-2.5v-.3c-.1-1.2-1.3-2.2-1.9-3.2l3.3-1.2-2.4-2,3.6-.4.1-.6-3.2-1.8c2.5-.4,4.8-.7,7.1-1.2.5-.1.8-1.1,1.3-1.5,1.4-1.2,2.9-2.3,4.4-3.5l4.2,2.3a36.24,36.24,0,0,0,2.5,4.8c.4.5,1.3.6,1.8,1l8.5,5.6-2.1.8,1.8.8-2.7.2.4,1.7-3.2,1.7v.5l8.2,1.4v.3l-8.6,2.1v.4l7.5.7v.4l-4,.6v.8l3.3,1v.3l-7.5.3-.1.8c1.9,1.7,3.8,3.5,5.7,5.2a31.88,31.88,0,0,0,4.2,3,3.13,3.13,0,0,0,2.5.2,36.87,36.87,0,0,0,6.5-1.8,3.62,3.62,0,0,0,1.5-2.3,5.53,5.53,0,0,0-.3-3.1c-1-3.4.5-6.4,1.3-9.5.1-.5.8-.7,1.5-1.2-.3-3.6-.6-7.3-1-11l-.6-.2-4.8,8c1.1-3.3,2.1-6.2,3.1-9.1l-.4-.3-3.9,5.6-.4-.3a5.67,5.67,0,0,1,.8-1.3c1.5-1.7,1.5-3.9,1.6-6.1l-4.5,1.5,1.8-2-2.5-1.09-1.3,1.79.2-2.5c1.2-.79,3.5.5,3.7-2.59l-1.8-.1c0-1-.1-2-.2-3H528l-.2,2.2-.3.1-.4-1.2-.9,1.4.6-3.6-.4-.2-1.5,2-.5-.3c.2-.9.3-1.8.6-3.2l-1.9,3.4H523l1-2.9-.3-.3-1.3,1.9-.2-.1c.4-1.1.7-2.3,1.2-3.9l-1.9,1.3.2-2.2-2.2,1.2v-.9l-.4-.1c-.4,1.4-.8,2.8-1.2,4.1h-.2l.2-2.5-.4.2a7.46,7.46,0,0,0-.7-1.2c-.5-.3-1-.6-1.6-.9l.3-1.3-.3-.2-.8,1c-2.5-2.5-4.2,1.7-7.2,1.4l8.6-6.6c-.4-.2-.9-.4-1.3-.6a2.7,2.7,0,0,1-.8-.7l1.8-1-4.3-.9v-.5l3.7-.2-2.9-1.2,1.9-.6-3.5-2.3.1-.3,1.9.8.4-.4-1.4-.6.6-.7,3.4,2.5.4-.3a11.63,11.63,0,0,0-.4-1.8c-.4-1-1.7-2,.5-2.5.3-.1.5-1.9.5-2.9a22.87,22.87,0,0,0-.7-3.6c-1,.6-1,.6-1.8-3.5l-1.6,2-1.7.3v-5.9l-.5-.1-1.3,6.6c-.3-2.9-.5-5.2-.8-7.9l-1.5,4.1-.3-.1,1.4-5.8-.1-.1-3.3,7.8-.5-.2,1-3.8-.2-.1-1.5,2.2-.3-.1,3.7-7.3-.3-.2-4.7,5.9-.3-.2,1.6-4-1.5,1.1-.1-.1,2.2-3-.2-.2-4.5,4.2-.1-.3,4.5-6.8-5.9,2.8-.1-.3,4.1-2.7-.1-.4-2,.8-.1-.2,2.3-1.5-.1-.4-4.4.8-.1-.6,4.4-1h0l-3.6.6-.2-.7,4.9-1.9-5.7-1.3,2.2-.3-3.8-3.7,3.4-.6-1.6-1.2,4.8-1.3-2.2-.6c.4-1.1.4-1.1-2.2-2l2.4-.6-1.6-.9v-.51l6.1.6.1-.7-6.4-2.1.1-.3,3.7.7.3-.7c-3.2.5-3.5-3.2-5.6-4.6a10.8,10.8,0,0,0,3.1.2,6.11,6.11,0,0,0,2.2-1.3l-2.9-1.6.1-.4a20.16,20.16,0,0,1,2.3.7,10.08,10.08,0,0,0,2.3,1.2l-2.4-2.7a6.47,6.47,0,0,1-.4-1.3l.9-.2c1-.2,2-.5,3.1-.7q.9-.15,2.1-.3c-.1-.7-.1-1.4-.2-2.5,1.2,1.5,2.2,2.8,3.1,3.9.1-.5.3-1.4.5-2.3,1.5.6.6-1,1.1-1.29-.1,2.4,0,2.59,1.4,2.79.1-.79.3-1.5.4-2.2h.2v4.5l.3.1c.5-1.1.9-2.3,1.5-3.9v3l.7-1c0,1.2.1,2.5.2,4.3l5.5-5.8,1.5,1.2,1.9-8.1.5.2c-.3,1.5-.5,3.1-.8,4.6a3.6,3.6,0,0,0,1.1,3.8l-1.9-.4c0,3.2,2.2,3.9,4.7,5.4a8.3,8.3,0,0,0-.6-2.1c-.7-1-1.5-2-2.2-3l4,3.1.4-.6-1.6-1.6,1.8-.9,1.4,1.1c2-.8.6-2.4.8-3.9.5,1,.8,1.8,1.2,2.6l.3-.1-.1-2.2.2-.2.4,1.2.4-.2v-3l.3-.1.6,2.1a8.34,8.34,0,0,0,.8,1.2c.4-.4,1.1-.7,1.3-1.2a14.26,14.26,0,0,1,.9-2.7v2l2.3-.7-1.2,3.1.2.2,1.7-2.1c.6,2.9-1.8,4-2.3,6.1,1.9.8,2.3-1.6,3.8-2.1l-1,1.9.4.6,2.3-3.1.5.7-2.7,2.7.1.3,3.4-2.1.3.5-8.3,6.2.4.6,4.6-3.4-.9,1.8a9.74,9.74,0,0,0,2.4.2,6.31,6.31,0,0,1,2.3-.8l-4.3,2.7,2.7.9-5.4,2.2v.4l8-.29-10.3,2.7v.59l2,.91-1.7.3.5,1.5h-1.1c.8.7,1.4,1.2,2.1,1.79-1.5,1.71-.6,2.71.5,4.21a59.52,59.52,0,0,1,3.6,6l-2.4-1.3a37.62,37.62,0,0,1,2,5.59,25.31,25.31,0,0,1,.1,5.5l-1.1.5-.8-1.9c-1.1,3-4,5.4-2.9,9.1a30.35,30.35,0,0,0,3.7,8.2l.8,5.4c2,1.8,2.2,2,.8,4.91-.9,1.9-1.1,3.5,1.2,4.5l-1.3-2.71.7-1.79c.3,1.29.5,2.2.8,3.09a4.9,4.9,0,0,1,4.1-3.9l.9,1-1.5,2.5c2,.7,3.4-2.4,4.9-.3a27.3,27.3,0,0,1,2.5,4.8c0-1.8.1-3.3.1-4.8h.3l.6,5.1.4-.1a23,23,0,0,1,.5-4.5c.2-.8,1.3-1.2,2.2-2l-.4,3.7.3.1,1.3-4.5h.2l-.7,6.5.4.3,3.9-6.1.2.1-1.4,3.6,1.2-.7.8,2.2h.7c.4-1.4.7-2.7,1.1-4.1h.2l-.6,3.7.5.2,1-2.6.5.6.6-2.7h.4l-.2,4.3.3.1.5-2.8.6,2.4c.9-2.6,1.6-4.7,2.3-6.7l-.3-.2-1.4,2.4c-.4-2.7-.8-5.7-1.3-9.3l-.3,3.5c-1.3-1.7-2.2-3-1.9-5.1.1-1-.5-2.09-.7-3.2a13.55,13.55,0,0,1-.2-2c-.1-2.4-.2-4.7-.3-7.59l-1.2,1.29.1-9.9-.2-.1-1,1.91h-.4c-.1-.7-.2-1.41-.3-2.1a7.39,7.39,0,0,0,0-2.1c-.9-2.8,0-5.5.4-8.3a11.39,11.39,0,0,0-1.4-7,5.87,5.87,0,0,1-.4-2.3c-.1-1.1-.2-2.2-.4-3.7l-1.6,1.6-.1-2.9-.3-.1-.9,3.6h-.5c.5-3.7-1.1-7.5,1-11.2l-.7-.1c-2.1,4.8-4.3,9.5-6.4,14.3l-.5-.2,2.3-8.6-.9-.3c.7-2,1.4-4,2-6l-.4-.4-3.2,2-.4-.3c2.2-1.8,5-3.3,4.3-6.8l-3.3-2.4.3-.5,3.5,1.7c.8-2.5-1.2-2.2-2.1-2.8a7.49,7.49,0,0,1,1.6-.5,3,3,0,0,1,1.3.5l.3-.7-2.5-2.2,2.2-1.5-3-.5,1.5-.4v-.5l-3.5.4-.1-.3,2.6-.9V643l-1.9-.1v-.4l3-.6v-.4l-5.3-.9h3.6l.1-.3-2.1-.5v-.2l4,.4v-.4L553,639l1.9-.2-2.3-1v-.2l1.9.2-1.5-1.1.1-.3,3.8,1.4-3.6-2.8.3-.6,2,.4.1-.3c-.6-.4-1.2-.7-1.8-1.1,1.2-.9,1.1-2.6,0-4.1l2,1.2,1.5-4,2.1,1.9.4-.3c-.2-1.2-.4-2.4-.7-4l1.1,1.8c2.8-1.2.9-3.5.8-5.3h.5l.9,3.2.5-.8c.1,1.5.2,2.9.3,4.3l.3.1.9-2.6c.2,2,.3,3.5.4,4.9h.5l.7-6.8h.6c-.3,1.7-.5,3.4-.9,5.7l1.8-1.8-1.3,6.2c.9-1.3,1.8-2.7,2.8-4l.5.2-1.3,3.7.2.3c.3-.4.6-.8,1-1.3a6.89,6.89,0,0,1,1.1-1.3l.5.3-1.5,3.3.2.3,1.2-1.4a8.6,8.6,0,0,0,2,1.8c.6.4,1.2.3,1.5-.8a6.19,6.19,0,0,1,1.1-1.7c-1.9-1.8,1.5-1.8,1.4-3.2l1.4,7,1-4.3h.4c.1.8.1,1.6.3,2.9.4-1.2.7-1.9,1-2.6,1.8,1.5,1.8,2.2.8,4.5a35.74,35.74,0,0,0-1.1,4.7c-1.7-1.4-.8-3.5-.8-5.3h-.6l-.2,7.9.7.1c.3-.9.6-1.8.9-2.8l1-1.4-.2,1.9.7.8c.3-.6.5-1.2.8-1.7s.6-1,1.1-1.7c-.6,2.3-1.2,4.2-1.8,6.4l7.1-5.8.3.5c-1.7,1.7-3.6,3.3-5.2,5.1-.5.5-.5,1.7-.9,3l4.2-2.8v.9l1.3-.6-3.2,5.3.4.4,3.3-1.5-2.8,4,.2.2,2-1.6.4,1.6,1.5-.4-4.1,4,2.3.1.1.7-4,1.9v.3l6.3.2v.2l-4.5.3c-1.5.1-2.7.2-2.5,2.5l-2-.7c.4,3.7.8,7.2,1.2,10.6l-.4.1-.9-1.9c.9.9.8.1.6-.5-.5-2.1-1.1-4.1-1.8-6.6-.3,2.3-.7,4.1.5,5.8l-2.6-.5v-1.2H579l-.8,5,1.4-.5-.2,4.4-1.2-3.2-.7.2c.9,6.7,1.7,13.3,2.6,20l-.4.2-1.7-3.8c.4,2.5.7,4.5,1,6.6-2,1.5-.6,3.7-.8,5.6-.6,4.6,2.1,8.4,2,12.8a32.7,32.7,0,0,1-.4,4.4c1.5,1.4,1.4,4.8-.2,7.7l2.9-1.5L581,732l.7-.3-.8,1.2.2.3,4.3-3.4c-.5,2.2-3.4,2.2-3,4.9l2.7-1.2.2.4-4.7,3.3.1.5,4.9-.9-1,1.7a23.65,23.65,0,0,0,10.1-2.6l-3.6,3.4-1.8.3c-1.1.3-2.2.7-3.3,1h-.2c-1.6,1.2-2.7,3.3-5.3,2.7l.2.7,1.1,1.3-2.9.1-.1.4,1.4.9-.3.6-3.7-2-1.2,1.6.7,1.3-.2.2-1.2-1.2c-1.9.9-1,2.6-1.1,4l-.9-.3c-.5,6.8,2.7,11.9,5.3,17.3,1.1,2.2,1.2,5.3,1.2,8,.1,5.4-.2,10.9-.3,16.4V794c.4-.6.6-.8.6-1,1.2-6.2,3.8-12.2,3.7-18.7-.1-4.1-.1-8.2,0-12.2a12.39,12.39,0,0,1,.5-4.3c1.3-2.7,1-6.5,3.9-8.2a15,15,0,0,1,4.2-1.5,24.79,24.79,0,0,0,9.5-3.5,13.65,13.65,0,0,0,1.7-1.7c2.5-2.2,5.1-4.3,7.6-6.4a3,3,0,0,1,1.6-.5c5.8.4,11.6.9,17.4,1.1,1.5.1,3-.9,4.5-1.4,1-.4,2-.9,3-1.4.7-.3,1.3-.4.9-1.9-.6-2.3,1.6-3.4,2.7-5a10.63,10.63,0,0,1,1.5-1.5,2.18,2.18,0,0,0-.5-.8l2.6-1.1-4.5-.4,2.2-1.5-1.8-.5v-.4l5.5-.7v-.2l-5.1-1.2,3-.6-1.5-1.2,4.4,1.1.2-.3-4.4-4.2.1-.3,5.5,3.2.2-.3-3-3.3.2-.2,3,2.4.2-.3c-1-1.2-2.1-2.3-3.3-3.8h2l-1.3-2,1.9,1,.2-1.1,3,1.8.3-.4-5.5-5c2.3-.6,3.1,2.1,4.7,2.9,2-2.7-.8-4.7-.7-7.1l.5-.5,1.7,4.3.8-.7c-.4-1.5-.5-3.2-1.3-4.5s.4-2.2.4-3.3a3.4,3.4,0,0,1,1-.1l1.3,2.6.7-.1c-1.5-3.1,1.7-3.3,2.2-5.2.3-1.2,1.5-1.8,1.1-3.5-.3-1.2.6-2.9,1-4.4l.7.2c-1,4.4-1.9,8.7-2.9,13l1.9-.7.1,2.2,2-1.8.4.4-.4,1.2,3.4.1-3.2,3.4.3.5,4.7-3.6.3.4-6.1,5.1.2.4,5-2.7.2.5-4.2,2.9.1.3,3.6-1.3.2.4-2.6,1.5c1.1,2.3,2.9.3,4.4.7l-.3,2,2,.2-1.6.8,1.8,2.6.5-.3c-.3-1.1-.5-2.1-.8-3.2.6.6,1.2,1.2,1.8,1.9l.2-2,2.1,2.6,2.1-2,1,1.9,3.1-3.3.2.2-1.3,2.8.3.3,1.4-.9.2,2.7,2.6-1.6-2,2.3,1.8.1.1.3a7.5,7.5,0,0,0-2,1,9.51,9.51,0,0,0-1.5,2l2,.4c.2,0,.3,0,.6.5l-4,.9v.2l5.5-.7-.6,1.5c-.7.2-2,4.3-1.2,5.5.5-2.6,2.3-4.7,4.3-4.6-1.2,2.8-2,5.8-3.6,8-1.2,1.6-1,2.2-.4,3.7.4,1.2,0,2.7,0,4.1l-1.5-.9-.2.2,3.1,3.9-4.8-3.7-.3.4,1.8,4-.3.3c-.4-.6-.9-1.1-1.3-1.7s-.8-1.3-1.3-2l-.4.2.9,3.3-.4.3c-.6-1.2-1.2-2.3-1.8-3.5l-.4.1,1,3.7-.4.2-2.5-3.7-1.9,4.4c.1-2.2.2-4.2.2-6.2l-.6-.2a9.09,9.09,0,0,0-2.1,1.8c-1.4,1.8-3.8,2.6-4.4,5.3,0,.2-.4.5-.5.5-2.2-.2-3.1,1.8-4.5,3.7l.5-2.3-2.4,3-.4-.3,1.7-3.1-.2-.2-1.6,1.9-.5-.8-6.6,5.6.8-2.2-2.2,1.6-.2-.2,2.3-2.7-.3-.4c-.4.3-.9.6-1.3.9-1.5,1.5-3.4.9-5.1,1.2a30.05,30.05,0,0,0-3.2,1.1c.1-.4.2-.9.3-1.3a17.38,17.38,0,0,1,1.3-1.5l-2.2.6,1.2-1.6-.3-.4-2.3,1.7-3.1-2.4,1.1-2-.2-.4-5.3,3.2v-.2l.3-.9-5.2,5.3-3.7-.8v.1l.1-1.3h-.1l-1.2-.1,2.8-3-.2-.3-2.6,1.4.1-1.3-.5-.1-.8,4.1,1.2-.8-1.6,2.29.5-5.1-1.8.1.6-1-.2-.3-3.3,1.7,1.2-1.8-2.1.4-.1-.3,2.7-1.8-.1-.3-2.1.5-.2-2.4c-3,4.8-8.4,7-8.9,13.6l-.5-.2-.1-2-3.1,4-.8-2.5-1.3,1.4-.2-.9-5.2,4,.4-.7c-1.7.1-1.7.1-2.8,5.7,1.9-1.4,3.6-2.8,5.5-4.1,1.4-1,3.1-2.1,4.3-.4s0,3.3-1.3,4.6c-.9.7-1.8,1.4-2.7,2.2-1.5,1.8-2.8,3.7-4.4,5.8l-1.3-.8c-.1.2-.3.5-.3.5,1.3,2.4.3,4.9-.1,7.3-.3,1.4-.8,2.8-1.2,4.2-1.8,6.1-3.6,12.1-5.4,18.2l-.5-.1-.4-1.1c-2,3.1-3.8,6-5.7,8.91a3.27,3.27,0,0,0-.6,1.9c.5,1.8-.6,2.9-1.3,4.2-.2.4-.6,1-.5,1.2,1.4,3,1,7,3.9,9.1a2.23,2.23,0,0,1,.8,3c-.1.1-.2.3-.3.4,2.5.1,2.1,2.5,2.7,4.1.2.6.6,1.5.9,1.5,1.9-.1,2.3,1.5,2.4,3,.2,3.5.3,7,.4,10.5.1,5.1.2,10.2.3,15.4a50.63,50.63,0,0,1,6.8-1,35,35,0,0,1,6.3,1.2c1.5.3,3,.5,4.4-.5v-.7l-4.1.5,2.9-1.8-.2-.7-3.6-.8v-.5l5.8-.4-3-1,.1-.4,6.4.59.1-.7a54.8,54.8,0,0,0-5.5-.8,50.14,50.14,0,0,1-7.8-.7l7.5-.3.1-.29-9-3.71.1-.59,12.9,3,.2-.6-8.6-3.4.1-.41,3,1-3.2-2.4.1-.4a8.86,8.86,0,0,0,1.7.8l5.7,2.1c.1,0,.3-.3.4-.4l2.6,1.7c.3-.5.6-1.1.9-1.7a1.7,1.7,0,0,0,0-1,40.18,40.18,0,0,0-4.6-2.4l3.1,3h-2.2c-.2-.2-.4-.5-.6-.5-2.3-.4-2.7-2.8-3.5-4.7-.1-.2.3-.7.5-1.1-2.9-1.9-2.9-1.9-2.8-3.1l2.1,1.7.1-.3,1.2.3a5.37,5.37,0,0,0,2.1.5l-2.3-2.3.2-.4,2.5,1.5.2-.3-5-3.6.3-.6,11.2,6.7.4-.5-6.8-5.2.4-.6,4.5,3.5.3-.3-5.3-5.5,2,.5-4-4.2.2-.3,6.8,4.5.4-.5-3-4.5.4-.5,3.1,2.8c-.2-.7-.2-1.1-.4-1.7l1.2,1,.2-.2-1.1-2.4.2-.2,1.5,1.5c-.5-2.3-.9-4.2-1.5-6.5l3.8,4.3.2-.2-1-2.3,1,1,.4-1.1,1.7,1.3c-.1-1.5-.3-3,1.6-2.5.1,0,.3-.4.3-.7a31.16,31.16,0,0,1,1.1-5.3,28.63,28.63,0,0,1,2.4-4.2c-.1,3-.3,5.8-.4,8.5-2.1-.2-2.4,2-3.4,3.4l2.9-3,.1,6.9,2.7-3.2-.8,2.7.5.3,2.6-2.9.2.1-2.3,4.3,5.5-3.1.4.5-4.6,4.5.2.5,8.3-3.5.1.3-8.3,4.2.1.4,1.8-.1-1.4,1,6,1.4v.3c-1.6.1-3.2.2-4.8.4a6.63,6.63,0,0,0-1.9.9l.2.7,5.5-1.2.1.2-5.2,2.6,3.8-.3v.5l-1.4.4v.2h3.9v.41l-8.7,1v.7l9.8-.5v.4l-7.8,1v.5l7.5-.1v.6l-12,.9,4.5,1.6-4.2-.2,2,1.5-1.6.4.3.3,7,.7v.1l-6.2.2v.8l3.3-.3-1.2.9,7.2,1.4-.2.8-5.2-1.3-.1.4,1.2.5-.1.5-6.3-1.81c1.2,1.6,3.6.5,4.6,3l-5.3-1.6-.4.8,1.5,1.8-3.5-.9-.2.6,7.2,4.3-2.3.6.1-1.4-2.2,1.6-1.5-.7-.2.3,1.7,1.3c-2.5.6-3.3-2.5-5.3-2.2,1.7,2.5,3.4,5,5.4,8l-2-1.2a9.82,9.82,0,0,0-4.4-5.4l1,3-1.1-.6-.4.5a12.75,12.75,0,0,1,1.5,2.5,3.14,3.14,0,0,1-.5,2.1c-.6-1.1-1.1-2.2-1.7-3.3l-.3.1.7,3.3-.4.1-.7-2c-.5,1.9-1,3.7-1.3,5.5a2.72,2.72,0,0,0,.6,1.7c1.3,2,2.7,4,4,6a6.36,6.36,0,0,1,.6,1.8c.1.4.2.9.5,1,2.7,1.3,2.7,4,2.3,6.6a4.78,4.78,0,0,1-3.7,4.4,5.07,5.07,0,0,0-1.6.9,9.85,9.85,0,0,1,.2,1.7c.1,4,1.2,5,4.8,4.7q3.3-.3,6.6-.3a5.71,5.71,0,0,0,4.9-1.9c2.2-2.5,4.5-1.8,6.8-.5,2,1.1,3.7,2.6,6.3,2.3,1.9-.2,6.4-1.2,8-3h-3.8l1.8-1-2.5-.4-.1-.5,2.5-.9-3.1-.3v-.4l1.8-.6-2.3-.9v-.4l4.8.5V895l-3.6-1v-.2h1.4l.1-.2-3-1.3.1-.4,4.8.8.2-.5-4.8-2.6.2-.4,4.5,1.8.1-.2-3-1.9.2-.4,1.7.5-.3-2.9,4.7,3.4.2-.2-2.2-2.7.4-.5,2.5,2.2.3-.3-2.3-3.6,1.6.3,1.2-3.4,2.1.5c-.6-1.5,1.2-3.4-1.1-4.2,1.4-.5,2.8.4,3.2,2.1l1-.7.7,2.8,1.7-4c.1,1.4.1,2.6,1.8,1.3-.4,1.3-.7,2.2-.9,3a4.25,4.25,0,0,0,.2,1.1c.3-.1.5-.2.8-.3a6,6,0,0,0,1.5-.9,18,18,0,0,0,1.9-2,9.34,9.34,0,0,1,1.8-1.6l-3,6.2,2.6,2.3-1.2,2.6a10.68,10.68,0,0,1,2.5.3c.2.1.2,1,.3,1.7l1.4.4-2.8,1.1c1.9,0,3.7.1,5,1.9.3.5,1.2.4,1.8.7l2.3,5.2,1.7-7.7.5-.1,1.1,2.4.3-1.7c1.8.4,2-1.2,2.7-2.5l-.3,6.2,4-4.2.3.2-.7,1.6,1.4,1.1,2.6-2.1-.7,2.1,2.5-.3-1.7,3,2.7.3v.5l-4.8,1.8.1.3,3.6-.7c-2.5,3.1-6,3.2-9.5,4.7M574.4,725.41h-.8c-.4,2.4-.8,4.8-1.1,7.2h.3l1.9-5.3c-.2,2-.4,4-.6,6.1l.6.1,3-9.3-3.1,3.2Zm-13.7,32.4a8,8,0,0,0-1.3-1.3c-.4-.3-.8-1.6-1.4-.2l-1.3-.8c-.6.5-1.3.8-1.6,1.3a15.83,15.83,0,0,0-.9,3.1c-.7-.2-1.8-.2-1.7,1.7,0,.2-.2.6-.4.6-1.8.1-1.7,1.8-2,3.2l-1.9-2.5c-.7,1-1.3,1.8-2,2.8l-.2-.1,1-2.8c-2.1,3.2-3.4,6.9-2.7,10.5.6,3.1,3.2,5,5.9,6.4,2.1,1.2,4.1,2.5,6.1,3.9a3,3,0,0,1,.8.8,2.89,2.89,0,0,0,2.1,2.5c.8.2,1.2,1.4,2.2,2.6l-.7-2.4c2.8-1.2,5.4.3,6.1,4.2.6,3.5.9,7,1.4,11a17.23,17.23,0,0,0,.7-2.1c.4-3.4.9-6.8,1-10.2.1-3.1-.2-6.2-.3-9.4a23.36,23.36,0,0,1-.4-2.6c.2-3.2.2-6.2-1.5-9.2a89.79,89.79,0,0,1-4.5-10,9.64,9.64,0,0,1,0-2.4ZM606,897.11c-.9-3.2.9-5.4,3.3-7.2,1.9-1.4,2-1.6.5-3.4-3.2-3.8-6.4-7.6-9.7-11.4-1.4-1.7-6.3-1.9-8.5-.5l-2.1,1.5c-2.6,1.8-1.9,4.6-1.8,7.1.1,4.6.7,9.2,1,13.7l-.6.4-.5-1.6c-.1.6-.2,1-.1,1.1a6.11,6.11,0,0,1,1,4.7c0,.6.7,1.3,1,1.9h17.8C606.8,901,606.5,899,606,897.11Zm-50-78.2,1.3.5a3.4,3.4,0,0,0-.2,1.4c.4.7.8,1.3,1.2,1.9a5.92,5.92,0,0,0,.5-1.9c-.2-1.8-.7-3.5-.9-5.3a7.36,7.36,0,0,1,.1-3.3c1.1-2.5.3-4.6-.3-6.9a18.75,18.75,0,0,1-.1-4.1,14,14,0,0,0-3.9,8.8c-.1,3,1.2,5.5,2.6,8.2Zm-24.7-126.6-1.7.5c.2-1,.3-1.9.5-3.2L529,691c.2-1,.3-1.8.4-2.7l-.3-.1c-.5,1.2-1,2.3-1.6,3.6-.1-.2-.1-.4-.2-.6v-3.1l-2.1,2.2-3.3-1.3-.3.4,4.9,4.1-.6,1.3,4,1.9v-2.09l-.5-.1Zm-21.6,49.4c-.3.3-.5.7-.8,1l-1.5-1.3c.4,1.9.7,3.2,1.1,5,.3-.8.6-1.3.9-2l1.9,2.8c.8-1.1-1.5-2.3.5-3.7Zm144.5-6c1.2-.3,2.4-.7,3.6-1.1.4-.2.6-.7.9-1.1l-1-.7c-.6-.4-1.1-.7-1.7-1.1Zm10.4-23.4c-.4.1-.7.5-.8,1.3l2.5-.6-1.5,1.8,3.7.8C667.8,712.61,666.4,711.81,664.6,712.31Zm-143.4-52.7c1-.8,1.2-1.7-.1-2.8l-3.1,4.5.4.3A28.32,28.32,0,0,0,521.2,659.61Zm11.5,74.2-2.8-2.6,1.7-.4a7.46,7.46,0,0,1-1.2-.7c-.6,1.1-1.1,2.2-1.9,3.8Zm-28.4,6.6-3.3,2.2.1.4,1.6-.3-1.3,2,3.2-1.8Zm72.1-67.7,4.2-10.5C577.8,665.11,577.7,669.21,576.4,672.71Zm37,195c-1.4.5-1.4.5-1.3,2.5a18.41,18.41,0,0,1-.3,3.3l.6.1c.4-1.9.7-3.8,1-5.9Zm7.8-37.7c-.1-.2-.2-.3-.2-.4l.6-1.8-.6-.3c-.2.6-.3,1.2-.5,1.8,0,.1-.1.3-.1.4,0,.6-1.8,1-.3,1.7.9.4,1.7-.5,2-1.9Zm42.3-107.6,4.6,2.4C667.3,722.21,667.3,722.21,663.5,722.41Zm-122.3-1.2c-.4-1.5-.7-2.8-1-4.1h-.4v6.1Zm126.5-.7.5-.5a12.42,12.42,0,0,0-1.7-2.3c-.2-.2-.9.2-1.8.4Zm-161,21-.9-.3-1.1,4.4.5.2c.6-1.4,1-2.9,1.5-4.3Zm19.8-53.8-4-.7-.1,1C523.6,687.31,524.7,689.81,526.5,687.71Zm8.9,31.1-1.9.7,5.1,1.3.1-.3ZM516,760.31l-.1.7,3.5.8.2-.9Z"/><path class="cls-8" d="M685.6,1451.51c-.2-.2-.4-.4-.4-.6-.2-1-.8-1-1.7-.6a10.93,10.93,0,0,1-1.7.5l1.1-2.3c-.8.4-1.5.6-1.6.8-.6,2.4-1.1,1.7-1.7.2-.2-.4-.7-.6-1.1-1l-.8,1.2c-1.2-1.3-2.2-.3-3.1.6-1.3-2.2-1.5-2.2-5.3-1l1.8-1.6-1.5-2.3,2.1-1.5v-.4l-1.5.2-1.8.1c.1-.5.2-1.1.3-1.6a15.09,15.09,0,0,1,1.5-2.8,10.49,10.49,0,0,1,2.8-1.4"/><path class="cls-8" d="M670.3,1446.31c0-1.2-.1-2.2-.1-3.2a13.13,13.13,0,0,1,.1-2.8,38.41,38.41,0,0,0,.1-12.2c-.5-3.4-.6-6.8-1-10.2-.2-2.3-.7-4.5-1-6.8-.4-2.9-.8-5.9-1-8.8-.1-.8,0-1.4-.9-1.7-.3-.1-.5-.5-1-.9l-.8,1.4-.5-.7-.4.5a2.1,2.1,0,0,1-.5-.8c-.4-1.2-.8-2.4-1.1-3.5-.6.6-1.2,1.3-1.8,2a4.88,4.88,0,0,0-.1,1.7c-.1,1.3-.1,2.6-.2,3.8a4.55,4.55,0,0,0,.8,3l-.3-3.8.4-.1c.2.8.3,1.7.5,2.5a12.22,12.22,0,0,1-.2,3.3c-.2.81-.6,1.4-1.4.81l-.6,1.19c-.2-.4-.2-.6-.4-.8a6.63,6.63,0,0,1-.9-1.9,5.87,5.87,0,0,1-.4-2.3c.5-2.3,1.2-4.7,1.8-6.9a12.86,12.86,0,0,0-.4-1.9c-.2-1-.6-1.9-.8-2.8-.5-2.1-1.1-4.1-1.6-6.2v-.3c-1-2-.4-3.6.9-5.2a1,1,0,0,0,.1-.9l-.6-1.8a4.57,4.57,0,0,0-2.5-4l-.3-.6-.2,1.2-.9-1.9.3,1.7-.2.1-.7-1.4v1.3c-1.1-2.1-2-3.9-2.9-5.8-.5.5-.6.4-1.8-1.4l-.6.8.1-.9-.2-.1-.6,1.1-3.3-1,.5.8-.9-.1v1.5l-.8-.3c-.2,1-.5,1.8-1.5.8-.3-.2-.9-.1-1.5-.1l-.4,1.1-1.3-1.4-.7,2h-.2v-1.1c-1-.3-1.6.2-2,1.2a3.45,3.45,0,0,1-1.2.9c.4-2.9.8-5.6-1.1-7.9v2l-.3.2a12.44,12.44,0,0,0-1-2,5.24,5.24,0,0,0-1-1.1l.3-3-.3-.1-1,2.7h-.1l.7-2.9-.1-.1-.7,1-.3-1.1-1.2,2,.3-1.4-.2-.1-2.3,3.8-.3-.2c.5-1.2,1-2.4,1.7-3.8l-1,.6c-.7-.9-.7-.9-2.4-.3l2.2-2.5-.1-.2-1,.6-.1-.2,1.8-2.6-.2-.2-1,.5.8-2.4c-.4.3-.9.6-1.4.9-.7.3-1.3,1.3-2.2.7-.2-.1-.7.5-1.1.8l1.6-2.7-2.5,1-.2-.3,1.2-1.4-1.1.2.2-.8-1.4.1v-.2l2.6-1-1.3-.5a1.54,1.54,0,0,0,1.5-1.5v-.2a8.17,8.17,0,0,0-1.2-2l2.1-.7-1.5-1.2,2.3-.2.1-.4-2-1.1c1.6-.2,3-.4,4.5-.7.3-.1.5-.7.8-1a30.13,30.13,0,0,1,2.8-2.2l2.7,1.4c.5,1,1,2,1.6,3,.2.3.8.4,1.2.6l5.3,3.5-1.3.5,1.1.5-1.7.2.2,1.1-2,1.1v.3l5.2.9v.2l-5.4,1.3v.2l4.7.5v.3l-2.5.4v.5l2.1.6v.2l-4.7.2-.1.5,3.6,3.3a24.76,24.76,0,0,0,2.6,1.9,3,3,0,0,0,1.6.2,27.46,27.46,0,0,0,4.1-1.1,2.07,2.07,0,0,0,1-1.4,4.42,4.42,0,0,0-.2-2c-.6-2.1.3-4,.8-6,.1-.3.5-.5.9-.8l-.6-6.9-.3-.1-3,5c.7-2.1,1.3-3.9,2-5.7l-.3-.2-2.5,3.5-.2-.2a2.18,2.18,0,0,1,.5-.8c1-1.1.9-2.4,1-3.9l-2.8,1,1.1-1.2-1.6-.7-.8,1.1.2-1.6c.8-.5,2.2.3,2.3-1.6h-1.2l-.1-1.9h-.2l-.1,1.4h-.2l-.2-.8-.6.9.4-2.3-.3-.1-.9,1.3-.3-.2.4-2-1.2,2.1-.1-.1.7-1.8-.2-.2-.8,1.2h-.1l.8-2.4-1.2.8.1-1.4-1.4.8v-.59l-.2-.1-.8,2.6H637l.2-1.6-.2.1a2.22,2.22,0,0,0-.5-.81c-.3-.19-.7-.4-1-.6l.2-.8-.2-.1-.5.6c-1.6-1.6-2.7,1-4.5.9l5.4-4.1-.8-.4c-.2-.1-.3-.3-.5-.4l1.2-.6-2.7-.6v-.3l2.3-.1-1.8-.69,1.2-.41-2.2-1.4.1-.19,1.2.5.2-.31-.9-.4.3-.4,2.2,1.6.3-.2a4.18,4.18,0,0,0-.4-1c-.2-.6-1.1-1.3.3-1.6.2,0,.3-1.19.3-1.8a8.56,8.56,0,0,0-.5-2.3c-.6.3-.6.3-1.1-2.2l-1,1.3-1.1.2v-3.7l-.3-.1-.8,4.1c-.2-1.8-.3-3.3-.5-5l-1,2.6h-.2l.9-3.7H630l-2.1,4.91-.3-.1.6-2.4-.1-.1-.9,1.3-.2-.1,2.3-4.6-.2-.1-3,3.7-.2-.1,1-2.6-.9.7-.1-.1,1.4-1.9-.1-.1-2.8,2.6-.1-.2,2.8-4.3-3.7,1.8-.1-.2,2.6-1.7-.1-.2-1.3.5-.1-.1,1.5-1v-.2l-2.8.5-.1-.4,2.7-.6v-.2l-2.3.4-.1-.4,3.1-1.2-3.5-.8,1.4-.2-2.4-2.3,2.2-.4-1-.8,3-.8-1.4-.4c.2-.7.2-.7-1.4-1.2l1.5-.4-1-.6v-.3l3.9.4.1-.5-4-1.3v-.2l2.3.4.2-.4c-2,.3-2.2-2-3.5-2.9a12.25,12.25,0,0,0,1.9.2,6.38,6.38,0,0,0,1.4-.8l-1.8-1,.1-.3c.5.1,1,.3,1.4.4a4.13,4.13,0,0,0,1.5.7c-.5-.6-1-1.1-1.5-1.7-.1-.3-.2-.5-.3-.8l.6-.2,1.9-.4c.4-.1.8-.1,1.3-.2l-.2-1.6,1.9,2.5.3-1.4c.9.4.4-.7.7-.8,0,1.5,0,1.6.9,1.7l.2-1.4h.1v2.8h.2c.3-.7.5-1.4,1-2.5v1.9l.5-.6.1,2.7,3.4-3.6.9.8c.4-1.8.8-3.4,1.2-5.1l.3.1c-.2,1-.3,2-.5,2.9a2.19,2.19,0,0,0,.7,2.4l-1.2-.3c0,2,1.4,2.5,3,3.4a6.47,6.47,0,0,0-.4-1.3,13.3,13.3,0,0,0-1.4-1.9l2.5,1.9.2-.3-1-1,1.1-.6.9.7c1.2-.5.3-1.5.5-2.4l.8,1.6h.2l-.1-1.4.1-.1.2.69.3-.09v-1.91l.2-.09c.1.4.2.9.3,1.3a2.18,2.18,0,0,0,.5.8c.3-.2.7-.4.8-.7.2-.6.3-1.1.5-1.7v1.3l1.4-.5-.7,1.9.1.1,1.1-1.3c.4,1.8-1.2,2.5-1.4,3.8,1.2.5,1.4-1,2.4-1.3l-.6,1.2.2.4,1.4-1.9.3.4-1.7,1.7.1.2,2.1-1.3.2.3-5.2,3.9.3.4,2.9-2.2-.6,1.1a3.81,3.81,0,0,0,1.5.1c.5-.1.9-.5,1.5-.5l-2.7,1.7,1.7.6-3.4,1.4v.2l5-.2-6.5,1.7v.4l1.3.6-1.1.19.3,1h-.7l1.3,1.1c-1,1-.4,1.7.3,2.6a28.84,28.84,0,0,1,2.2,3.8l-1.5-.8a12.07,12.07,0,0,1,1.3,7l-.7.3-.5-1.19c-.7,1.9-2.5,3.4-1.8,5.69a20,20,0,0,0,2.3,5.2l.5,3.4c1.3,1.1,1.3,1.2.5,3.1-.6,1.2-.7,2.2.7,2.9l-.8-1.69.5-1.1.5,1.9a2.87,2.87,0,0,1,2.6-2.4l.6.6-1,1.59c1.3.41,2.2-1.5,3.1-.19.6,1,1.1,2,1.6,3l.1-3h.2l.4,3.19h.2a13.33,13.33,0,0,1,.3-2.8c.2-.5.8-.8,1.4-1.2l-.2,2.31h.2l.8-2.81h.1l-.4,4.1.2.2,2.5-3.9.2.1-.9,2.2.7-.4.5,1.4h.4l.7-2.6h.1l-.4,2.3.3.1.6-1.7.3.4.3-1.7h.2l-.2,2.7h.2l.3-1.7.4,1.5,1.5-4.19-.2-.1-.9,1.5-.8-5.9-.2,2.19a4.14,4.14,0,0,1-1.2-3.19,6.53,6.53,0,0,0-.5-2,5.75,5.75,0,0,1-.1-1.31c-.1-1.5-.1-3-.2-4.8l-.8.8.1-6.19H666l-.4,1.1h-.2a6,6,0,0,1-.2-1.31v-1.3c-.6-1.8,0-3.5.3-5.2a7.41,7.41,0,0,0-.8-4.4,3.19,3.19,0,0,1-.3-1.4c-.1-.7-.1-1.4-.2-2.3l-1,.9-.1-1.8h-.2l-.6,2.3H662c.3-2.3-.7-4.7.6-7l-.4-.1-4,9-.3-.1,1.5-5.4-.6-.2,1.3-3.8-.3-.2-2,1.31-.3-.2c1.4-1.2,3.1-2.1,2.7-4.3l-2.1-1.5.2-.31,2.2,1c.5-1.6-.8-1.4-1.3-1.8a1.69,1.69,0,0,1,1-.3,1.14,1.14,0,0,1,.8.3l.2-.5-1.6-1.4,1.4-1-1.9-.3,1-.2v-.3l-2.2.3v-.2l1.7-.6v-.19h-1.2v-.2l1.9-.4v-.2l-3.3-.6h2.2v-.2l-1.3-.3v-.1l2.5.2v-.2l-2.1-.4,1.2-.1-1.5-.6v-.1l1.2.1-.9-.7.1-.2,2.4.9-2.3-1.8.2-.4,1.3.2.1-.2-1.1-.7c.7-.6.7-1.6,0-2.6l1.3.7.9-2.5,1.3,1.2.3-.2-.4-2.5.7,1.1c1.8-.7.5-2.2.5-3.4h.3l.6,2,.3-.5.2,2.7h.2l.6-1.7.2,3.1h.3l.4-4.3h.4l-.6,3.6,1.1-1.2-.8,3.9,1.8-2.5.3.2-.8,2.3.2.2c.2-.3.4-.5.6-.8l.7-.8.3.19-.9,2.1.2.2.7-.9,1.2,1.2c.4.2.8.2.9-.5a4.13,4.13,0,0,1,.7-1.1c-1.2-1.1.9-1.1.9-2l.9,4.4.6-2.7h.2l.2,1.8.6-1.6c1.1.91,1.1,1.41.5,2.81-.3,1-.5,2-.7,3-1.1-.9-.5-2.2-.5-3.31H675l-.2,5,.4.1c.2-.6.4-1.19.6-1.69.2-.2.3-.5.6-.91l-.1,1.2.4.5c.2-.4.3-.7.5-1.1s.4-.6.7-1.1l-1.1,4,4.5-3.69.2.3c-1.1,1.1-2.2,2.1-3.3,3.2-.3.3-.3,1-.5,1.9l2.7-1.8v.59l.8-.4-2,3.31.3.19,2.1-1-1.7,2.5.1.2,1.3-1,.2,1,1-.3-2.5,2.5h1.5l.1.4-2.5,1.2v.2l4,.1v.2c-1,.1-1.9.1-2.8.2s-1.7.2-1.6,1.6l-1.2-.4c.2,2.3.5,4.5.7,6.7l-.3.1-.6-1.2c.6.6.5,0,.4-.3-.3-1.3-.7-2.6-1.1-4.2-.2,1.4-.4,2.6.3,3.6l-1.7-.3-.1-.7h-.2l-.5,3.1.9-.3-.1,2.8-.8-2-.4.2,1.6,12.6-.2.1-1.1-2.4.6,4.2c-1.2,1-.4,2.3-.5,3.5-.4,2.9,1.3,5.3,1.3,8.1,0,.9-.2,1.7-.3,2.8.9.9.9,3-.1,4.9l1.8-.9-.9,3.1.4-.2-.5.7.1.2,2.7-2.2c-.3,1.4-2.1,1.4-1.9,3.1l1.7-.8.1.2-3,2.1.1.3,3.1-.5-.7,1a14.55,14.55,0,0,0,6.4-1.7l-2.3,2.2c-.4.1-.7.1-1.1.2a17.23,17.23,0,0,0-2.1.7h-.1c-1,.8-1.7,2.1-3.3,1.7l.1.4.7.8H675v.3l.9.6-.2.4-2.3-1.3-.8,1,.4.8-.1.1-.8-.8c-1.2.6-.6,1.6-.7,2.5h-.6c-.3,4.3,1.7,7.5,3.3,10.9a12.22,12.22,0,0,1,.8,5c.1,3.4-.1,6.9-.2,10.3v.9c.2-.3.4-.5.4-.6.7-3.9,2.4-7.7,2.3-11.8v-7.7a6.26,6.26,0,0,1,.3-2.7c.8-1.7.6-4.1,2.4-5.1a14.26,14.26,0,0,1,2.7-.9,16.09,16.09,0,0,0,6-2.2c.4-.3.7-.7,1.1-1,1.6-1.4,3.2-2.7,4.8-4a1.69,1.69,0,0,1,1-.3c3.7.2,7.3.6,11,.7a7.09,7.09,0,0,0,2.8-.9,6.63,6.63,0,0,0,1.9-.9c.4-.2.8-.3.6-1.2-.4-1.4,1-2.2,1.7-3.1.3-.4.6-.6.9-1-.1-.2-.2-.3-.3-.5l1.6-.7-2.8-.3,1.4-.9-1.2-.3v-.3l3.5-.4v-.2l-3.2-.8,1.9-.4-1-.8,2.8.7.1-.2-2.8-2.7.1-.2,3.5,2,.2-.2-1.9-2.1.1-.2,1.9,1.5.1-.2-2.1-2.4h1.2l-.8-1.2,1.2.7.2-.7,1.9,1.1.2-.3-3.5-3.1c1.5-.4,2,1.3,3,1.8,1.2-1.7-.5-2.9-.4-4.4l.3-.3,1.1,2.7.5-.4a12.9,12.9,0,0,0-.8-2.8c-.5-.9.2-1.4.3-2.1,0,0,.5,0,.6-.1l.8,1.6.4-.1c-1-1.9,1.1-2.1,1.4-3.2.2-.7,1-1.1.7-2.2-.2-.8.4-1.8.6-2.8l.5.1-1.8,8.2,1.2-.4.1,1.4,1.2-1.1.2.2-.3.8,2.2.1-2,2.2.2.3,2.9-2.3.2.3-3.9,3.2.1.3,3.1-1.7.1.3-2.6,1.8.1.2,2.3-.8.1.3-1.6,1c.7,1.5,1.8.2,2.8.4l-.2,1.3,1.3.1-1,.5,1.1,1.7.3-.2-.5-2,1.2,1.2.1-1.3,1.3,1.6,1.3-1.3.7,1.2,2-2.1.1.1-.8,1.7.2.2.9-.6.1,1.7,1.7-1-1.3,1.4,1.2.1v.2c-.5.2-.9.4-1.3.6a3.81,3.81,0,0,0-.9,1.3l1.2.2c.1,0,.2,0,.4.3l-2.5.6v.2l3.4-.4-.4.9c-.5.2-1.2,2.7-.8,3.5.3-1.6,1.5-3,2.7-2.9-.8,1.8-1.2,3.7-2.3,5a2,2,0,0,0-.3,2.3,5.71,5.71,0,0,1,0,2.6l-.9-.6-.1.2,1.9,2.5-3-2.3-.2.2,1.1,2.5-.2.2c-.3-.4-.5-.7-.8-1.1s-.5-.8-.8-1.2l-.3.1.6,2.1-.2.2-1.2-2.2-.2.1.6,2.3-.2.2-1.5-2.3-1.2,2.8.1-3.9-.4-.2a6.89,6.89,0,0,0-1.3,1.1c-.9,1.2-2.4,1.7-2.8,3.4a.45.45,0,0,1-.3.3c-1.4-.1-2,1.2-2.8,2.3l.3-1.4-1.5,1.9-.2-.2,1.1-1.9-.1-.1-1,1.2-.3-.5-4.2,3.5.5-1.4-1.4,1-.1-.2,1.5-1.7-.2-.3a5.55,5.55,0,0,0-.8.6c-1,.9-2.1.6-3.2.7a11.76,11.76,0,0,0-2,.7,2.35,2.35,0,0,1,.2-.8,3.92,3.92,0,0,1,.8-1l-1.4.4.7-1-.2-.3-1.4,1-1.9-1.5.7-1.3-.1-.2-3.3,2v-.1a1.42,1.42,0,0,1,.2-.6l-3.3,3.3-2.3-.5h0l.1-.8h0l-.8-.1,1.8-1.9-.1-.2-1.6.8.1-.8-.3-.1-.5,2.6.8-.5-1,1.4.3-3.2-1.1.1.4-.6-.1-.2-2.1,1.1.8-1.1-1.3.2-.1-.2,1.7-1.2-.1-.2-1.3.3-.1-1.5c-1.9,3-5.3,4.4-5.6,8.6l-.3-.2-.1-1.2-2,2.5-.5-1.6-.8.9-.1-.6-3.2,2.6c.1-.2.1-.3.2-.5-1,.1-1,.1-1.8,3.6,1.2-.9,2.3-1.8,3.4-2.6.9-.6,2-1.3,2.7-.2s0,2.1-.8,2.9a11.51,11.51,0,0,0-1.7,1.4c-1,1.1-1.8,2.3-2.8,3.6l-.8-.5c-.1.1-.1.2-.2.3.8,1.5.2,3.1-.1,4.6a27.59,27.59,0,0,1-.8,2.7c-1.1,3.8-2.2,7.6-3.4,11.4l-.3-.1-.2-.7c-1.2,1.9-2.4,3.8-3.6,5.6a1.75,1.75,0,0,0-.4,1.2c.3,1.2-.4,1.8-.8,2.6-.2.2-.4.6-.3.8.8,1.9.6,4.4,2.4,5.7a1.35,1.35,0,0,1,.6,1.8.1.1,0,0,1-.1.1c-.1.1-.1.2-.2.3,1.6,0,1.3,1.5,1.7,2.6.1.4.4.9.6.9,1.2,0,1.4,1,1.5,1.9.2,2.2.2,4.4.3,6.6.1,3.2.1,6.4.2,9.7a31.76,31.76,0,0,1,4.3-.6,27.94,27.94,0,0,1,4,.7,3.43,3.43,0,0,0,2.8-.3v-.4l-2.6.3,1.8-1.1-.1-.4-2.2-.5v-.3l3.6-.2-1.9-.6v-.2l4,.4v-.4c-1.1-.2-2.3-.4-3.4-.5a27.15,27.15,0,0,1-4.9-.5l4.7-.2.1-.2-5.7-2.3.1-.4,7.3,2,.1-.4-5.4-2.2.1-.3,1.9.6-2-1.5.1-.2a3.13,3.13,0,0,0,1,.5c1.2.5,2.4.9,3.6,1.3l.2-.2,1.6,1.1c.2-.4.4-.7.6-1.1a.85.85,0,0,0,0-.7,15.93,15.93,0,0,0-2.9-1.5l2,1.9H692c-.1-.1-.2-.3-.4-.3-1.5-.3-1.7-1.8-2.2-2.9-.1-.1.2-.5.3-.7-1.8-1.2-1.8-1.2-1.8-1.9l1.3,1,.1-.2a2.35,2.35,0,0,1,.8.2,2.77,2.77,0,0,0,1.3.3l-1.6-1.3.2-.3,1.6.9.2-.2-3.1-2.2.2-.4,7,4.1.2-.3-4.3-3.3.3-.4,2.8,2.2.2-.2-3.3-3.5,1.3.3-2.6-2.7.1-.2,4.2,2.8.3-.3-1.9-2.8.2-.3,1.9,1.8-.3-1.1.7.6.1-.1-.7-1.5.2-.1.9.9-.9-4.1,2.4,2.7.1-.2-.6-1.4.6.6.3-.7,1.1.8c0-.9-.2-1.9,1-1.6a.76.76,0,0,0,.2-.4c.2-1.1.4-2.2.7-3.3a13.5,13.5,0,0,1,1.5-2.6l-.2,5.4c-1.3-.1-1.5,1.3-2.1,2.2l1.8-1.9.1,4.3,1.7-2-.5,1.7.3.2,1.6-1.8.1.1-1.5,2.7,3.5-2,.2.3-2.9,2.8.1.3,5.3-2.2.1.2-5.2,2.7v.2l1.1-.1-.9.6,3.8.9v.2c-1,.1-2,.1-3,.3a3.38,3.38,0,0,0-1.2.6l.1.4,3.4-.8v.1l-3.3,1.6,2.4-.2v.3l-.9.2v.1H709v.3l-5.5.6v.4l6.2-.3v.3l-4.9.7v.3l4.7-.1v.4l-7.5.5,2.8,1-2.7-.1,1.2.9-1,.2.2.2,4.4.4h0l-3.9.1v.5l2.1-.2-.8.6,4.5.9-.1.5-3.2-.8-.1.3.7.3v.3l-4-.9c.8,1,2.2.3,2.9,1.9l-3.3-1-.2.5,1,1.1-2.2-.6-.2.4,4.5,2.7-1.4.4.1-.9-1.4,1-1-.4-.1.2,1.1.8c-1.6.4-2.1-1.6-3.3-1.4,1.1,1.6,2.1,3.2,3.4,5l-1.3-.7a6.66,6.66,0,0,0-2.8-3.4l.6,1.9-.7-.4-.3.3a5.07,5.07,0,0,1,.9,1.6,1.52,1.52,0,0,1-.3,1.3l-1-2.1h-.2l.4,2.1-.3.1-.5-1.2c-.3,1.2-.6,2.3-.8,3.4a2,2,0,0,0,.3,1.1c.8,1.3,1.7,2.5,2.5,3.8a5.64,5.64,0,0,1,.4,1.2c.1.2.2.6.3.6,1.7.8,1.7,2.5,1.5,4.2a3.2,3.2,0,0,1-2.3,2.8,2.07,2.07,0,0,0-1,.6,4.1,4.1,0,0,1,.1,1.1c0,2.5.8,3.2,3,2.9a29.54,29.54,0,0,1,4.2-.2,3.62,3.62,0,0,0,3.1-1.2c1.4-1.6,2.8-1.1,4.3-.3,1.2.7,2.3,1.7,3.9,1.5,1.2-.1,4-.7,5.1-1.9h-2.4l1.1-.6-1.5-.2v-.3l1.6-.6-1.9-.2v-.2l1.1-.3-1.5-.6v-.3l3,.3v-.2l-2.2-.7v-.2h.9v-.1l-1.9-.8.1-.3,3,.5.1-.3-3.1-1.6.1-.2,2.8,1.1.1-.1-1.9-1.2.1-.3,1.1.3-.2-1.8,3,2.1.1-.1-1.4-1.7.2-.3,1.5,1.4.2-.2-1.4-2.3,1,.2.8-2.1,1.3.3c-.4-1,.8-2.1-.7-2.7a1.45,1.45,0,0,1,1.9.9v.1c0,.1.1.3.1.4l.6-.4.5,1.7,1.1-2.6c0,.9.1,1.6,1.1.8-.2.6-.4,1.3-.6,1.9a1.85,1.85,0,0,0,.2.7c.2-.1.3-.1.5-.2a2.07,2.07,0,0,0,1-.6l1.2-1.19a5,5,0,0,1,1.1-1l-1.8,3.9,1.7,1.4-.8,1.6a9.7,9.7,0,0,1,1.6.19c.1,0,.1.6.2,1.1l.9.2-1.8.7a3.55,3.55,0,0,1,3.2,1.2c.2.3.7.3,1.1.4l1.4,3.3,1.1-4.8h.3l.7,1.5.2-1.1c1.1.2,1.3-.8,1.7-1.6l-.2,3.9,2.5-2.7.2.2-.4,1,.9.7,1.6-1.3-.4,1.3,1.6-.2-1.1,1.9,1.7.2v.3l-3,1.2v.2l2.2-.5c-1.6,1.9-3.8,2-6,3M672,1334.91h-.5c-.2,1.5-.5,3-.7,4.6h.2l1.2-3.3c-.1,1.3-.2,2.5-.4,3.8l.4.1,1.9-5.9-1.9,2Zm-8.6,20.4a3,3,0,0,0-.8-.8c-.2-.2-.5-1-.9-.2l-.8-.5a3.92,3.92,0,0,0-1,.8c-.2.6-.4,1.3-.6,2-.4-.1-1.1-.1-1.1,1a.76.76,0,0,1-.2.4c-1.2,0-1,1.1-1.2,2l-1.2-1.6-1.2,1.7-.1-.1.6-1.69a9.18,9.18,0,0,0-1.7,6.59c.4,2,2,3.2,3.7,4a31.1,31.1,0,0,1,3.8,2.5c.2.1.5.31.5.5a2.09,2.09,0,0,0,1.3,1.6c.5.2.8.9,1.4,1.7l-.5-1.5c1.8-.8,3.4.2,3.8,2.7.4,2.2.6,4.4.9,6.9.2-.4.3-.9.5-1.3.2-2.1.5-4.3.6-6.4a58.15,58.15,0,0,0-.2-5.9,9.85,9.85,0,0,1-.2-1.7c.1-2,.2-3.9-1-5.8a35.55,35.55,0,0,1-2.8-6.3,3.79,3.79,0,0,1,0-1.5Zm28.5,87.6c-.6-2,.6-3.4,2.1-4.5,1.2-.9,1.3-1,.3-2.2-2-2.4-4-4.8-6.1-7.2-.9-1-4-1.19-5.4-.3-.4.3-.9.6-1.3.9-1.6,1.1-1.2,2.9-1.2,4.4.1,2.9.4,5.81.6,8.6l-.4.2-.3-1a1.7,1.7,0,0,1-.1.7,4,4,0,0,1,.7,3c0,.4.4.8.6,1.2h11.1a12.09,12.09,0,0,0-.6-3.8Zm-31.5-49.2.8.3c0,.31-.2.7-.1.9a7.37,7.37,0,0,0,.8,1.2,2.66,2.66,0,0,0,.3-1.2c-.1-1.09-.4-2.19-.6-3.3a5,5,0,0,1,.1-2.1c.7-1.6.2-2.9-.2-4.3a11.3,11.3,0,0,1,0-2.6,8.17,8.17,0,0,0-2.4,5.5c-.1,1.9.8,3.4,1.6,5.1Zm-15.5-79.6-1,.3.3-2-.7.81.3-1.7-.2-.1-1,2.3c0-.1-.1-.2-.1-.3v-1.9l-1.3,1.4-2.1-.8-.2.3,3.1,2.6-.4.8,2.5,1.2v-1.3l-.3-.1Zm-13.6,31.1c-.2.2-.3.4-.5.6l-.9-.8.7,3.2.5-1.3,1.2,1.8c.5-.7-1-1.5.3-2.3a4.89,4.89,0,0,0-1.3-1.2Zm90.8-3.8c.9-.3,1.6-.4,2.3-.7.2-.2.5-.4.6-.7l-.6-.4-1-.7Zm6.6-14.8a1,1,0,0,0-.5.8l1.5-.4-1,1.1,2.3.5C730.8,1326.81,730,1326.41,728.7,1326.61Zm-90.1-33.1c.7-.5.8-1.1,0-1.8l-2,2.9.2.2a20.28,20.28,0,0,0,1.8-1.3Zm7.2,46.7-1.8-1.6,1.1-.3a2,2,0,0,0-.8-.4c-.4.7-.7,1.4-1.2,2.4Zm-17.8,4.1-2.1,1.4.1.2,1-.2-.8,1.2,2-1.2Zm45.4-42.6,2.6-6.6C674.2,1297,674.1,1299.51,673.4,1301.71Zm23.3,122.7c-.9.3-.9.3-.8,1.6a13.55,13.55,0,0,1-.2,2l.4.1Zm4.9-23.7c-.1-.1-.2-.2-.1-.3.1-.4.3-.8.4-1.1-.1-.1-.3-.1-.4-.2-.1.4-.2.7-.3,1.1v.3c0,.4-1.1.6-.2,1.1.6.3,1.1-.3,1.3-1.2Zm26.6-67.7,2.9,1.5C730.5,1332.91,730.5,1332.91,728.2,1333Zm-77-.8-.6-2.6h-.2v3.9Zm79.6-.4.3-.3a13,13,0,0,0-1-1.5c-.1-.1-.6.1-1.1.3ZM629.5,1345l-.5-.2c-.2.9-.5,1.9-.7,2.8l.3.1Zm12.5-33.8-2.5-.5v.6C640.1,1310.91,640.8,1312.51,642,1311.21Zm5.6,19.5-1.2.4,3.2.8.1-.19Zm-12.2,26.2-.1.4,2.2.5.1-.6Z"/><path class="cls-8" d="M342.5,1631.21c-.6-2.9-1.1-5.8-1.6-8.6a6.54,6.54,0,0,1-.2-3.1c.5-2.1-.2-4.69,1.6-6.3a11.24,11.24,0,0,1,2.8-1.6,18.6,18.6,0,0,0,6.2-3.7,7.1,7.1,0,0,0,1-1.4c1.5-1.9,3-3.69,4.5-5.6a2,2,0,0,1,1-.59c4.1-.5,8.3-.91,12.5-1.5a9.05,9.05,0,0,0,3-1.6,13.3,13.3,0,0,0,1.9-1.4c.4-.31.9-.5.4-1.5-.8-1.5.7-2.6,1.2-3.91.2-.5.6-.8.8-1.3-.1-.2-.3-.3-.4-.5l1.7-1.1-3.2.31,1.4-1.41-1.4-.09-.1-.31,3.8-1.19v-.2l-3.8-.2,2-.8-1.2-.7,3.3.2.1-.2-3.7-2.4.1-.2,4.3,1.5.1-.3-2.6-1.9.1-.2,2.5,1.3.1-.2-2.8-2.2,1.4-.3-1.2-1.2,1.5.5v-.8l2.4.9.1-.3-4.6-2.8c1.6-.7,2.5,1,3.7,1.4,1-2.2-1.2-3.2-1.4-4.9l.3-.4,1.8,2.8.5-.6a14,14,0,0,0-1.5-3c-.8-.9,0-1.6-.1-2.4.2-.1.5-.1.7-.2l1.2,1.6.5-.2c-1.5-2,.8-2.6.9-4,.1-.9.8-1.5.3-2.7-.4-.8,0-2.1.1-3.2h.5l-.3,9.6,1.3-.6.4,1.6,1.1-1.5.3.2-.1.9,2.4-.4-1.8,2.8.3.3,2.8-3.2.2.2-3.6,4.4.2.3,3.1-2.6.2.3-2.5,2.6.1.2,2.4-1.4.2.3-1.6,1.4c1.1,1.5,2.1-.2,3.2-.1l.1,1.5,1.5-.1-1,.8,1.6,1.6.3-.2-1-2.2,1.6,1.1-.1-1.4,1.8,1.6,1.2-1.7,1,1.2,1.8-2.7.2.1-.6,2.1.3.2.9-.8.5,1.9,1.6-1.5-1.1,1.9,1.3-.2.1.2a6.42,6.42,0,0,0-1.3,1,8,8,0,0,0-.8,1.6h1.4c.1,0,.2,0,.5.2l-2.7,1.2v.2l3.8-1.2-.2,1.1c-.5.3-.8,3.3-.1,4.1,0-1.9,1-3.6,2.4-3.8-.5,2.1-.6,4.4-1.5,6.1a2,2,0,0,0,.2,2.6,9.29,9.29,0,0,1,.5,2.9l-1.1-.4-.1.2,2.7,2.4-3.9-2-.2.3,1.8,2.6-.2.3a5.24,5.24,0,0,1-1.1-1l-1.2-1.2-.3.2,1.1,2.2-.2.2-1.8-2.2-.2.2,1.2,2.4-.2.2-2.2-2.3-.8,3.3-.7-4.4-.5-.1a6.1,6.1,0,0,0-1.2,1.6c-.8,1.5-2.4,2.4-2.4,4.4,0,.2-.2.3-.3.4-1.6.2-1.9,1.7-2.7,3.2V1602l-1.3,2.4-.3-.2.8-2.4.1-.1-.9,1.5-.4-.5-3.9,4.8.3-1.7-1.4,1.4-.1-.2,1.3-2.2-.3-.2a3,3,0,0,0-.8.8c-.9,1.2-2.3,1.1-3.5,1.5a7.19,7.19,0,0,0-2.1,1.2,3.4,3.4,0,0,1,.1-1,7.46,7.46,0,0,1,.7-1.2l-1.5.7.6-1.3-.3-.3-1.4,1.5-2.5-1.3.5-1.6-.2-.2-3.3,3v-.2a1.7,1.7,0,0,1,.1-.7l-2.9,4.4-2.8-.1h0l-.1-.9h-.1l-.9.1c.5-.8,1.1-1.7,1.6-2.5l-.2-.2-1.6,1.3-.1-.9h-.4v3l.8-.7-.9,1.8-.3-3.7-1.2.3.3-.8-.2-.2-2.1,1.7.6-1.4-1.5.5-.1-.2,1.7-1.7-.1-.2-1.4.7-.4-1.7c-1.5,3.8-5,6.1-4.5,10.8l-.4-.1-.4-1.4-1.7,3.2-.9-1.6-.7,1.2-.2-.6-3.1,3.6a1.42,1.42,0,0,0,.2-.6c-1.2.3-1.2.3-1.2,4.4,1.1-1.2,2.2-2.5,3.3-3.6.8-.8,1.9-1.9,3-.9s.5,2.4-.3,3.4a14.62,14.62,0,0,0-1.6,1.9c-.8,1.5-1.5,3-2.3,4.7l-1-.4c-.1.2-.2.4-.1.4,1.3,1.5.9,3.4.9,5.2a16.28,16.28,0,0,1-.3,3.1c-.4,4.5-.9,9.1-1.3,13.6H348l-.4-.7m39.7-55c.8-.4,1.6-.8,2.4-1.3a4.05,4.05,0,0,0,.5-.9l-.8-.4-1.3-.6Zm4.2-18a1.16,1.16,0,0,0-.4,1l1.7-.8-.8,1.4h2.7c-.8-1.8-1.9-2.1-3.2-1.6Zm.7,7.3,3.6,1.1C394.9,1583.41,394.9,1583.41,392.2,1584Zm2.7-1.9.3-.4a6.73,6.73,0,0,0-1.5-1.4c-.2-.1-.6.2-1.2.5Z"/><path class="cls-8" d="M330.4,1655.31c2-1,2.9-8.1,5.4-7.9a5.5,5.5,0,0,0,2.2-.2,2.42,2.42,0,0,0,1.4-1.4,25.92,25.92,0,0,0,.4-4.8,2.9,2.9,0,0,0-.5-1.8,30.7,30.7,0,0,0-2.6-2.5c-1.4-1.2-3-2.2-4.4-3.3l-.5.2c.3,1.8.5,3.5.8,5.3h-.2l-1.1-2.2-.6.1.1,2.9-.3.1-1.5-5.2-.3.1-.4,6.4h-.2l-2.1-5.6-.4.1-.8,2.5h-1.2l.2,1.9-.8-1.2-.3,1.6-5.1-5.2c-.4-.3-.5-1-1-1.2a24.18,24.18,0,0,0-3.6-1l-2.2-2.69c.6-1.2,1.2-2.41,1.9-3.6.2-.4.9-.7.9-1.1,0-1.7-.1-3.3-.1-5.2l1.7,2,.4-.2-.2-2.6,1.7,1.4.4-2.5c.8.3,1.7,1,2.5.9a1.67,1.67,0,0,0,1.6-1.7v-.3l.8,1.3.6-3.2h.2l.2,1.6.9-.3v1.3l1.4-1.6.4.2c-.2.9-.4,1.8-.6,3l2.7-2.4c-.1.6-.8,1.2-.6,1.4.8,1-.1,1.8-.3,2.7a8.65,8.65,0,0,1-.7,1.7l2.5-1.4-.3,1.3.3.2,2.5-2.6.2.1-.5,1.2.2.1,2.3-3c-.3,2.1-.3,2.1.9,2.6l-.5,1.3,3.9-2.6.3.3-3.7,3.3.2.2,1.5-.6-2,1.8,1.2.1-.9,1,.1.2,3.1-1.4.1.2-2.9,1.6.1.3,3.3-1a4.19,4.19,0,0,0,1.4.9,23.35,23.35,0,0,0,2.5.7l-.1.4-2.2.5c3,1.6,5.9.6,9-.5-.4.7-.4,1.3-.8,1.6-1,.7-1.5,1.4-.9,2.5l1.2-.2v.2l-2.1,1.2,1.9,1.2-1.2.6c.2.7.1,1.4.4,1.7,1.4,1,.4,1.4-.6,1.9l.5.8-1.6.2.3,1-1-.4,1.8,3.5-1.1.9.1.2,1-.31-.8.81c2.3.9,2.4,1,1.9,1.69l7.1,2.1-1.5.31,1.8.5v.19h-2l2.3.6-1.4.5c.3.1.6.1.7.2a5.3,5.3,0,0,0,5,1.9,7.61,7.61,0,0,1,2.1.3,1.69,1.69,0,0,0,1-.3m-46.4-20.3c.6-1.6,1.8-.2,2.5-.9l-2.2-1,1.3-.9-3.7-.1,1.1.8a4.35,4.35,0,0,0-.6.7l1.6,1.4Zm-1.5-5,.9-2.5-1.2,1.2v-1.2h-.3l-1.1,2.6Zm2.2.1-.2-.3-3,1.4.3.6Zm12.6,8.1.6-.2-1-2.4-.5.2Z"/></g></g></svg>